<svg width="420" height="287" viewBox="0 0 420 287" fill="none" xmlns="http://www.w3.org/2000/svg">
<path d="M67.3144 74.7468C67.8372 70.2906 69.6227 66.0242 72.5046 62.3446C75.3865 58.665 79.2714 55.6917 83.797 53.7012C88.3226 51.7108 93.3429 50.7682 98.3903 50.9608C103.437 51.1535 108.347 52.4758 112.663 54.8044C116.575 52.3659 121.126 50.8563 125.882 50.4192C130.638 49.9813 135.441 50.6309 139.834 52.3051C144.227 53.9799 148.064 56.6234 150.979 59.9847C153.894 63.346 155.791 67.3132 156.489 71.5078C163.607 72.9743 169.869 76.712 174.08 82.0084C178.292 87.3048 180.161 93.7904 179.329 100.23C178.497 106.669 175.025 112.612 169.572 116.927C164.118 121.242 157.066 123.627 149.759 123.628H78.1354C71.4979 123.632 65.0654 121.591 59.9393 117.851C54.8131 114.112 51.3121 108.909 50.0358 103.133C48.7595 97.3559 49.7873 91.3655 52.9433 86.1873C56.0993 81.0084 61.187 76.9647 67.3353 74.7468H67.3144Z" fill="#66C5FF"/>
<path opacity="0.6" d="M140.274 94.912C140.983 91.8874 140.983 88.7659 140.274 85.7413L136.225 85.2324C135.771 83.7577 135.108 82.3397 134.253 81.0125L136.704 78.1068C134.802 75.5221 132.314 73.3158 129.4 71.6287L126.134 73.7844C124.632 73.0276 123.031 72.4368 121.366 72.0262L120.802 68.445C117.385 67.8159 113.858 67.8159 110.441 68.445L109.867 72.0262C108.202 72.4368 106.601 73.0276 105.099 73.7844L101.821 71.6103C98.9128 73.3035 96.4273 75.5084 94.5175 78.0877L96.9699 81.0029C96.1136 82.3301 95.4516 83.7481 94.9976 85.2228L90.9491 85.7317C90.2393 88.7563 90.2393 91.8785 90.9491 94.9031L94.9976 95.4215C95.4539 96.8935 96.1206 98.3088 96.9799 99.6319L94.5175 102.556C96.4273 105.136 98.9128 107.341 101.821 109.034L105.099 106.85C106.601 107.604 108.202 108.192 109.867 108.599L110.441 112.199C113.854 112.828 117.378 112.828 120.792 112.199L121.366 108.599C123.031 108.192 124.632 107.604 126.134 106.85L129.411 109.034C132.32 107.341 134.805 105.136 136.715 102.556L134.253 99.6414C135.111 98.3136 135.776 96.8962 136.235 95.4215L140.274 94.912ZM115.596 101.15C113.189 101.152 110.836 100.52 108.833 99.3354C106.831 98.151 105.27 96.4666 104.347 94.4946C103.425 92.5233 103.183 90.3533 103.651 88.2597C104.119 86.1661 105.277 84.2427 106.978 82.7324C108.679 81.2222 110.847 80.1935 113.208 79.7769C115.568 79.3595 118.015 79.5726 120.239 80.3889C122.463 81.2058 124.363 82.5883 125.7 84.3636C127.038 86.1381 127.752 88.2249 127.752 90.3594C127.753 91.7754 127.44 93.1784 126.829 94.4878C126.219 95.7965 125.324 96.9864 124.195 97.9884C123.066 98.9905 121.726 99.7856 120.25 100.328C118.775 100.87 117.192 101.15 115.596 101.15Z" fill="white"/>
<path d="M230.554 49.7423C231.08 45.2867 232.867 41.0221 235.749 37.3437C238.632 33.6654 242.515 30.6931 247.041 28.7032C251.566 26.7132 256.585 25.7703 261.63 25.9619C266.677 26.1535 271.586 27.4734 275.903 29.7991C279.817 27.3634 284.368 25.8562 289.124 25.4207C293.879 24.9852 298.681 25.6358 303.074 27.3109C307.466 28.9859 311.302 31.6295 314.217 34.9904C317.132 38.3512 319.029 42.3175 319.728 46.5121C326.847 47.9793 333.109 51.717 337.321 57.0148C341.533 62.3125 343.401 68.7988 342.568 75.2386C341.735 81.6785 338.26 87.6217 332.805 91.9359C327.35 96.2501 320.296 98.6333 312.988 98.6326H241.364C234.728 98.6333 228.298 96.5889 223.174 92.8498C218.05 89.1101 214.55 83.908 213.272 78.1327C211.995 72.3575 213.021 66.3685 216.173 61.1896C219.326 56.0107 224.409 51.9642 230.554 49.7423Z" fill="#66C5FF"/>
<g opacity="0.6">
<path d="M264.978 72.2298C264.978 68.667 267.127 66.6772 270.007 66.6772C272.887 66.6772 275.037 68.7039 275.037 72.2298C275.037 75.7557 272.887 77.7823 270.007 77.7823C267.127 77.7823 264.978 75.7926 264.978 72.2298ZM273.273 72.2298C273.273 69.4538 271.927 68.0283 270.007 68.0283C268.087 68.0283 266.731 69.4354 266.731 72.2298C266.731 75.0248 268.077 76.4312 270.007 76.4312C271.938 76.4312 273.263 75.0248 273.263 72.2298H273.273Z" fill="white"/>
<path d="M276.727 72.2298C276.727 68.667 278.876 66.6772 281.767 66.6772C284.657 66.6772 286.786 68.7039 286.786 72.2298C286.786 75.7557 284.637 77.7823 281.767 77.7823C278.897 77.7823 276.727 75.7926 276.727 72.2298ZM285.023 72.2298C285.023 69.4538 283.687 68.0283 281.767 68.0283C279.847 68.0283 278.49 69.4354 278.49 72.2298C278.49 75.0248 279.826 76.4312 281.767 76.4312C283.708 76.4312 285.023 75.0248 285.023 72.2298Z" fill="white"/>
<path d="M292.254 66.7606V77.699H290.511V68.1212H287.726V66.7606H292.254Z" fill="white"/>
<path d="M294.956 72.2298C294.956 68.667 297.106 66.6772 299.996 66.6772C302.887 66.6772 305.016 68.7039 305.016 72.2298C305.016 75.7557 302.866 77.7823 299.996 77.7823C297.127 77.7823 294.956 75.7926 294.956 72.2298ZM303.252 72.2298C303.252 69.4538 301.917 68.0283 299.996 68.0283C298.076 68.0283 296.72 69.4354 296.72 72.2298C296.72 75.0248 298.055 76.4312 299.996 76.4312C301.937 76.4312 303.252 75.0248 303.252 72.2298Z" fill="white"/>
<path d="M310.483 66.7606V77.699H308.741V68.1212H305.965V66.7606H310.483Z" fill="white"/>
<path d="M313.175 72.2298C313.175 68.667 315.325 66.6772 318.216 66.6772C321.106 66.6772 323.234 68.7039 323.234 72.2298C323.234 75.7557 321.085 77.7823 318.216 77.7823C315.345 77.7823 313.175 75.7926 313.175 72.2298ZM321.471 72.2298C321.471 69.4538 320.135 68.0283 318.216 68.0283C316.296 68.0283 314.939 69.4354 314.939 72.2298C314.939 75.0248 316.274 76.4312 318.216 76.4312C320.156 76.4312 321.471 75.0248 321.471 72.2298Z" fill="white"/>
<path d="M328.702 66.7606V77.699H326.959V68.1212H324.174V66.7606H328.702Z" fill="white"/>
</g>
<path d="M137.289 191.841C137.289 185.837 135.13 179.99 131.128 175.148C127.126 170.305 121.488 166.719 115.032 164.911C114.389 160.418 112.463 156.143 109.437 152.494C106.409 148.845 102.383 145.941 97.736 144.059C93.0902 142.177 87.9788 141.377 82.8868 141.737C77.7947 142.097 72.8909 143.605 68.6396 146.116C64.3875 143.605 59.483 142.098 54.3906 141.738C49.2982 141.379 44.1866 142.177 39.5397 144.06C34.8929 145.942 30.8648 148.845 27.8368 152.494C24.8088 156.143 22.8813 160.417 22.2367 164.911C14.9904 166.944 8.80295 171.208 4.79274 176.934C0.782523 182.66 -0.785841 189.469 0.371128 196.13C1.5281 202.792 5.33406 208.867 11.1011 213.257C16.8681 217.647 24.2157 220.063 31.8158 220.067H106.152C114.472 219.905 122.389 216.86 128.21 211.584C134.029 206.309 137.289 199.222 137.289 191.841Z" fill="#24A7FF"/>
<path d="M68.3683 146.005C64.1103 143.546 59.2177 142.086 54.1496 141.763C49.0813 141.44 44.0036 142.263 39.3926 144.157C34.7816 146.05 30.7884 148.951 27.7877 152.588C24.7869 156.225 22.8769 160.478 22.2367 164.949C14.9904 166.981 8.80295 171.245 4.79274 176.971C0.782523 182.697 -0.785841 189.506 0.371128 196.167C1.5281 202.829 5.33406 208.904 11.1011 213.294C16.8681 217.684 24.2157 220.1 31.8158 220.104H54.1355L68.3683 146.005Z" fill="#3BB0FF"/>
<path d="M146.148 206.315H64.9354V211.673H146.148V206.315Z" fill="#3D4959"/>
<path d="M146.148 180.338H64.9354V185.697H146.148V180.338Z" fill="#3D4959"/>
<path d="M149.779 210.35H60.9493C58.6384 210.35 56.765 212.011 56.765 214.061V230.728C56.765 232.778 58.6384 234.439 60.9493 234.439H149.779C152.09 234.439 153.964 232.778 153.964 230.728V214.061C153.964 212.011 152.09 210.35 149.779 210.35Z" fill="#D6E0EA"/>
<path d="M97.1055 210.35L92.6809 234.411H60.9493C59.8424 234.411 58.7807 234.021 57.9979 233.327C57.2152 232.633 56.7754 231.692 56.7754 230.709V214.052C56.7754 213.07 57.2152 212.128 57.9979 211.434C58.7807 210.74 59.8424 210.35 60.9493 210.35H97.1055Z" fill="#EDEDED"/>
<path d="M147.984 229.136V215.653H62.7441V229.136H147.984Z" fill="#3D4959"/>
<path d="M141.265 222.381C141.267 222.841 141.115 223.291 140.828 223.674C140.542 224.057 140.133 224.356 139.655 224.533C139.177 224.711 138.65 224.758 138.141 224.669C137.632 224.581 137.164 224.36 136.798 224.036C136.43 223.711 136.18 223.297 136.078 222.847C135.976 222.396 136.027 221.928 136.225 221.503C136.423 221.078 136.758 220.715 137.189 220.459C137.62 220.203 138.127 220.067 138.646 220.067C139.339 220.067 140.003 220.31 140.494 220.744C140.985 221.178 141.262 221.766 141.265 222.381Z" fill="#24A7FF"/>
<path d="M129.954 222.381C129.954 222.774 129.822 223.159 129.575 223.486C129.329 223.813 128.979 224.068 128.569 224.219C128.159 224.369 127.708 224.409 127.272 224.332C126.837 224.255 126.438 224.066 126.124 223.787C125.81 223.509 125.596 223.155 125.51 222.769C125.424 222.383 125.467 221.983 125.638 221.619C125.807 221.256 126.095 220.945 126.464 220.726C126.832 220.508 127.266 220.391 127.71 220.391C128.305 220.391 128.876 220.601 129.296 220.974C129.717 221.347 129.954 221.853 129.954 222.381Z" fill="#24A7FF"/>
<path d="M119.018 222.381C119.018 222.774 118.886 223.159 118.64 223.486C118.393 223.813 118.043 224.068 117.633 224.219C117.223 224.369 116.772 224.409 116.337 224.332C115.902 224.255 115.502 224.066 115.189 223.787C114.874 223.509 114.661 223.155 114.574 222.769C114.488 222.383 114.532 221.983 114.702 221.619C114.872 221.256 115.159 220.945 115.528 220.726C115.897 220.508 116.331 220.391 116.775 220.391C117.37 220.391 117.94 220.601 118.361 220.974C118.782 221.347 119.018 221.853 119.018 222.381Z" fill="white"/>
<path d="M108.083 222.381C108.083 222.774 107.951 223.159 107.704 223.486C107.458 223.813 107.108 224.068 106.698 224.219C106.288 224.369 105.837 224.409 105.401 224.332C104.966 224.255 104.567 224.066 104.253 223.787C103.939 223.509 103.725 223.155 103.639 222.769C103.552 222.383 103.596 221.983 103.767 221.619C103.936 221.256 104.224 220.945 104.593 220.726C104.961 220.508 105.395 220.391 105.839 220.391C106.434 220.391 107.004 220.601 107.425 220.974C107.846 221.347 108.083 221.853 108.083 222.381Z" fill="#24A7FF"/>
<path d="M97.1471 222.381C97.1471 222.774 97.0154 223.159 96.7687 223.486C96.5221 223.813 96.1722 224.068 95.7622 224.219C95.3522 224.369 94.9013 224.409 94.4659 224.332C94.0304 224.255 93.6312 224.066 93.3175 223.787C93.0031 223.509 92.7896 223.155 92.7033 222.769C92.6169 222.383 92.6609 221.983 92.8312 221.619C93.0008 221.256 93.2882 220.945 93.6574 220.726C94.0258 220.508 94.4597 220.391 94.9036 220.391C95.4986 220.391 96.0689 220.601 96.4897 220.974C96.9105 221.347 97.1471 221.853 97.1471 222.381Z" fill="white"/>
<path d="M149.779 183.966H60.9493C58.6384 183.966 56.765 185.628 56.765 187.677V204.344C56.765 206.393 58.6384 208.055 60.9493 208.055H149.779C152.09 208.055 153.964 206.393 153.964 204.344V187.677C153.964 185.628 152.09 183.966 149.779 183.966Z" fill="#D6E0EA"/>
<path d="M101.947 183.966L97.5333 208.027H60.9493C59.8424 208.027 58.7807 207.637 57.9979 206.943C57.2152 206.249 56.7754 205.307 56.7754 204.326V187.668C56.7754 186.686 57.2152 185.745 57.9979 185.051C58.7807 184.356 59.8424 183.966 60.9493 183.966H101.947Z" fill="#EDEDED"/>
<path d="M147.984 202.753V189.269H62.744V202.753H147.984Z" fill="#3D4959"/>
<path d="M149.779 157.989H60.9493C58.6384 157.989 56.765 159.65 56.765 161.7V178.368C56.765 180.417 58.6384 182.079 60.9493 182.079H149.779C152.09 182.079 153.964 180.417 153.964 178.368V161.7C153.964 159.65 152.09 157.989 149.779 157.989Z" fill="#D6E0EA"/>
<path d="M106.726 157.989L102.302 182.051H60.9493C59.8424 182.051 58.7807 181.661 57.9979 180.967C57.2152 180.272 56.7754 179.331 56.7754 178.349V161.691C56.7754 160.709 57.2152 159.768 57.9979 159.073C58.7807 158.379 59.8424 157.989 60.9493 157.989H106.726Z" fill="#EDEDED"/>
<path d="M147.995 176.785V163.301H62.7544V176.785H147.995Z" fill="#3D4959"/>
<path d="M138.646 198.328C140.092 198.328 141.265 197.289 141.265 196.006C141.265 194.723 140.092 193.683 138.646 193.683C137.199 193.683 136.026 194.723 136.026 196.006C136.026 197.289 137.199 198.328 138.646 198.328Z" fill="#24A7FF"/>
<path d="M129.954 196.006C129.954 196.4 129.822 196.784 129.575 197.111C129.329 197.438 128.979 197.694 128.569 197.844C128.159 197.995 127.708 198.034 127.272 197.958C126.837 197.88 126.438 197.691 126.124 197.413C125.81 197.135 125.596 196.78 125.51 196.394C125.424 196.008 125.467 195.608 125.638 195.244C125.807 194.881 126.095 194.57 126.464 194.352C126.832 194.133 127.266 194.016 127.71 194.016C128.305 194.016 128.876 194.226 129.296 194.599C129.717 194.972 129.954 195.478 129.954 196.006Z" fill="#24A7FF"/>
<path d="M119.018 196.006C119.018 196.4 118.886 196.784 118.64 197.111C118.393 197.438 118.043 197.694 117.633 197.844C117.223 197.995 116.772 198.034 116.337 197.958C115.902 197.88 115.502 197.691 115.189 197.413C114.874 197.135 114.661 196.78 114.574 196.394C114.488 196.008 114.532 195.608 114.702 195.244C114.872 194.881 115.159 194.57 115.528 194.352C115.897 194.133 116.331 194.016 116.775 194.016C117.37 194.016 117.94 194.226 118.361 194.599C118.782 194.972 119.018 195.478 119.018 196.006Z" fill="white"/>
<path d="M108.083 196.006C108.083 196.4 107.951 196.784 107.704 197.111C107.458 197.438 107.108 197.694 106.698 197.844C106.288 197.995 105.837 198.034 105.401 197.958C104.966 197.88 104.567 197.691 104.253 197.413C103.939 197.135 103.725 196.78 103.639 196.394C103.552 196.008 103.596 195.608 103.767 195.244C103.936 194.881 104.224 194.57 104.593 194.352C104.961 194.133 105.395 194.016 105.839 194.016C106.434 194.016 107.004 194.226 107.425 194.599C107.846 194.972 108.083 195.478 108.083 196.006Z" fill="#24A7FF"/>
<path d="M97.1471 196.006C97.1471 196.4 97.0154 196.784 96.7687 197.111C96.5221 197.438 96.1722 197.694 95.7622 197.844C95.3522 197.995 94.9013 198.034 94.4659 197.958C94.0304 197.88 93.6312 197.691 93.3175 197.413C93.0031 197.135 92.7896 196.78 92.7033 196.394C92.6169 196.008 92.6609 195.608 92.8312 195.244C93.0008 194.881 93.2882 194.57 93.6574 194.352C94.0258 194.133 94.4597 194.016 94.9036 194.016C95.4986 194.016 96.0689 194.226 96.4897 194.599C96.9105 194.972 97.1471 195.478 97.1471 196.006Z" fill="white"/>
<path d="M141.265 170.038C141.265 170.498 141.111 170.947 140.823 171.329C140.536 171.711 140.126 172.008 139.648 172.185C139.169 172.36 138.643 172.407 138.135 172.316C137.627 172.227 137.16 172.006 136.794 171.681C136.428 171.356 136.178 170.942 136.077 170.491C135.976 170.041 136.028 169.574 136.226 169.15C136.424 168.725 136.76 168.362 137.191 168.107C137.622 167.852 138.128 167.715 138.646 167.715C139.34 167.715 140.006 167.961 140.498 168.396C140.989 168.831 141.265 169.422 141.265 170.038Z" fill="#24A7FF"/>
<path d="M129.954 170.038C129.954 170.432 129.822 170.816 129.575 171.144C129.329 171.471 128.979 171.726 128.569 171.876C128.159 172.027 127.708 172.066 127.272 171.99C126.837 171.913 126.438 171.723 126.124 171.445C125.81 171.167 125.596 170.812 125.51 170.426C125.424 170.04 125.467 169.641 125.638 169.277C125.807 168.913 126.095 168.603 126.464 168.384C126.832 168.165 127.266 168.049 127.71 168.049C128.305 168.049 128.876 168.258 129.296 168.631C129.717 169.005 129.954 169.51 129.954 170.038Z" fill="white"/>
<path d="M119.018 170.038C119.018 170.432 118.886 170.816 118.64 171.144C118.393 171.471 118.043 171.726 117.633 171.876C117.223 172.027 116.772 172.066 116.337 171.99C115.902 171.913 115.502 171.723 115.189 171.445C114.874 171.167 114.661 170.812 114.574 170.426C114.488 170.04 114.532 169.641 114.702 169.277C114.872 168.913 115.159 168.603 115.528 168.384C115.897 168.165 116.331 168.049 116.775 168.049C117.37 168.049 117.94 168.258 118.361 168.631C118.782 169.005 119.018 169.51 119.018 170.038Z" fill="white"/>
<path d="M108.083 170.038C108.083 170.432 107.951 170.816 107.704 171.144C107.458 171.471 107.108 171.726 106.698 171.876C106.288 172.027 105.837 172.066 105.401 171.99C104.966 171.913 104.567 171.723 104.253 171.445C103.939 171.167 103.725 170.812 103.639 170.426C103.552 170.04 103.596 169.641 103.767 169.277C103.936 168.913 104.224 168.603 104.593 168.384C104.961 168.165 105.395 168.049 105.839 168.049C106.434 168.049 107.004 168.258 107.425 168.631C107.846 169.005 108.083 169.51 108.083 170.038Z" fill="#24A7FF"/>
<path d="M97.1471 170.038C97.1471 170.432 97.0154 170.816 96.7687 171.144C96.5221 171.471 96.1722 171.726 95.7622 171.876C95.3522 172.027 94.9013 172.066 94.4659 171.99C94.0304 171.913 93.6312 171.723 93.3175 171.445C93.0031 171.167 92.7896 170.812 92.7033 170.426C92.6169 170.04 92.6609 169.641 92.8312 169.277C93.0008 168.913 93.2882 168.603 93.6574 168.384C94.0258 168.165 94.4597 168.049 94.9036 168.049C95.4986 168.049 96.0689 168.258 96.4897 168.631C96.9105 169.005 97.1471 169.51 97.1471 170.038Z" fill="#24A7FF"/>
<path d="M266.856 197.811C266.86 193.066 265.159 188.445 261.999 184.617C258.839 180.789 254.385 177.955 249.284 176.525C248.772 172.979 247.247 169.607 244.854 166.73C242.462 163.852 239.281 161.563 235.612 160.08C231.944 158.598 227.909 157.97 223.89 158.256C219.872 158.543 216.002 159.735 212.648 161.719C209.295 159.735 205.426 158.543 201.407 158.256C197.39 157.969 193.355 158.597 189.687 160.079C186.02 161.562 182.839 163.851 180.448 166.729C178.057 169.607 176.533 172.98 176.023 176.525C170.293 178.124 165.398 181.489 162.224 186.012C159.049 190.535 157.807 195.916 158.72 201.181C159.633 206.447 162.642 211.248 167.202 214.716C171.761 218.183 177.57 220.088 183.577 220.086H242.283C248.849 219.959 255.099 217.557 259.693 213.394C264.286 209.23 266.857 203.636 266.856 197.811Z" fill="#24A7FF"/>
<path d="M212.439 161.589C209.078 159.646 205.215 158.493 201.214 158.237C197.212 157.981 193.203 158.631 189.563 160.126C185.922 161.621 182.77 163.912 180.402 166.784C178.033 169.656 176.526 173.014 176.023 176.544C170.293 178.143 165.398 181.508 162.224 186.031C159.049 190.553 157.807 195.934 158.72 201.2C159.633 206.465 162.642 211.266 167.202 214.734C171.761 218.202 177.57 220.107 183.577 220.104H201.264L212.439 161.589Z" fill="#3BB0FF"/>
<path d="M253.437 244.748H172.225V250.107H253.437V244.748Z" fill="#3D4959"/>
<path d="M253.437 218.78H172.225V224.139H253.437V218.78Z" fill="#3D4959"/>
<path d="M257.069 248.783H168.239C165.927 248.783 164.054 250.445 164.054 252.494V269.161C164.054 271.21 165.927 272.872 168.239 272.872H257.069C259.379 272.872 261.253 271.21 261.253 269.161V252.494C261.253 250.445 259.379 248.783 257.069 248.783Z" fill="#D6E0EA"/>
<path d="M204.395 248.783L199.97 272.844H168.249C167.142 272.844 166.08 272.454 165.298 271.76C164.515 271.066 164.075 270.124 164.075 269.143V252.485C164.075 251.503 164.515 250.562 165.298 249.868C166.08 249.173 167.142 248.783 168.249 248.783H204.395Z" fill="#EDEDED"/>
<path d="M255.264 267.579V254.095H170.023V267.579H255.264Z" fill="#3D4959"/>
<path d="M248.543 260.832C248.535 261.29 248.374 261.736 248.081 262.113C247.789 262.49 247.377 262.781 246.898 262.952C246.418 263.122 245.893 263.163 245.388 263.069C244.883 262.975 244.42 262.751 244.058 262.425C243.696 262.098 243.45 261.684 243.352 261.235C243.255 260.786 243.309 260.32 243.509 259.898C243.708 259.475 244.044 259.115 244.474 258.861C244.903 258.608 245.408 258.473 245.924 258.472C246.272 258.472 246.615 258.534 246.936 258.652C247.257 258.772 247.547 258.946 247.791 259.166C248.035 259.385 248.227 259.646 248.356 259.932C248.485 260.218 248.548 260.524 248.543 260.832Z" fill="#24A7FF"/>
<path d="M237.232 260.832C237.232 261.225 237.1 261.611 236.854 261.938C236.608 262.265 236.257 262.52 235.847 262.67C235.437 262.821 234.986 262.861 234.551 262.784C234.115 262.707 233.716 262.517 233.402 262.239C233.089 261.961 232.875 261.607 232.788 261.221C232.702 260.835 232.746 260.434 232.916 260.071C233.086 259.707 233.373 259.396 233.742 259.178C234.112 258.959 234.545 258.842 234.989 258.842C235.584 258.842 236.154 259.052 236.575 259.426C236.996 259.799 237.232 260.305 237.232 260.832Z" fill="#24A7FF"/>
<path d="M226.307 260.832C226.307 261.225 226.176 261.611 225.929 261.938C225.682 262.265 225.332 262.52 224.922 262.67C224.512 262.821 224.061 262.861 223.626 262.784C223.191 262.707 222.791 262.517 222.477 262.239C222.163 261.961 221.95 261.607 221.863 261.221C221.776 260.835 221.821 260.434 221.991 260.071C222.161 259.707 222.448 259.396 222.817 259.178C223.186 258.959 223.62 258.842 224.064 258.842C224.659 258.842 225.229 259.052 225.65 259.426C226.071 259.799 226.307 260.305 226.307 260.832Z" fill="white"/>
<path d="M215.361 260.832C215.361 261.225 215.229 261.611 214.983 261.938C214.737 262.265 214.386 262.52 213.976 262.67C213.566 262.821 213.115 262.861 212.68 262.784C212.245 262.707 211.845 262.517 211.531 262.239C211.218 261.961 211.003 261.607 210.917 261.221C210.831 260.835 210.875 260.434 211.045 260.071C211.215 259.707 211.502 259.396 211.871 259.178C212.24 258.959 212.674 258.842 213.118 258.842C213.713 258.842 214.284 259.052 214.704 259.426C215.124 259.799 215.361 260.305 215.361 260.832Z" fill="#24A7FF"/>
<path d="M204.394 260.832C204.394 261.225 204.263 261.611 204.016 261.938C203.77 262.265 203.419 262.52 203.01 262.67C202.6 262.821 202.148 262.861 201.713 262.784C201.278 262.707 200.878 262.517 200.564 262.239C200.251 261.961 200.037 261.607 199.951 261.221C199.864 260.835 199.908 260.434 200.078 260.071C200.248 259.707 200.536 259.396 200.904 259.178C201.273 258.959 201.707 258.842 202.151 258.842C202.746 258.842 203.316 259.052 203.737 259.426C204.158 259.799 204.394 260.305 204.394 260.832Z" fill="white"/>
<path d="M257.069 222.399H168.239C165.927 222.399 164.054 224.06 164.054 226.11V242.777C164.054 244.827 165.927 246.488 168.239 246.488H257.069C259.379 246.488 261.253 244.827 261.253 242.777V226.11C261.253 224.06 259.379 222.399 257.069 222.399Z" fill="#D6E0EA"/>
<path d="M209.225 222.381L204.812 246.442H168.239C167.131 246.442 166.07 246.052 165.287 245.357C164.505 244.663 164.064 243.722 164.064 242.74V226.082C164.064 225.101 164.505 224.159 165.287 223.465C166.07 222.771 167.131 222.381 168.239 222.381H209.225Z" fill="#EDEDED"/>
<path d="M255.274 241.185V227.702H170.033V241.185H255.274Z" fill="#3D4959"/>
<path d="M257.069 196.432H168.239C165.927 196.432 164.054 198.094 164.054 200.143V216.81C164.054 218.859 165.927 220.521 168.239 220.521H257.069C259.379 220.521 261.253 218.859 261.253 216.81V200.143C261.253 198.094 259.379 196.432 257.069 196.432Z" fill="#D6E0EA"/>
<path d="M214.005 196.469L209.612 220.53H168.239C167.131 220.53 166.07 220.14 165.287 219.446C164.505 218.752 164.064 217.81 164.064 216.828V200.171C164.064 199.188 164.505 198.247 165.287 197.553C166.07 196.859 167.131 196.469 168.239 196.469H214.005Z" fill="#EDEDED"/>
<path d="M255.263 215.218V201.734H170.023V215.218H255.263Z" fill="#3D4959"/>
<path d="M248.543 234.412C248.543 234.871 248.39 235.32 248.102 235.702C247.814 236.084 247.405 236.381 246.927 236.558C246.448 236.733 245.921 236.779 245.413 236.69C244.905 236.6 244.438 236.379 244.072 236.054C243.706 235.729 243.456 235.315 243.355 234.864C243.254 234.414 243.306 233.947 243.504 233.522C243.703 233.098 244.038 232.735 244.469 232.48C244.9 232.225 245.406 232.088 245.924 232.088C246.269 232.087 246.61 232.147 246.928 232.263C247.247 232.379 247.536 232.55 247.779 232.766C248.023 232.982 248.215 233.239 248.346 233.521C248.478 233.804 248.545 234.106 248.543 234.412Z" fill="#24A7FF"/>
<path d="M237.232 234.411C237.232 234.805 237.1 235.189 236.854 235.517C236.608 235.844 236.257 236.099 235.847 236.25C235.437 236.4 234.986 236.439 234.551 236.363C234.115 236.286 233.716 236.097 233.402 235.818C233.089 235.54 232.875 235.185 232.788 234.799C232.702 234.414 232.746 234.013 232.916 233.65C233.086 233.287 233.373 232.976 233.742 232.757C234.112 232.539 234.545 232.422 234.989 232.422C235.584 232.422 236.154 232.631 236.575 233.004C236.996 233.377 237.232 233.883 237.232 234.411Z" fill="#24A7FF"/>
<path d="M226.307 234.411C226.307 234.805 226.176 235.189 225.929 235.517C225.682 235.844 225.332 236.099 224.922 236.25C224.512 236.4 224.061 236.439 223.626 236.363C223.191 236.286 222.791 236.097 222.477 235.818C222.163 235.54 221.95 235.185 221.863 234.799C221.776 234.414 221.821 234.013 221.991 233.65C222.161 233.287 222.448 232.976 222.817 232.757C223.186 232.539 223.62 232.422 224.064 232.422C224.659 232.422 225.229 232.631 225.65 233.004C226.071 233.377 226.307 233.883 226.307 234.411Z" fill="white"/>
<path d="M215.361 234.411C215.361 234.805 215.229 235.189 214.983 235.517C214.737 235.844 214.386 236.099 213.976 236.25C213.566 236.4 213.115 236.439 212.68 236.363C212.245 236.286 211.845 236.097 211.531 235.818C211.218 235.54 211.003 235.185 210.917 234.799C210.831 234.414 210.875 234.013 211.045 233.65C211.215 233.287 211.502 232.976 211.871 232.757C212.24 232.539 212.674 232.422 213.118 232.422C213.713 232.422 214.284 232.631 214.704 233.004C215.124 233.377 215.361 233.883 215.361 234.411Z" fill="#24A7FF"/>
<path d="M204.394 234.411C204.394 234.805 204.263 235.189 204.016 235.517C203.77 235.844 203.419 236.099 203.01 236.25C202.6 236.4 202.148 236.439 201.713 236.363C201.278 236.286 200.878 236.097 200.564 235.818C200.251 235.54 200.037 235.185 199.951 234.799C199.864 234.414 199.908 234.013 200.078 233.65C200.248 233.287 200.536 232.976 200.904 232.757C201.273 232.539 201.707 232.422 202.151 232.422C202.746 232.422 203.316 232.631 203.737 233.004C204.158 233.377 204.394 233.883 204.394 234.411Z" fill="white"/>
<path d="M248.543 208.499C248.543 208.959 248.39 209.408 248.102 209.789C247.814 210.172 247.405 210.47 246.927 210.645C246.448 210.821 245.921 210.867 245.413 210.777C244.905 210.688 244.438 210.466 244.072 210.142C243.706 209.817 243.456 209.403 243.355 208.953C243.254 208.502 243.306 208.035 243.504 207.611C243.703 207.186 244.038 206.823 244.469 206.568C244.9 206.313 245.406 206.176 245.924 206.176C246.619 206.176 247.285 206.421 247.776 206.857C248.267 207.292 248.543 207.883 248.543 208.499Z" fill="#24A7FF"/>
<path d="M237.232 208.499C237.232 208.893 237.1 209.277 236.854 209.605C236.608 209.932 236.257 210.187 235.847 210.337C235.437 210.488 234.986 210.527 234.551 210.451C234.115 210.374 233.716 210.184 233.402 209.906C233.089 209.628 232.875 209.273 232.788 208.887C232.702 208.501 232.746 208.102 232.916 207.738C233.086 207.374 233.373 207.063 233.742 206.845C234.112 206.626 234.545 206.509 234.989 206.509C235.584 206.509 236.154 206.719 236.575 207.092C236.996 207.466 237.232 207.972 237.232 208.499Z" fill="white"/>
<path d="M226.307 208.499C226.307 208.893 226.176 209.277 225.929 209.605C225.682 209.932 225.332 210.187 224.922 210.337C224.512 210.488 224.061 210.527 223.626 210.451C223.191 210.374 222.791 210.184 222.477 209.906C222.163 209.628 221.95 209.273 221.863 208.887C221.776 208.501 221.821 208.102 221.991 207.738C222.161 207.374 222.448 207.063 222.817 206.845C223.186 206.626 223.62 206.509 224.064 206.509C224.659 206.509 225.229 206.719 225.65 207.092C226.071 207.466 226.307 207.972 226.307 208.499Z" fill="white"/>
<path d="M215.361 208.499C215.361 208.893 215.229 209.277 214.983 209.605C214.737 209.932 214.386 210.187 213.976 210.337C213.566 210.488 213.115 210.527 212.68 210.451C212.245 210.374 211.845 210.184 211.531 209.906C211.218 209.628 211.003 209.273 210.917 208.887C210.831 208.501 210.875 208.102 211.045 207.738C211.215 207.374 211.502 207.063 211.871 206.845C212.24 206.626 212.674 206.509 213.118 206.509C213.713 206.509 214.284 206.719 214.704 207.092C215.124 207.466 215.361 207.972 215.361 208.499Z" fill="#24A7FF"/>
<path d="M204.394 208.499C204.394 208.893 204.263 209.277 204.016 209.605C203.77 209.932 203.419 210.187 203.01 210.337C202.6 210.488 202.148 210.527 201.713 210.451C201.278 210.374 200.878 210.184 200.564 209.906C200.251 209.628 200.037 209.273 199.951 208.887C199.864 208.501 199.908 208.102 200.078 207.738C200.248 207.374 200.536 207.063 200.904 206.845C201.273 206.626 201.707 206.509 202.151 206.509C202.746 206.509 203.316 206.719 203.737 207.092C204.158 207.466 204.394 207.972 204.394 208.499Z" fill="#24A7FF"/>
<path d="M419.243 191.841C419.243 185.837 417.085 179.99 413.082 175.148C409.08 170.305 403.442 166.719 396.986 164.911C396.342 160.417 394.414 156.143 391.386 152.494C388.358 148.845 384.331 145.942 379.683 144.06C375.037 142.177 369.925 141.379 364.832 141.738C359.74 142.098 354.836 143.605 350.584 146.116C346.332 143.605 341.428 142.097 336.336 141.737C331.244 141.377 326.133 142.177 321.487 144.059C316.841 145.941 312.814 148.845 309.787 152.494C306.76 156.143 304.834 160.418 304.191 164.911C296.945 166.944 290.758 171.208 286.747 176.934C282.737 182.66 281.169 189.469 282.325 196.13C283.482 202.792 287.289 208.867 293.056 213.257C298.822 217.647 306.17 220.063 313.77 220.067H388.106C396.427 219.905 404.344 216.86 410.164 211.584C415.983 206.309 419.243 199.222 419.243 191.841Z" fill="#24A7FF"/>
<path d="M350.322 146.005C346.065 143.546 341.172 142.086 336.104 141.763C331.035 141.44 325.958 142.263 321.347 144.157C316.736 146.05 312.743 148.951 309.742 152.588C306.741 156.225 304.831 160.478 304.191 164.949C296.945 166.981 290.758 171.245 286.747 176.971C282.737 182.697 281.169 189.506 282.325 196.167C283.482 202.829 287.289 208.904 293.056 213.294C298.822 217.684 306.17 220.1 313.77 220.104H336.131L350.322 146.005Z" fill="#3BB0FF"/>
<path d="M360.715 206.315H279.503V211.673H360.715V206.315Z" fill="#3D4959"/>
<path d="M360.715 180.338H279.503V185.697H360.715V180.338Z" fill="#3D4959"/>
<path d="M364.347 210.35H275.517C273.206 210.35 271.333 212.011 271.333 214.061V230.728C271.333 232.778 273.206 234.439 275.517 234.439H364.347C366.657 234.439 368.531 232.778 368.531 230.728V214.061C368.531 212.011 366.657 210.35 364.347 210.35Z" fill="#D6E0EA"/>
<path d="M311.673 210.35L307.238 234.411H275.517C274.409 234.411 273.348 234.021 272.565 233.327C271.783 232.633 271.343 231.692 271.343 230.709V214.052C271.343 213.07 271.783 212.128 272.565 211.434C273.348 210.74 274.409 210.35 275.517 210.35H311.673Z" fill="#EDEDED"/>
<path d="M362.552 229.136V215.653H277.312V229.136H362.552Z" fill="#3D4959"/>
<path d="M355.822 222.381C355.824 222.841 355.672 223.291 355.385 223.674C355.099 224.057 354.691 224.356 354.212 224.533C353.734 224.711 353.207 224.758 352.698 224.669C352.19 224.581 351.722 224.36 351.354 224.036C350.987 223.711 350.736 223.297 350.635 222.847C350.533 222.396 350.584 221.928 350.782 221.503C350.98 221.078 351.316 220.715 351.747 220.459C352.177 220.203 352.685 220.067 353.203 220.067C353.895 220.067 354.56 220.31 355.051 220.744C355.542 221.178 355.819 221.766 355.822 222.381Z" fill="#24A7FF"/>
<path d="M342.267 224.389C343.506 224.389 344.51 223.498 344.51 222.399C344.51 221.3 343.506 220.41 342.267 220.41C341.028 220.41 340.023 221.3 340.023 222.399C340.023 223.498 341.028 224.389 342.267 224.389Z" fill="#24A7FF"/>
<path d="M333.575 222.381C333.575 222.774 333.444 223.159 333.197 223.486C332.951 223.813 332.6 224.068 332.19 224.219C331.78 224.369 331.329 224.409 330.894 224.332C330.459 224.255 330.059 224.066 329.745 223.787C329.432 223.509 329.218 223.155 329.131 222.769C329.045 222.383 329.089 221.983 329.259 221.619C329.429 221.256 329.716 220.945 330.085 220.726C330.454 220.508 330.888 220.391 331.331 220.391C331.926 220.391 332.498 220.601 332.918 220.974C333.339 221.347 333.575 221.853 333.575 222.381Z" fill="white"/>
<path d="M322.639 222.381C322.639 222.774 322.508 223.159 322.262 223.486C322.015 223.813 321.664 224.068 321.254 224.219C320.844 224.369 320.394 224.409 319.959 224.332C319.523 224.255 319.123 224.066 318.81 223.787C318.496 223.509 318.283 223.155 318.196 222.769C318.109 222.383 318.154 221.983 318.323 221.619C318.493 221.256 318.78 220.945 319.15 220.726C319.519 220.508 319.953 220.391 320.396 220.391C320.991 220.391 321.562 220.601 321.983 220.974C322.404 221.347 322.639 221.853 322.639 222.381Z" fill="#24A7FF"/>
<path d="M311.704 222.381C311.704 222.774 311.573 223.159 311.326 223.486C311.08 223.813 310.729 224.068 310.319 224.219C309.909 224.369 309.458 224.409 309.023 224.332C308.588 224.255 308.188 224.066 307.874 223.787C307.561 223.509 307.347 223.155 307.26 222.769C307.174 222.383 307.218 221.983 307.388 221.619C307.557 221.256 307.846 220.945 308.214 220.726C308.583 220.508 309.017 220.391 309.46 220.391C310.055 220.391 310.626 220.601 311.047 220.974C311.468 221.347 311.704 221.853 311.704 222.381Z" fill="white"/>
<path d="M364.347 183.966H275.517C273.206 183.966 271.333 185.628 271.333 187.677V204.344C271.333 206.393 273.206 208.055 275.517 208.055H364.347C366.657 208.055 368.531 206.393 368.531 204.344V187.677C368.531 185.628 366.657 183.966 364.347 183.966Z" fill="#D6E0EA"/>
<path d="M316.515 183.966L312.09 208.027H275.569C274.462 208.027 273.401 207.637 272.618 206.943C271.835 206.249 271.395 205.307 271.395 204.326V187.668C271.395 186.686 271.835 185.745 272.618 185.051C273.401 184.356 274.462 183.966 275.569 183.966H316.515Z" fill="#EDEDED"/>
<path d="M362.552 202.753V189.269H277.312V202.753H362.552Z" fill="#3D4959"/>
<path d="M364.347 157.989H275.517C273.206 157.989 271.333 159.65 271.333 161.7V178.368C271.333 180.417 273.206 182.079 275.517 182.079H364.347C366.657 182.079 368.531 180.417 368.531 178.368V161.7C368.531 159.65 366.657 157.989 364.347 157.989Z" fill="#D6E0EA"/>
<path d="M321.262 157.989L316.838 182.051H275.517C274.409 182.051 273.348 181.661 272.565 180.967C271.783 180.272 271.343 179.331 271.343 178.349V161.691C271.343 160.709 271.783 159.768 272.565 159.073C273.348 158.379 274.409 157.989 275.517 157.989H321.262Z" fill="#EDEDED"/>
<path d="M362.552 176.775V163.292H277.312V176.775H362.552Z" fill="#3D4959"/>
<path d="M355.821 196.006C355.821 196.465 355.668 196.915 355.381 197.296C355.092 197.678 354.684 197.976 354.205 198.152C353.727 198.328 353.199 198.374 352.692 198.284C352.184 198.195 351.717 197.973 351.35 197.648C350.984 197.324 350.735 196.91 350.634 196.459C350.533 196.009 350.584 195.542 350.783 195.117C350.981 194.693 351.317 194.33 351.747 194.074C352.178 193.82 352.685 193.683 353.202 193.683C353.897 193.683 354.564 193.928 355.054 194.363C355.545 194.799 355.821 195.39 355.821 196.006Z" fill="#24A7FF"/>
<path d="M344.51 196.006C344.51 196.4 344.379 196.784 344.133 197.111C343.886 197.438 343.536 197.694 343.126 197.844C342.715 197.995 342.265 198.034 341.829 197.958C341.394 197.88 340.995 197.691 340.681 197.413C340.367 197.135 340.154 196.78 340.067 196.394C339.98 196.008 340.025 195.608 340.195 195.244C340.364 194.881 340.652 194.57 341.021 194.352C341.39 194.133 341.824 194.016 342.267 194.016C342.862 194.016 343.433 194.226 343.854 194.599C344.274 194.972 344.51 195.478 344.51 196.006Z" fill="#24A7FF"/>
<path d="M333.575 196.006C333.575 196.4 333.444 196.784 333.197 197.111C332.951 197.438 332.6 197.694 332.19 197.844C331.78 197.995 331.329 198.034 330.894 197.958C330.459 197.88 330.059 197.691 329.745 197.413C329.432 197.135 329.218 196.78 329.131 196.394C329.045 196.008 329.089 195.608 329.259 195.244C329.429 194.881 329.716 194.57 330.085 194.352C330.454 194.133 330.888 194.016 331.331 194.016C331.926 194.016 332.498 194.226 332.918 194.599C333.339 194.972 333.575 195.478 333.575 196.006Z" fill="white"/>
<path d="M322.639 196.006C322.639 196.4 322.508 196.784 322.262 197.111C322.015 197.438 321.664 197.694 321.254 197.844C320.844 197.995 320.394 198.034 319.959 197.958C319.523 197.88 319.123 197.691 318.81 197.413C318.496 197.135 318.283 196.78 318.196 196.394C318.109 196.008 318.154 195.608 318.323 195.244C318.493 194.881 318.78 194.57 319.15 194.352C319.519 194.133 319.953 194.016 320.396 194.016C320.991 194.016 321.562 194.226 321.983 194.599C322.404 194.972 322.639 195.478 322.639 196.006Z" fill="#24A7FF"/>
<path d="M311.704 196.006C311.704 196.4 311.573 196.784 311.326 197.111C311.08 197.438 310.729 197.694 310.319 197.844C309.909 197.995 309.458 198.034 309.023 197.958C308.588 197.88 308.188 197.691 307.874 197.413C307.561 197.135 307.347 196.78 307.26 196.394C307.174 196.008 307.218 195.608 307.388 195.244C307.557 194.881 307.846 194.57 308.214 194.352C308.583 194.133 309.017 194.016 309.46 194.016C310.055 194.016 310.626 194.226 311.047 194.599C311.468 194.972 311.704 195.478 311.704 196.006Z" fill="white"/>
<path d="M355.821 170.038C355.821 170.498 355.668 170.947 355.381 171.329C355.092 171.711 354.684 172.008 354.205 172.185C353.727 172.36 353.199 172.407 352.692 172.316C352.184 172.227 351.717 172.006 351.35 171.681C350.984 171.356 350.735 170.942 350.634 170.491C350.533 170.041 350.584 169.574 350.783 169.15C350.981 168.725 351.317 168.362 351.747 168.107C352.178 167.852 352.685 167.715 353.202 167.715C353.547 167.715 353.888 167.773 354.207 167.89C354.525 168.006 354.814 168.177 355.058 168.393C355.301 168.609 355.494 168.866 355.625 169.148C355.757 169.431 355.823 169.733 355.821 170.038Z" fill="#24A7FF"/>
<path d="M344.51 170.038C344.51 170.432 344.379 170.816 344.133 171.144C343.886 171.471 343.536 171.726 343.126 171.876C342.715 172.027 342.265 172.066 341.829 171.99C341.394 171.913 340.995 171.723 340.681 171.445C340.367 171.167 340.154 170.812 340.067 170.426C339.98 170.04 340.025 169.641 340.195 169.277C340.364 168.913 340.652 168.603 341.021 168.384C341.39 168.165 341.824 168.049 342.267 168.049C342.862 168.049 343.433 168.258 343.854 168.631C344.274 169.005 344.51 169.51 344.51 170.038Z" fill="white"/>
<path d="M333.575 170.038C333.575 170.432 333.444 170.816 333.197 171.144C332.951 171.471 332.6 171.726 332.19 171.876C331.78 172.027 331.329 172.066 330.894 171.99C330.459 171.913 330.059 171.723 329.745 171.445C329.432 171.167 329.218 170.812 329.131 170.426C329.045 170.04 329.089 169.641 329.259 169.277C329.429 168.913 329.716 168.603 330.085 168.384C330.454 168.165 330.888 168.049 331.331 168.049C331.926 168.049 332.498 168.258 332.918 168.631C333.339 169.005 333.575 169.51 333.575 170.038Z" fill="white"/>
<path d="M322.639 170.038C322.639 170.432 322.508 170.816 322.262 171.144C322.015 171.471 321.664 171.726 321.254 171.876C320.844 172.027 320.394 172.066 319.959 171.99C319.523 171.913 319.123 171.723 318.81 171.445C318.496 171.167 318.283 170.812 318.196 170.426C318.109 170.04 318.154 169.641 318.323 169.277C318.493 168.913 318.78 168.603 319.15 168.384C319.519 168.165 319.953 168.049 320.396 168.049C320.991 168.049 321.562 168.258 321.983 168.631C322.404 169.005 322.639 169.51 322.639 170.038Z" fill="#24A7FF"/>
<path d="M311.704 170.038C311.704 170.432 311.573 170.816 311.326 171.144C311.08 171.471 310.729 171.726 310.319 171.876C309.909 172.027 309.458 172.066 309.023 171.99C308.588 171.913 308.188 171.723 307.874 171.445C307.561 171.167 307.347 170.812 307.26 170.426C307.174 170.04 307.218 169.641 307.388 169.277C307.557 168.913 307.846 168.603 308.214 168.384C308.583 168.165 309.017 168.049 309.46 168.049C310.055 168.049 310.626 168.258 311.047 168.631C311.468 169.005 311.704 169.51 311.704 170.038Z" fill="#24A7FF"/>
<path d="M141.745 0.000130471H283.562C286 0.000130471 288.338 0.859138 290.062 2.38816C291.787 3.9171 292.755 5.99086 292.755 8.1532V83.5015C292.755 86.0787 291.601 88.55 289.546 90.3724C287.491 92.1948 284.705 93.2187 281.798 93.2187H143.508C142.065 93.2248 140.635 92.9776 139.299 92.4919C137.964 92.0069 136.75 91.2918 135.727 90.3888C134.704 89.4858 133.893 88.4127 133.339 87.231C132.785 86.0487 132.499 84.7816 132.499 83.5015V8.1532C132.499 7.07862 132.739 6.01463 133.205 5.02242C133.669 4.03022 134.351 3.12941 135.211 2.3717C136.07 1.61405 137.09 1.01447 138.211 0.607434C139.332 0.20047 140.533 -0.00594871 141.745 0.000130471Z" fill="#3BB0FF"/>
<path opacity="0.2" d="M211.25 0.00018847H141.786C140.579 -0.00104103 139.383 0.209066 138.267 0.618352C137.151 1.02764 136.137 1.62811 135.283 2.38548C134.429 3.14278 133.752 4.04203 133.29 5.03177C132.829 6.02145 132.592 7.08223 132.593 8.15319V83.5015C132.597 86.0773 133.752 88.5466 135.807 90.3669C137.86 92.1866 140.646 93.2091 143.55 93.2091H190.099L211.25 0.00018847Z" fill="white"/>
<path d="M132.499 15.3437H292.755V100.409C292.755 102.572 291.787 104.645 290.062 106.174C288.338 107.703 286 108.562 283.562 108.562H141.745C140.533 108.568 139.332 108.362 138.211 107.955C137.09 107.548 136.07 106.948 135.211 106.191C134.351 105.433 133.669 104.532 133.205 103.54C132.739 102.548 132.499 101.484 132.499 100.409V15.3437Z" fill="#D6E0EA"/>
<path d="M288.372 15.3437V100.409C288.372 100.975 288.247 101.536 288.002 102.059C287.758 102.583 287.4 103.058 286.948 103.458C286.496 103.859 285.961 104.177 285.37 104.393C284.781 104.61 284.148 104.721 283.51 104.721H141.734C141.096 104.721 140.463 104.61 139.874 104.393C139.283 104.177 138.748 103.859 138.296 103.458C137.844 103.058 137.486 102.583 137.242 102.059C136.997 101.536 136.872 100.975 136.872 100.409V15.3437H288.372Z" fill="#F3F9FF"/>
<path d="M241.103 78.0139V69.6847L234.634 68.8705C234.132 67.0092 233.305 65.2292 232.182 63.596L236.085 58.9683L229.437 53.0271L224.22 56.4977C222.383 55.499 220.379 54.7648 218.283 54.3228L217.354 48.6132H207.963L207.034 54.3228C204.938 54.7648 202.934 55.499 201.097 56.4977L195.88 53.0271L189.191 58.9594L193.104 63.5864C191.963 65.2121 191.135 66.9948 190.652 68.8616L184.214 69.6758V78.0043L190.652 78.8281C191.142 80.701 191.97 82.492 193.104 84.1306L189.191 88.7583L195.88 94.662L201.097 91.1921C202.923 92.2146 204.93 92.9591 207.034 93.3942L207.963 99.1046H217.354L218.283 93.3942C220.387 92.9591 222.393 92.2146 224.22 91.1921L229.437 94.662L236.085 88.7583L232.182 84.1306C233.293 82.4947 234.119 80.7195 234.634 78.865L241.103 78.0139ZM212.648 86.4721C209.83 86.4742 207.074 85.7344 204.73 84.3465C202.385 82.9585 200.559 80.9852 199.48 78.6764C198.401 76.367 198.118 73.8261 198.668 71.3746C199.219 68.9231 200.576 66.6718 202.57 64.9047C204.563 63.1376 207.103 61.9355 209.868 61.4491C212.633 60.9628 215.497 61.2155 218.1 62.1739C220.704 63.1329 222.927 64.7544 224.49 66.8343C226.053 68.9149 226.885 71.3589 226.881 73.8589C226.879 75.5139 226.51 77.1532 225.794 78.6819C225.077 80.2113 224.028 81.5999 222.707 82.7686C221.385 83.9373 219.816 84.8636 218.09 85.4947C216.364 86.1252 214.515 86.4482 212.648 86.4441V86.4721Z" fill="#425160"/>
<path d="M212.607 86.4441C208.829 86.4441 205.206 85.1136 202.535 82.7447C199.864 80.3759 198.363 77.1628 198.363 73.8124C198.363 70.462 199.864 67.2489 202.535 64.8801C205.206 62.5113 208.829 61.18 212.607 61.18V48.5947H207.921L206.993 54.3044C204.896 54.7463 202.893 55.4806 201.055 56.4792L195.838 53.0086L189.149 58.941L193.062 63.568C191.922 65.1936 191.093 66.9764 190.61 68.8425L184.172 69.6574V77.9859L190.61 78.8096C191.1 80.6826 191.929 82.4735 193.062 84.1122L189.149 88.7392L195.838 94.6435L201.055 91.1736C202.882 92.1961 204.889 92.9407 206.993 93.3758L207.921 99.0861H212.607V86.4441Z" fill="#3D4959"/>
<path d="M276.09 44.3004V38.3407L271.468 37.7577C271.119 36.4304 270.53 35.1616 269.726 34.0005L272.512 30.7245L267.774 26.4953L264.049 28.9661C262.738 28.2534 261.308 27.7287 259.812 27.4114L259.156 23.3488H252.393L251.736 27.4114C250.241 27.7287 248.811 28.2534 247.499 28.9661L243.806 26.4953L239.037 30.7245L241.823 34.0005C241.006 35.1573 240.414 36.4273 240.071 37.7577L235.479 38.3407V44.3004L240.071 44.8837C240.417 46.2184 241.01 47.4943 241.823 48.6589L239.037 51.9444L243.806 56.1459L247.499 53.6753C248.803 54.4055 250.235 54.9369 251.736 55.2484L252.393 59.3201H259.113L259.771 55.2484C261.272 54.9369 262.704 54.4055 264.007 53.6753L267.733 56.1459L272.47 51.9444L269.683 48.6405C270.48 47.4759 271.068 46.2081 271.426 44.8837L276.09 44.3004ZM255.805 50.3249C253.797 50.327 251.832 49.8003 250.161 48.8113C248.49 47.8229 247.187 46.4165 246.417 44.771C245.647 43.1248 245.446 41.3138 245.837 39.5662C246.229 37.8187 247.196 36.2133 248.616 34.9535C250.037 33.6937 251.847 32.8359 253.817 32.4888C255.788 32.1416 257.83 32.3207 259.685 33.0034C261.541 33.686 263.126 34.8416 264.241 36.3238C265.356 37.806 265.95 39.5482 265.948 41.3298C265.951 42.5121 265.69 43.6829 265.182 44.7751C264.673 45.8673 263.926 46.8598 262.984 47.6958C262.041 48.5319 260.922 49.1938 259.69 49.6453C258.459 50.0968 257.139 50.3276 255.805 50.3249Z" fill="#41566D"/>
<path d="M192.895 20.0358H142.308V23.7652H192.895V20.0358Z" fill="#D6E0EA"/>
<path d="M192.895 28.8457H142.308V32.5752H192.895V28.8457Z" fill="#D6E0EA"/>
<path d="M192.895 37.6559H142.308V41.3854H192.895V37.6559Z" fill="#D6E0EA"/>
<path d="M181.959 46.4657H142.308V50.1951H181.959V46.4657Z" fill="#D6E0EA"/>
<path d="M181.959 55.2764H142.308V59.0058H181.959V55.2764Z" fill="#D6E0EA"/>
<path d="M254.835 7.81079C254.837 8.43168 254.632 9.03912 254.244 9.55626C253.857 10.0734 253.305 10.477 252.659 10.7158C252.013 10.9547 251.301 11.0181 250.614 10.8981C249.927 10.7781 249.296 10.48 248.8 10.0417C248.305 9.60333 247.967 9.04431 247.829 8.43551C247.692 7.8267 247.761 7.19542 248.029 6.62166C248.296 6.04789 248.75 5.55739 249.331 5.21224C249.913 4.8671 250.598 4.68288 251.298 4.68288C251.762 4.68165 252.222 4.76163 252.651 4.91832C253.08 5.07495 253.47 5.30514 253.798 5.59571C254.128 5.88628 254.388 6.23156 254.566 6.61168C254.743 6.9918 254.835 7.39925 254.835 7.81079Z" fill="white"/>
<path d="M269.246 7.81079C269.246 8.42943 269.038 9.03421 268.651 9.54862C268.264 10.063 267.713 10.4639 267.068 10.7007C266.424 10.9374 265.715 10.9994 265.031 10.8787C264.346 10.758 263.718 10.46 263.225 10.0226C262.732 9.58516 262.396 9.02779 262.259 8.42103C262.124 7.81427 262.193 7.18531 262.46 6.6138C262.727 6.04222 263.179 5.5537 263.759 5.20999C264.339 4.86628 265.021 4.68288 265.719 4.68288C266.654 4.68288 267.551 5.01238 268.212 5.59899C268.874 6.1856 269.246 6.98122 269.246 7.81079Z" fill="white"/>
<path d="M283.697 7.81079C283.697 8.42943 283.491 9.03421 283.103 9.54862C282.715 10.063 282.165 10.4639 281.52 10.7007C280.876 10.9374 280.167 10.9994 279.482 10.8787C278.799 10.758 278.17 10.46 277.676 10.0226C277.183 9.58516 276.847 9.02779 276.712 8.42103C276.575 7.81427 276.645 7.18531 276.912 6.6138C277.179 6.04222 277.631 5.5537 278.211 5.20999C278.791 4.86628 279.473 4.68288 280.17 4.68288C281.106 4.68288 282.003 5.01238 282.664 5.59899C283.326 6.1856 283.697 6.98122 283.697 7.81079Z" fill="white"/>
<path d="M246.864 95.1251C246.864 95.6189 246.698 96.1025 246.388 96.513C246.079 96.9242 245.639 97.2446 245.124 97.4331C244.609 97.6223 244.043 97.6722 243.496 97.5759C242.95 97.4789 242.447 97.2412 242.054 96.8915C241.66 96.5424 241.392 96.0971 241.283 95.6121C241.174 95.1278 241.23 94.6251 241.443 94.1688C241.656 93.7118 242.017 93.3218 242.481 93.0472C242.944 92.7726 243.489 92.6265 244.046 92.6265C244.793 92.6265 245.509 92.8894 246.038 93.358C246.566 93.8266 246.864 94.4625 246.864 95.1251Z" fill="#24A7FF"/>
<path d="M259.051 95.1251C259.053 95.6217 258.889 96.1073 258.579 96.5206C258.27 96.9345 257.829 97.2576 257.313 97.4488C256.796 97.6401 256.227 97.6906 255.678 97.595C255.129 97.4994 254.624 97.261 254.227 96.9106C253.831 96.5602 253.56 96.1135 253.45 95.6271C253.341 95.1401 253.396 94.6353 253.61 94.1763C253.823 93.718 254.185 93.3252 254.651 93.0493C255.116 92.7733 255.664 92.6265 256.223 92.6265C256.971 92.6265 257.689 92.8894 258.219 93.3573C258.749 93.8259 259.048 94.4612 259.051 95.1251Z" fill="#24A7FF"/>
<path d="M272.386 95.1251C272.389 95.8252 272.156 96.5096 271.719 97.0923C271.282 97.6756 270.659 98.1298 269.931 98.3983C269.202 98.6674 268.399 98.7385 267.625 98.6018C266.851 98.4659 266.14 98.1292 265.582 97.6339C265.024 97.1394 264.644 96.5083 264.49 95.8218C264.337 95.1353 264.416 94.4236 264.719 93.7774C265.023 93.1306 265.536 92.5787 266.192 92.1914C266.85 91.8034 267.622 91.5971 268.411 91.5992C269.465 91.5992 270.477 91.9707 271.222 92.6319C271.968 93.2931 272.386 94.19 272.386 95.1251Z" fill="#24A7FF"/>
<path d="M283.416 95.1251C283.418 95.6217 283.254 96.1073 282.944 96.5206C282.635 96.9345 282.194 97.2576 281.677 97.4488C281.161 97.6401 280.592 97.6906 280.043 97.595C279.494 97.4994 278.989 97.261 278.592 96.9106C278.196 96.5602 277.925 96.1135 277.815 95.6271C277.706 95.1401 277.761 94.6353 277.975 94.1763C278.188 93.718 278.55 93.3252 279.016 93.0493C279.481 92.7733 280.029 92.6265 280.588 92.6265C281.337 92.6265 282.054 92.8894 282.584 93.3573C283.114 93.8259 283.413 94.4612 283.416 95.1251Z" fill="#24A7FF"/>
<path d="M147.536 95.1251C147.538 95.6217 147.374 96.1073 147.064 96.5206C146.755 96.9345 146.314 97.2576 145.798 97.4488C145.281 97.6401 144.712 97.6906 144.163 97.595C143.614 97.4994 143.109 97.261 142.712 96.9106C142.316 96.5602 142.045 96.1135 141.935 95.6271C141.826 95.1401 141.881 94.6353 142.095 94.1763C142.308 93.718 142.67 93.3252 143.136 93.0493C143.601 92.7733 144.149 92.6265 144.708 92.6265C145.457 92.6265 146.174 92.8894 146.704 93.3573C147.234 93.8259 147.533 94.4612 147.536 95.1251Z" fill="#24A7FF"/>
<path d="M159.713 95.1251C159.713 95.6189 159.548 96.1025 159.238 96.513C158.928 96.9242 158.489 97.2446 157.974 97.4331C157.459 97.6223 156.893 97.6722 156.346 97.5759C155.799 97.4789 155.298 97.2412 154.904 96.8915C154.51 96.5424 154.241 96.0971 154.132 95.6121C154.024 95.1278 154.08 94.6251 154.293 94.1688C154.506 93.7118 154.868 93.3218 155.331 93.0472C155.794 92.7726 156.339 92.6265 156.896 92.6265C157.643 92.6265 158.36 92.8894 158.888 93.358C159.416 93.8266 159.713 94.4625 159.713 95.1251Z" fill="#24A7FF"/>
<path d="M171.89 95.1251C171.89 95.6189 171.725 96.1025 171.415 96.513C171.106 96.9242 170.666 97.2446 170.151 97.4331C169.637 97.6223 169.07 97.6722 168.524 97.5759C167.977 97.4789 167.475 97.2412 167.081 96.8915C166.687 96.5424 166.418 96.0971 166.31 95.6121C166.201 95.1278 166.257 94.6251 166.47 94.1688C166.683 93.7118 167.045 93.3218 167.508 93.0472C167.971 92.7726 168.516 92.6265 169.073 92.6265C169.82 92.6265 170.537 92.8894 171.066 93.358C171.593 93.8266 171.89 94.4625 171.89 95.1251Z" fill="#24A7FF"/>
<path d="M184.078 95.1251C184.08 95.6217 183.915 96.108 183.606 96.5219C183.296 96.9359 182.854 97.2583 182.337 97.4495C181.82 97.6401 181.25 97.6906 180.701 97.5943C180.151 97.498 179.647 97.259 179.25 96.9079C178.854 96.5561 178.585 96.1087 178.477 95.621C178.367 95.134 178.424 94.6285 178.64 94.1702C178.855 93.7119 179.219 93.3198 179.686 93.0452C180.152 92.7699 180.701 92.6244 181.26 92.6265C182.008 92.6265 182.725 92.8895 183.253 93.358C183.781 93.8266 184.078 94.4625 184.078 95.1251Z" fill="#24A7FF"/>
<path d="M122.399 24.2186V17.3612L117.088 16.6856C116.682 15.16 116.006 13.7013 115.085 12.3638L118.288 8.5881L112.841 3.7296L108.542 6.5707C107.036 5.747 105.391 5.14393 103.669 4.78458L102.917 0.101898H95.1857L94.4235 4.78458C92.7025 5.14728 91.0578 5.75014 89.5503 6.5707L85.2929 3.7296L79.8148 8.60661L83.0186 12.3823C82.0845 13.7153 81.4047 15.1753 81.0047 16.7041L75.7248 17.3797V24.2371L81.0047 24.9034C81.4063 26.4403 82.086 27.9093 83.0186 29.2529L79.8148 33.0287L85.2929 37.8687L89.5503 35.0276C91.0524 35.8615 92.6986 36.4711 94.4235 36.8322L95.1857 41.5148H102.917L103.669 36.8322C105.394 36.4745 107.041 35.8647 108.542 35.0276L112.841 37.8687L118.288 33.0287L115.085 29.2251C115.999 27.8847 116.675 26.4269 117.088 24.9034L122.399 24.2186ZM99.067 29.3732C97.1502 29.375 95.2766 28.8724 93.6821 27.9291C92.0882 26.9857 90.8451 25.644 90.1114 24.0738C89.3777 22.5037 89.1858 20.7757 89.5596 19.1086C89.9333 17.4416 90.8574 15.9106 92.2131 14.7094C93.5688 13.5081 95.2967 12.6907 97.1764 12.3607C99.0562 12.0307 101.005 12.2029 102.774 12.8554C104.544 13.508 106.056 14.6116 107.118 16.0266C108.179 17.4414 108.744 19.104 108.74 20.8038C108.742 21.9302 108.492 23.0459 108.006 24.0867C107.521 25.1276 106.808 26.0731 105.909 26.8693C105.011 27.6654 103.944 28.2963 102.769 28.726C101.596 29.1558 100.337 29.3756 99.067 29.3732Z" fill="#E4EFF7"/>
<path d="M363.064 118.955V113.014L358.472 112.43C358.114 111.123 357.526 109.874 356.729 108.729L359.505 105.453L354.779 101.242L351.064 103.704C349.772 102.997 348.364 102.476 346.89 102.159L346.232 98.1046H339.533L338.876 102.159C337.402 102.478 335.994 102.999 334.702 103.704L331.018 101.242L326.26 105.453L329.046 108.729C328.237 109.868 327.648 111.119 327.304 112.43L322.723 113.014V118.955L327.304 119.538C327.65 120.866 328.239 122.135 329.046 123.295L326.26 126.571L331.018 130.763L334.702 128.292C335.986 129.017 337.396 129.549 338.876 129.866L339.533 133.919H346.232L346.89 129.866C348.37 129.55 349.781 129.019 351.064 128.292L354.779 130.763L359.505 126.571L356.74 123.276C357.526 122.127 358.113 120.879 358.483 119.575L363.064 118.955ZM342.851 123.415C341.2 123.415 339.586 122.981 338.214 122.168C336.841 121.354 335.771 120.198 335.139 118.845C334.507 117.492 334.342 116.004 334.664 114.568C334.986 113.132 335.781 111.812 336.949 110.777C338.116 109.742 339.603 109.036 341.223 108.751C342.842 108.465 344.52 108.612 346.046 109.172C347.572 109.732 348.875 110.681 349.792 111.899C350.709 113.116 351.199 114.548 351.199 116.012C351.199 117.975 350.32 119.858 348.754 121.247C347.189 122.635 345.065 123.415 342.851 123.415Z" fill="#DDE9F2"/>
<path d="M304.869 255.002V251.069L301.833 250.68C301.602 249.806 301.211 248.971 300.675 248.209L302.522 246.044L299.391 243.267L296.929 244.905C296.069 244.431 295.128 244.084 294.143 243.879L293.704 241.195H289.28L288.842 243.879C287.853 244.084 286.909 244.431 286.046 244.905L283.614 243.267L280.483 246.044L282.331 248.209C281.79 248.969 281.399 249.805 281.172 250.68L278.147 251.069V254.993L281.172 255.381C281.404 256.262 281.795 257.103 282.331 257.871L280.483 260.036L283.614 262.813L286.046 261.175C286.906 261.658 287.851 262.011 288.842 262.221L289.28 264.904H293.704L294.143 262.221C295.131 262.013 296.072 261.659 296.929 261.175L299.349 262.822L302.48 260.046L300.633 257.871C301.16 257.102 301.551 256.265 301.791 255.391L304.869 255.002ZM291.503 257.963C290.404 257.965 289.33 257.678 288.415 257.137C287.5 256.597 286.787 255.829 286.365 254.928C285.944 254.028 285.834 253.038 286.047 252.082C286.261 251.126 286.79 250.248 287.567 249.559C288.344 248.87 289.334 248.4 290.412 248.211C291.49 248.021 292.607 248.12 293.622 248.493C294.637 248.867 295.503 249.499 296.112 250.311C296.721 251.122 297.046 252.075 297.044 253.049C297.045 253.695 296.902 254.335 296.624 254.931C296.347 255.528 295.938 256.07 295.423 256.527C294.909 256.984 294.297 257.345 293.625 257.592C292.952 257.838 292.23 257.965 291.503 257.963Z" fill="#E4EFF7"/>
<path d="M174.134 282.617C174.134 279.906 175.772 278.36 177.974 278.36C180.175 278.36 181.803 279.906 181.803 282.617C181.803 285.328 180.165 286.883 177.974 286.883C175.782 286.883 174.134 285.31 174.134 282.617ZM180.457 282.617C180.457 280.488 179.414 279.415 177.974 279.415C176.534 279.415 175.48 280.488 175.48 282.617C175.48 284.745 176.524 285.819 177.974 285.819C179.424 285.819 180.447 284.755 180.447 282.617H180.457Z" fill="#DDE9F2"/>
<path d="M183.087 282.617C183.087 279.906 184.725 278.36 186.927 278.36C189.129 278.36 190.745 279.906 190.745 282.617C190.745 285.328 189.108 286.883 186.927 286.883C184.746 286.883 183.087 285.31 183.087 282.617ZM189.347 282.617C189.347 280.488 188.304 279.415 186.874 279.415C185.445 279.415 184.37 280.488 184.37 282.617C184.37 284.745 185.414 285.819 186.874 285.819C188.335 285.819 189.4 284.755 189.4 282.617H189.347Z" fill="#DDE9F2"/>
<path d="M194.909 278.452V286.781H193.584V279.479H191.497V278.443L194.909 278.452Z" fill="#DDE9F2"/>
<path d="M196.965 282.617C196.965 279.906 198.603 278.36 200.805 278.36C203.007 278.36 204.634 279.906 204.634 282.617C204.634 285.328 202.996 286.883 200.805 286.883C198.614 286.883 196.965 285.31 196.965 282.617ZM203.288 282.617C203.288 280.488 202.244 279.415 200.805 279.415C199.365 279.415 198.311 280.488 198.311 282.617C198.311 284.745 199.354 285.819 200.805 285.819C202.255 285.819 203.288 284.755 203.288 282.617Z" fill="#DDE9F2"/>
<path d="M208.798 278.452V286.781H207.524V279.479H205.437V278.443L208.798 278.452Z" fill="#DDE9F2"/>
<path d="M210.853 282.617C210.853 279.906 212.492 278.36 214.693 278.36C216.895 278.36 218.512 279.906 218.512 282.617C218.512 285.328 216.874 286.883 214.693 286.883C212.513 286.883 210.853 285.31 210.853 282.617ZM217.177 282.617C217.177 280.488 216.133 279.415 214.693 279.415C213.253 279.415 212.189 280.488 212.189 282.617C212.189 284.745 213.232 285.819 214.693 285.819C216.154 285.819 217.177 284.755 217.177 282.617Z" fill="#DDE9F2"/>
<path d="M222.676 278.452V286.781H221.35V279.479H219.264V278.443L222.676 278.452Z" fill="#DDE9F2"/>
<path d="M31.1792 133.354C31.1792 129.94 33.2661 127.996 36.0001 127.996C38.7339 127.996 40.8104 129.94 40.8104 133.354C40.8104 136.77 38.7235 138.703 36.0001 138.703C33.2766 138.703 31.1792 136.76 31.1792 133.354ZM39.12 133.354C39.12 130.68 37.8365 129.329 35.9896 129.329C34.1427 129.329 32.8592 130.68 32.8592 133.354C32.8592 136.029 34.1427 137.38 35.9896 137.38C37.8365 137.38 39.0991 136.029 39.0991 133.354H39.12Z" fill="#DDE9F2"/>
<path d="M42.4069 133.354C42.4069 129.94 44.4939 127.996 47.2382 127.996C49.9825 127.996 52.0381 129.94 52.0381 133.354C52.0381 136.77 49.9512 138.703 47.2382 138.703C44.5252 138.703 42.4069 136.76 42.4069 133.354ZM50.3478 133.354C50.3478 130.68 49.0747 129.329 47.2173 129.329C45.36 129.329 44.0869 130.68 44.0869 133.354C44.0869 136.029 45.3704 137.38 47.2173 137.38C49.0643 137.38 50.3478 136.029 50.3478 133.354Z" fill="#DDE9F2"/>
<path d="M57.2658 128.117V138.583H55.5963V129.421H52.9355V128.117H57.2658Z" fill="#DDE9F2"/>
<path d="M59.8537 133.354C59.8537 129.94 61.9406 127.996 64.6745 127.996C67.4083 127.996 69.4848 129.94 69.4848 133.354C69.4848 136.77 67.3979 138.703 64.6745 138.703C61.951 138.703 59.8537 136.76 59.8537 133.354ZM67.7944 133.354C67.7944 130.68 66.5214 129.329 64.6641 129.329C62.8067 129.329 61.5336 130.68 61.5336 133.354C61.5336 136.029 62.8171 137.38 64.6641 137.38C66.511 137.38 67.7944 136.029 67.7944 133.354Z" fill="#DDE9F2"/>
<path d="M74.7126 128.117V138.583H73.043V129.421H70.3822V128.117H74.7126Z" fill="#DDE9F2"/>
<path d="M80.9631 128.117V138.583H79.293V129.421H76.6221V128.117H80.9631Z" fill="#DDE9F2"/>
<path d="M83.5403 133.354C83.5403 129.94 85.6274 127.996 88.3611 127.996C91.0948 127.996 93.1711 129.94 93.1711 133.354C93.1711 136.77 91.0848 138.703 88.3611 138.703C85.6374 138.703 83.5403 136.76 83.5403 133.354ZM91.4809 133.354C91.4809 130.68 90.2077 129.329 88.3503 129.329C86.4929 129.329 85.2205 130.68 85.2205 133.354C85.2205 136.029 86.5037 137.38 88.3503 137.38C90.1977 137.38 91.4809 136.029 91.4809 133.354Z" fill="#DDE9F2"/>
<path d="M94.8304 133.354C94.8304 129.94 96.9175 127.996 99.6512 127.996C102.385 127.996 104.451 129.94 104.451 133.354C104.451 136.77 102.364 138.703 99.6512 138.703C96.9383 138.703 94.8304 136.76 94.8304 133.354ZM102.771 133.354C102.771 130.68 101.488 129.329 99.6411 129.329C97.7938 129.329 96.5105 130.68 96.5105 133.354C96.5105 136.029 97.7938 137.38 99.6411 137.38C101.488 137.38 102.74 136.029 102.74 133.354H102.771Z" fill="#DDE9F2"/>
<path d="M106.048 133.354C106.048 129.94 108.135 127.996 110.869 127.996C113.602 127.996 115.679 129.94 115.679 133.354C115.679 136.77 113.592 138.703 110.869 138.703C108.145 138.703 106.048 136.76 106.048 133.354ZM113.989 133.354C113.989 130.68 112.715 129.329 110.858 129.329C109.001 129.329 107.728 130.68 107.728 133.354C107.728 136.029 109.011 137.38 110.858 137.38C112.705 137.38 113.989 136.029 113.989 133.354Z" fill="#DDE9F2"/>
<path d="M120.917 128.117V138.583H119.248V129.421H116.587V128.117H120.917Z" fill="#DDE9F2"/>
<path d="M123.494 133.354C123.494 129.94 125.582 127.996 128.315 127.996C131.049 127.996 133.126 129.94 133.126 133.354C133.126 136.77 131.039 138.703 128.315 138.703C125.592 138.703 123.494 136.76 123.494 133.354ZM131.435 133.354C131.435 130.68 130.152 129.329 128.305 129.329C126.458 129.329 125.175 130.68 125.175 133.354C125.175 136.029 126.458 137.38 128.305 137.38C130.152 137.38 131.435 136.029 131.435 133.354Z" fill="#DDE9F2"/>
<path d="M138.354 128.117V138.583H136.684V129.421H134.023V128.117H138.354Z" fill="#DDE9F2"/>
<path d="M217.229 145.663C217.229 142.248 219.316 140.304 222.05 140.304C224.784 140.304 226.86 142.248 226.86 145.663C226.86 149.078 224.773 151.012 222.05 151.012C219.326 151.012 217.229 149.069 217.229 145.663ZM225.17 145.663C225.17 142.979 223.886 141.637 222.039 141.637C220.193 141.637 218.909 142.979 218.909 145.663C218.909 148.347 220.193 149.679 222.039 149.679C223.886 149.679 225.17 148.347 225.17 145.663Z" fill="#DDE9F2"/>
<path d="M232.088 140.425V150.891H230.418V141.73H227.757V140.425H232.088Z" fill="#DDE9F2"/>
<path d="M238.328 140.425V150.891H236.658V141.73H233.997V140.425H238.328Z" fill="#DDE9F2"/>
<path d="M240.915 145.663C240.915 142.248 243.002 140.304 245.736 140.304C248.47 140.304 250.547 142.248 250.547 145.663C250.547 149.078 248.46 151.012 245.736 151.012C243.013 151.012 240.915 149.069 240.915 145.663ZM248.856 145.663C248.856 142.979 247.573 141.637 245.726 141.637C243.879 141.637 242.595 142.979 242.595 145.663C242.595 148.347 243.869 149.679 245.726 149.679C247.583 149.679 248.856 148.347 248.856 145.663Z" fill="#DDE9F2"/>
<path d="M252.164 145.663C252.164 142.248 254.251 140.304 256.995 140.304C259.74 140.304 261.795 142.248 261.795 145.663C261.795 149.078 259.708 151.012 256.995 151.012C254.282 151.012 252.164 149.069 252.164 145.663ZM260.115 145.663C260.115 142.979 258.832 141.637 256.985 141.637C255.138 141.637 253.855 142.979 253.855 145.663C253.855 148.347 255.138 149.679 256.985 149.679C258.832 149.679 260.115 148.347 260.115 145.663Z" fill="#DDE9F2"/>
<path d="M263.423 145.663C263.423 142.248 265.51 140.304 268.244 140.304C270.977 140.304 273.055 142.248 273.055 145.663C273.055 149.078 270.967 151.012 268.244 151.012C265.52 151.012 263.423 149.069 263.423 145.663ZM271.364 145.663C271.364 142.979 270.08 141.637 268.234 141.637C266.386 141.637 265.103 142.979 265.103 145.663C265.103 148.347 266.386 149.679 268.234 149.679C270.08 149.679 271.364 148.347 271.364 145.663Z" fill="#DDE9F2"/>
<path d="M304.358 20.0357C304.358 20.5299 304.193 21.0129 303.884 21.4239C303.574 21.8347 303.134 22.155 302.619 22.3441C302.104 22.5332 301.537 22.5827 300.991 22.4863C300.445 22.3899 299.943 22.1519 299.548 21.8025C299.154 21.453 298.886 21.0078 298.778 20.5231C298.669 20.0384 298.724 19.536 298.938 19.0795C299.151 18.6229 299.512 18.2326 299.975 17.9581C300.439 17.6835 300.983 17.537 301.541 17.537C302.288 17.537 303.005 17.8002 303.533 18.2688C304.062 18.7374 304.358 19.373 304.358 20.0357Z" fill="#DDE9F2"/>
<path d="M316.545 20.0357C316.548 20.5325 316.384 21.0186 316.074 21.4325C315.764 21.8463 315.322 22.1692 314.805 22.3601C314.288 22.5511 313.718 22.6016 313.169 22.5051C312.619 22.4086 312.115 22.1695 311.718 21.8183C311.322 21.467 311.053 21.0193 310.944 20.5319C310.835 20.0446 310.892 19.5395 311.107 19.0809C311.323 18.6222 311.687 18.2307 312.153 17.9558C312.62 17.6809 313.168 17.5352 313.728 17.537C314.475 17.537 315.192 17.8003 315.721 18.2688C316.249 18.7374 316.545 19.373 316.545 20.0357Z" fill="#DDE9F2"/>
<path d="M329.892 20.0357C329.892 20.7349 329.658 21.4184 329.22 21.9997C328.782 22.5811 328.159 23.0342 327.431 23.3018C326.703 23.5693 325.901 23.6393 325.128 23.5029C324.355 23.3665 323.644 23.0298 323.087 22.5354C322.53 22.041 322.15 21.4112 321.996 20.7254C321.842 20.0396 321.921 19.3289 322.223 18.6829C322.525 18.0369 323.036 17.4848 323.691 17.0964C324.346 16.7079 325.117 16.5005 325.906 16.5005C326.963 16.5005 327.977 16.873 328.724 17.536C329.472 18.1989 329.892 19.0981 329.892 20.0357Z" fill="#DDE9F2"/>
<path d="M340.91 20.0357C340.913 20.5325 340.749 21.0186 340.438 21.4325C340.128 21.8463 339.687 22.1692 339.169 22.3601C338.653 22.5511 338.084 22.6016 337.534 22.5051C336.985 22.4086 336.48 22.1695 336.084 21.8183C335.687 21.467 335.418 21.0193 335.309 20.5319C335.2 20.0446 335.257 19.5395 335.472 19.0809C335.687 18.6222 336.052 18.2307 336.518 17.9558C336.985 17.6809 337.533 17.5352 338.094 17.537C338.84 17.537 339.557 17.8003 340.086 18.2688C340.614 18.7374 340.91 19.373 340.91 20.0357Z" fill="#DDE9F2"/>
<path d="M136.361 244.748C136.358 244.252 136.522 243.766 136.832 243.353C137.141 242.939 137.582 242.616 138.099 242.424C138.615 242.233 139.185 242.183 139.733 242.278C140.283 242.374 140.788 242.612 141.184 242.963C141.581 243.313 141.851 243.76 141.961 244.246C142.071 244.733 142.015 245.238 141.802 245.697C141.588 246.155 141.225 246.547 140.761 246.824C140.295 247.1 139.748 247.247 139.188 247.247C138.818 247.248 138.45 247.185 138.107 247.06C137.764 246.935 137.452 246.75 137.189 246.519C136.926 246.286 136.718 246.01 136.576 245.707C136.434 245.403 136.361 245.077 136.361 244.748Z" fill="#DDE9F2"/>
<path d="M124.184 244.748C124.184 244.254 124.348 243.771 124.658 243.36C124.967 242.949 125.407 242.629 125.922 242.44C126.437 242.251 127.004 242.201 127.55 242.297C128.096 242.394 128.599 242.632 128.993 242.982C129.387 243.331 129.655 243.776 129.763 244.261C129.873 244.745 129.817 245.248 129.603 245.704C129.39 246.161 129.029 246.551 128.566 246.826C128.103 247.101 127.558 247.247 127 247.247C126.254 247.247 125.537 246.984 125.008 246.515C124.48 246.047 124.184 245.411 124.184 244.748Z" fill="#DDE9F2"/>
<path d="M110.837 244.748C110.837 244.049 111.071 243.366 111.509 242.784C111.947 242.203 112.57 241.75 113.298 241.482C114.026 241.215 114.828 241.144 115.601 241.281C116.374 241.418 117.085 241.754 117.642 242.249C118.199 242.743 118.579 243.373 118.733 244.058C118.886 244.744 118.808 245.455 118.506 246.101C118.204 246.747 117.693 247.299 117.038 247.687C116.382 248.076 115.612 248.284 114.823 248.284C113.766 248.284 112.752 247.911 112.005 247.248C111.257 246.585 110.837 245.686 110.837 244.748Z" fill="#DDE9F2"/>
<path d="M99.8184 244.748C99.8161 244.252 99.9803 243.765 100.291 243.351C100.601 242.937 101.042 242.615 101.559 242.424C102.077 242.233 102.645 242.183 103.195 242.279C103.744 242.375 104.249 242.614 104.645 242.966C105.041 243.317 105.311 243.765 105.42 244.252C105.529 244.739 105.472 245.245 105.257 245.703C105.041 246.161 104.677 246.553 104.211 246.828C103.744 247.103 103.196 247.249 102.635 247.247C101.889 247.247 101.172 246.984 100.644 246.515C100.115 246.047 99.8184 245.411 99.8184 244.748Z" fill="#DDE9F2"/>
<path d="M282.101 153.14H277.312V155.648H282.101V153.14Z" fill="#55738E"/>
<path d="M282.101 148.429H277.312V150.937H282.101V148.429Z" fill="#55738E"/>
<path d="M282.101 143.719H277.312V146.227H282.101V143.719Z" fill="#55738E"/>
<path d="M282.101 139.009H277.312V141.517H282.101V139.009Z" fill="#55738E"/>
<path d="M282.101 134.298H277.312V136.806H282.101V134.298Z" fill="#55738E"/>
<path d="M282.101 129.588H277.312V132.096H282.101V129.588Z" fill="#55738E"/>
<path d="M282.101 124.878H277.312V127.386H282.101V124.878Z" fill="#55738E"/>
<path d="M282.101 120.167H277.312V122.675H282.101V120.167Z" fill="#55738E"/>
<path d="M282.101 115.457H277.312V117.964H282.101V115.457Z" fill="#55738E"/>
<path d="M282.101 110.747H277.312V113.254H282.101V110.747Z" fill="#55738E"/>
<path d="M215.048 153.14H210.258V155.648H215.048V153.14Z" fill="#55738E"/>
<path d="M215.048 148.429H210.258V150.937H215.048V148.429Z" fill="#55738E"/>
<path d="M215.048 143.719H210.258V146.227H215.048V143.719Z" fill="#55738E"/>
<path d="M215.048 139.009H210.258V141.517H215.048V139.009Z" fill="#55738E"/>
<path d="M215.048 134.298H210.258V136.806H215.048V134.298Z" fill="#55738E"/>
<path d="M215.048 129.588H210.258V132.096H215.048V129.588Z" fill="#55738E"/>
<path d="M215.048 124.878H210.258V127.386H215.048V124.878Z" fill="#55738E"/>
<path d="M215.048 120.167H210.258V122.675H215.048V120.167Z" fill="#55738E"/>
<path d="M215.048 115.457H210.258V117.964H215.048V115.457Z" fill="#55738E"/>
<path d="M215.048 110.747H210.258V113.254H215.048V110.747Z" fill="#55738E"/>
<path d="M147.984 153.14H143.195V155.648H147.984V153.14Z" fill="#55738E"/>
<path d="M147.984 148.429H143.195V150.937H147.984V148.429Z" fill="#55738E"/>
<path d="M147.984 143.719H143.195V146.227H147.984V143.719Z" fill="#55738E"/>
<path d="M147.984 139.009H143.195V141.517H147.984V139.009Z" fill="#55738E"/>
<path d="M147.984 134.298H143.195V136.806H147.984V134.298Z" fill="#55738E"/>
<path d="M147.984 129.588H143.195V132.096H147.984V129.588Z" fill="#55738E"/>
<path d="M147.984 124.878H143.195V127.386H147.984V124.878Z" fill="#55738E"/>
<path d="M147.984 120.167H143.195V122.675H147.984V120.167Z" fill="#55738E"/>
<path d="M147.984 115.457H143.195V117.964H147.984V115.457Z" fill="#55738E"/>
<path d="M147.984 110.747H143.195V113.254H147.984V110.747Z" fill="#55738E"/>
</svg>
