<svg width="47" height="31" viewBox="0 0 47 31" fill="none" xmlns="http://www.w3.org/2000/svg">
<path fill-rule="evenodd" clip-rule="evenodd" d="M14.7567 0C18.6156 0 21.925 1.94942 23.5867 4.76429C25.626 3.95692 27.8972 3.50678 30.2903 3.50678C39.0755 3.50678 46.2423 9.58122 46.2423 17.1221C46.2423 24.6631 39.0748 30.7375 30.2903 30.7375H11.65C5.24082 30.7375 0 26.3044 0 20.7874C0 17.2 2.22039 14.0689 5.5298 12.3202C5.0458 11.2704 4.77994 10.1215 4.77994 8.92002C4.77994 4.0437 9.18987 0 14.7567 0ZM8.00609 8.92002C8.00609 5.48699 11.085 2.79438 14.7567 2.79438C17.3717 2.79438 19.6792 4.15297 20.7975 6.17959C18.7782 7.45759 17.1235 9.13381 15.9944 11.0764C15.9166 11.2089 15.8418 11.3428 15.7702 11.4781C15.626 11.4316 15.4811 11.3879 15.3347 11.3462C14.1748 11.0163 12.9355 10.838 11.65 10.838C10.5579 10.838 9.49816 10.9664 8.49239 11.2082C8.17871 10.5033 8.00609 9.73149 8.00609 8.92002Z" fill="#FCA311"/>
<path fill-rule="evenodd" clip-rule="evenodd" d="M14.7567 0C18.6156 0 21.925 1.94942 23.5867 4.76429C25.626 3.95692 27.8972 3.50678 30.2903 3.50678C39.0755 3.50678 46.2423 9.58122 46.2423 17.1221C46.2423 24.6631 39.0748 30.7375 30.2903 30.7375H11.65C5.24082 30.7375 0 26.3044 0 20.7874C0 17.2 2.22039 14.0689 5.5298 12.3202C5.0458 11.2704 4.77994 10.1215 4.77994 8.92002C4.77994 4.0437 9.18987 0 14.7567 0ZM8.00609 8.92002C8.00609 5.48699 11.085 2.79438 14.7567 2.79438C17.3717 2.79438 19.6792 4.15297 20.7975 6.17959C18.7782 7.45759 17.1235 9.13381 15.9944 11.0764C15.9166 11.2089 15.8418 11.3428 15.7702 11.4781C15.626 11.4316 15.4811 11.3879 15.3347 11.3462C14.1748 11.0163 12.9355 10.838 11.65 10.838C10.5579 10.838 9.49816 10.9664 8.49239 11.2082C8.17871 10.5033 8.00609 9.73149 8.00609 8.92002Z" fill="url(#paint0_linear_3_361)"/>
<defs>
<linearGradient id="paint0_linear_3_361" x1="-4.16443e-07" y1="-0.142075" x2="14.0599" y2="41.4692" gradientUnits="userSpaceOnUse">
<stop stop-color="#09C6F9"/>
<stop offset="1" stop-color="#045DE9"/>
</linearGradient>
</defs>
</svg>
