<svg width="37" height="33" viewBox="0 0 37 33" fill="none" xmlns="http://www.w3.org/2000/svg">
<path d="M10.6691 0.284321C8.84712 -0.0947738 6.9512 -0.0947738 5.12925 0.284321C2.74314 0.780219 0.880338 2.43117 0.320806 4.54591C-0.106935 6.16065 -0.106935 7.84095 0.320806 9.45569C0.880338 11.5704 2.74314 13.222 5.12925 13.7179C6.9512 14.0964 8.84712 14.0964 10.6691 13.7179C13.0552 13.222 14.9187 11.5704 15.4783 9.45569C15.9052 7.84095 15.9052 6.16065 15.4783 4.54591C14.9187 2.43117 13.0552 0.780219 10.6691 0.284321Z" fill="#FCA311"/>
<path d="M10.6691 0.284321C8.84712 -0.0947738 6.9512 -0.0947738 5.12925 0.284321C2.74314 0.780219 0.880338 2.43117 0.320806 4.54591C-0.106935 6.16065 -0.106935 7.84095 0.320806 9.45569C0.880338 11.5704 2.74314 13.222 5.12925 13.7179C6.9512 14.0964 8.84712 14.0964 10.6691 13.7179C13.0552 13.222 14.9187 11.5704 15.4783 9.45569C15.9052 7.84095 15.9052 6.16065 15.4783 4.54591C14.9187 2.43117 13.0552 0.780219 10.6691 0.284321Z" fill="url(#paint0_linear_3_365)"/>
<path d="M10.6691 19.069C8.84712 18.6906 6.9512 18.6906 5.12925 19.069C2.74314 19.5649 0.880338 21.2165 0.320806 23.3313C-0.106935 24.946 -0.106935 26.6263 0.320806 28.2411C0.880338 30.3558 2.74314 32.0068 5.12925 32.5027C6.9512 32.8817 8.84712 32.8817 10.6691 32.5027C13.0552 32.0068 14.9187 30.3558 15.4783 28.2411C15.9052 26.6263 15.9052 24.946 15.4783 23.3313C14.9187 21.2165 13.0552 19.5649 10.6691 19.069Z" fill="#FCA311"/>
<path d="M10.6691 19.069C8.84712 18.6906 6.9512 18.6906 5.12925 19.069C2.74314 19.5649 0.880338 21.2165 0.320806 23.3313C-0.106935 24.946 -0.106935 26.6263 0.320806 28.2411C0.880338 30.3558 2.74314 32.0068 5.12925 32.5027C6.9512 32.8817 8.84712 32.8817 10.6691 32.5027C13.0552 32.0068 14.9187 30.3558 15.4783 28.2411C15.9052 26.6263 15.9052 24.946 15.4783 23.3313C14.9187 21.2165 13.0552 19.5649 10.6691 19.069Z" fill="url(#paint1_linear_3_365)"/>
<path d="M31.865 0.284321C30.0431 -0.0947738 28.1471 -0.0947738 26.3252 0.284321C23.9391 0.780219 22.0755 2.43117 21.516 4.54591C21.089 6.16065 21.089 7.84095 21.516 9.45569C22.0755 11.5704 23.9391 13.222 26.3252 13.7179C28.1471 14.0964 30.0431 14.0964 31.865 13.7179C34.2511 13.222 36.1139 11.5704 36.6735 9.45569C37.1012 7.84095 37.1012 6.16065 36.6735 4.54591C36.1139 2.43117 34.2511 0.780219 31.865 0.284321Z" fill="#FCA311"/>
<path d="M31.865 0.284321C30.0431 -0.0947738 28.1471 -0.0947738 26.3252 0.284321C23.9391 0.780219 22.0755 2.43117 21.516 4.54591C21.089 6.16065 21.089 7.84095 21.516 9.45569C22.0755 11.5704 23.9391 13.222 26.3252 13.7179C28.1471 14.0964 30.0431 14.0964 31.865 13.7179C34.2511 13.222 36.1139 11.5704 36.6735 9.45569C37.1012 7.84095 37.1012 6.16065 36.6735 4.54591C36.1139 2.43117 34.2511 0.780219 31.865 0.284321Z" fill="url(#paint2_linear_3_365)"/>
<path d="M31.865 19.069C30.0431 18.6906 28.1471 18.6906 26.3252 19.069C23.9391 19.5649 22.0755 21.2165 21.516 23.3313C21.089 24.946 21.089 26.6263 21.516 28.2411C22.0755 30.3558 23.9391 32.0068 26.3252 32.5027C28.1471 32.8817 30.0431 32.8817 31.865 32.5027C34.2511 32.0068 36.1139 30.3558 36.6735 28.2411C37.1012 26.6263 37.1012 24.946 36.6735 23.3313C36.1139 21.2165 34.2511 19.5649 31.865 19.069Z" fill="#FCA311"/>
<path d="M31.865 19.069C30.0431 18.6906 28.1471 18.6906 26.3252 19.069C23.9391 19.5649 22.0755 21.2165 21.516 23.3313C21.089 24.946 21.089 26.6263 21.516 28.2411C22.0755 30.3558 23.9391 32.0068 26.3252 32.5027C28.1471 32.8817 30.0431 32.8817 31.865 32.5027C34.2511 32.0068 36.1139 30.3558 36.6735 28.2411C37.1012 26.6263 37.1012 24.946 36.6735 23.3313C36.1139 21.2165 34.2511 19.5649 31.865 19.069Z" fill="url(#paint3_linear_3_365)"/>
<defs>
<linearGradient id="paint0_linear_3_365" x1="0.000193268" y1="-0.151468" x2="18.52" y2="40.9575" gradientUnits="userSpaceOnUse">
<stop stop-color="#09C6F9"/>
<stop offset="1" stop-color="#045DE9"/>
</linearGradient>
<linearGradient id="paint1_linear_3_365" x1="0.000193082" y1="-0.151433" x2="18.52" y2="40.9575" gradientUnits="userSpaceOnUse">
<stop stop-color="#09C6F9"/>
<stop offset="1" stop-color="#045DE9"/>
</linearGradient>
<linearGradient id="paint2_linear_3_365" x1="0.000219947" y1="-0.151467" x2="18.5201" y2="40.9575" gradientUnits="userSpaceOnUse">
<stop stop-color="#09C6F9"/>
<stop offset="1" stop-color="#045DE9"/>
</linearGradient>
<linearGradient id="paint3_linear_3_365" x1="0.000219474" y1="-0.151433" x2="18.5201" y2="40.9575" gradientUnits="userSpaceOnUse">
<stop stop-color="#09C6F9"/>
<stop offset="1" stop-color="#045DE9"/>
</linearGradient>
</defs>
</svg>
