<svg width="25" height="22" viewBox="0 0 25 22" fill="none" xmlns="http://www.w3.org/2000/svg">
<path d="M12.3313 21.8577C19.1417 21.8577 24.6626 16.9647 24.6626 10.9289C24.6626 4.89302 19.1417 0 12.3313 0C5.52091 0 0 4.89302 0 10.9289C0 16.9647 5.52091 21.8577 12.3313 21.8577Z" fill="#FCA311"/>
<path d="M12.3313 21.8577C19.1417 21.8577 24.6626 16.9647 24.6626 10.9289C24.6626 4.89302 19.1417 0 12.3313 0C5.52091 0 0 4.89302 0 10.9289C0 16.9647 5.52091 21.8577 12.3313 21.8577Z" fill="url(#paint0_linear_3_359)"/>
<path d="M8.62649 13.6611V11.6201L6.45309 7.9234H7.79414L9.22764 10.5709L10.6519 7.9234H11.9744L9.8103 11.6201V13.6611H8.62649ZM14.2403 13.6611V8.76767H12.3536V7.9234H17.32V8.76767H15.4241V13.6611H14.2403Z" fill="white"/>
<defs>
<linearGradient id="paint0_linear_3_359" x1="1.48744e-07" y1="-0.101092" x2="12.3468" y2="27.3047" gradientUnits="userSpaceOnUse">
<stop stop-color="#09C6F9"/>
<stop offset="1" stop-color="#045DE9"/>
</linearGradient>
</defs>
</svg>
