<svg width="37" height="33" viewBox="0 0 37 33" fill="none" xmlns="http://www.w3.org/2000/svg">
<path d="M17.0209 0V9.84008H1.06189C2.74742 5.23766 7.0256 1.7097 12.392 0.591544C13.918 0.273241 15.4664 0.0765021 17.0209 0Z" fill="#FCA311"/>
<path d="M17.0209 0V9.84008H1.06189C2.74742 5.23766 7.0256 1.7097 12.392 0.591544C13.918 0.273241 15.4664 0.0765021 17.0209 0Z" fill="url(#paint0_linear_3_366)"/>
<path d="M19.9727 0V20.325H36.6245C37.211 17.2232 37.0985 14.0436 36.287 10.9712C34.9275 5.821 30.3996 1.79918 24.6015 0.591544C23.0763 0.273241 21.5272 0.0765021 19.9727 0Z" fill="#FCA311"/>
<path d="M19.9727 0V20.325H36.6245C37.211 17.2232 37.0985 14.0436 36.287 10.9712C34.9275 5.821 30.3996 1.79918 24.6015 0.591544C23.0763 0.273241 21.5272 0.0765021 19.9727 0Z" fill="url(#paint1_linear_3_366)"/>
<path d="M35.9317 22.9465H19.9727V32.7866C21.5272 32.7101 23.0763 32.5134 24.6015 32.1951C29.968 31.0769 34.2461 27.549 35.9317 22.9465Z" fill="#FCA311"/>
<path d="M35.9317 22.9465H19.9727V32.7866C21.5272 32.7101 23.0763 32.5134 24.6015 32.1951C29.968 31.0769 34.2461 27.549 35.9317 22.9465Z" fill="url(#paint2_linear_3_366)"/>
<path d="M17.021 32.7866V12.4616H0.369076C-0.217431 15.5634 -0.104917 18.743 0.706636 21.8153C2.06616 26.9656 6.59405 30.9874 12.3921 32.195C13.9181 32.5133 15.4664 32.7101 17.021 32.7866Z" fill="#FCA311"/>
<path d="M17.021 32.7866V12.4616H0.369076C-0.217431 15.5634 -0.104917 18.743 0.706636 21.8153C2.06616 26.9656 6.59405 30.9874 12.3921 32.195C13.9181 32.5133 15.4664 32.7101 17.021 32.7866Z" fill="url(#paint3_linear_3_366)"/>
<defs>
<linearGradient id="paint0_linear_3_366" x1="-0.000143934" y1="-0.151638" x2="18.5197" y2="40.9573" gradientUnits="userSpaceOnUse">
<stop stop-color="#09C6F9"/>
<stop offset="1" stop-color="#045DE9"/>
</linearGradient>
<linearGradient id="paint1_linear_3_366" x1="-0.000199268" y1="-0.151637" x2="18.5196" y2="40.9573" gradientUnits="userSpaceOnUse">
<stop stop-color="#09C6F9"/>
<stop offset="1" stop-color="#045DE9"/>
</linearGradient>
<linearGradient id="paint2_linear_3_366" x1="-0.000207289" y1="-0.151643" x2="18.5196" y2="40.9573" gradientUnits="userSpaceOnUse">
<stop stop-color="#09C6F9"/>
<stop offset="1" stop-color="#045DE9"/>
</linearGradient>
<linearGradient id="paint3_linear_3_366" x1="-9.61089e-05" y1="-0.151665" x2="18.5197" y2="40.9573" gradientUnits="userSpaceOnUse">
<stop stop-color="#09C6F9"/>
<stop offset="1" stop-color="#045DE9"/>
</linearGradient>
</defs>
</svg>
