<svg width="419" height="248" viewBox="0 0 419 248" fill="none" xmlns="http://www.w3.org/2000/svg">
<path d="M372.328 89.5338C360.867 102.987 341.6 110.98 321.469 110.98C288.76 110.98 259.674 88.8508 259.674 59.8934C259.674 36.0063 274.417 18.8753 294.71 10.9894C300.29 8.83097 306.186 7.37539 312.22 6.66501C315.288 6.29889 318.378 6.11583 321.469 6.11652C329.376 6.11652 337.207 7.49833 344.513 10.1827C366.162 18.1116 381.915 36.7959 383.01 58.5485C383.618 70.5975 379.495 81.1309 372.328 89.5338Z" fill="#657285"/>
<path d="M287.404 63.1509C287.404 63.1509 289.716 67.8838 287.404 70.4835C285.099 73.0839 284.891 78.0019 289.508 81.2498C294.116 84.497 296.105 84.7771 295.057 88.025C294.009 91.2729 292.914 95.2415 294.641 96.9115C296.367 98.5823 297.076 102.551 300.929 102.842C304.783 103.135 300.621 100.127 303.134 97.3412C305.654 94.5564 315.396 94.001 314.455 88.5018C313.515 83.0025 322.478 82.5141 323.735 78.8939C324.999 75.2737 319.65 73.0484 315.164 73.3257C310.671 73.6037 313.43 67.409 308.559 66.5026C303.681 65.5969 301.4 62.1188 298.571 62.5361C295.743 62.9535 292.598 59.4023 289.369 60.5177C286.147 61.6325 287.404 63.1509 287.404 63.1509Z" fill="#B8C1C9"/>
<path d="M279.226 25.281C279.226 25.281 275.874 27.6007 274.941 31.3137C274.009 35.0261 269.277 37.3465 268.544 42.4639C267.812 47.5807 271.142 47.7064 269.963 50.4919C268.783 53.2767 270.248 54.6694 273.839 56.0622C277.431 57.4549 277.747 59.5942 279.866 60.2992C281.993 61.0041 281.438 62.8825 282.147 63.0915C282.856 63.3005 282.54 61.668 283.28 59.5328C284.013 57.3975 284.637 56.515 281.97 56.6079C279.296 56.7001 280.128 54.7978 281.176 53.5922C282.224 52.3873 279.712 52.2002 278.872 52.3853C278.032 52.5697 278.248 56.0055 276.514 54.3798C274.779 52.7548 273.947 50.8996 275.357 48.7644C276.776 46.6299 279.812 48.3949 281.97 45.8416C284.12 43.2891 287.157 44.3095 287.327 46.3519C287.496 48.3949 291.781 48.44 292.513 45.7494C293.253 43.0589 292.937 38.369 297.338 37.6054C301.746 36.841 310.401 32.9408 304.891 31.3397C299.388 29.7386 301.585 26.3958 298.756 26.5952C295.928 26.794 297.03 30.5637 293.878 29.4415C290.733 28.3199 288.452 25.335 292.86 24.5003C297.269 23.6649 299.072 19.35 295.689 19.6274C292.305 19.9047 291.758 16.9819 289.716 17.3309C287.666 17.68 285.546 22.0754 283.427 23.1765C281.3 24.2769 279.226 25.281 279.226 25.281Z" fill="#B8C1C9"/>
<path d="M307.588 16.695C307.588 16.695 311.943 15.6274 313.831 16.695C315.719 17.7626 318.656 20.7783 316.189 21.8931C313.723 23.0078 311.149 23.378 312.359 25.4654C313.561 27.5535 308.899 28.2509 307.588 25.4654C306.278 22.6806 306.278 21.6697 304.914 20.3603C303.542 19.0509 304.128 16.2777 307.588 16.695Z" fill="#B8C1C9"/>
<path d="M372.328 89.5339C354.332 85.3536 369.26 78.7942 362.948 71.2451C359.357 66.9466 365.754 61.7698 361.661 61.058C359.287 60.6455 353.823 66.0143 350.679 61.058C347.526 56.1025 341.9 56.0765 340.259 59.0751C338.625 62.0737 331.719 64.1516 327.188 61.9767C322.663 59.8012 325.284 56.8996 321.361 54.6223C317.446 52.3443 317.153 48.7193 321.361 45.9229C325.577 43.1258 323.642 39.0855 329.962 40.3287C336.282 41.5719 335.056 28.6758 335.056 28.6758C334.956 26.4197 337.422 26.0331 336.02 23.9306C334.617 21.8289 330.663 23.542 328.559 18.8801C326.455 14.2183 331.896 11.4212 336.282 11.8768C337.561 12.0099 340.667 11.2176 344.521 10.1807C366.177 18.1089 381.931 36.7939 383.025 58.5458C383.619 70.5976 379.495 81.1309 372.328 89.5339Z" fill="#B8C1C9"/>
<path d="M288.691 52.4986C288.691 52.4986 292.321 50.7077 294.247 52.1312C296.182 53.5546 297.014 54.5034 299.858 53.9645C302.71 53.4262 304.644 54.4392 302.81 55.1844C300.976 55.9289 296.644 57.2199 294.671 55.6728C292.691 54.1264 286.987 53.1229 288.691 52.4986Z" fill="#B8C1C9"/>
<path d="M303.311 58.28C303.311 58.28 305.885 58.6858 306.486 57.7486C307.08 56.8115 305.885 57.7083 304.899 57.2199C303.912 56.7309 302.024 57.2199 303.311 58.28Z" fill="#B8C1C9"/>
<path d="M210.518 247.412C322.517 247.412 413.314 239.322 413.314 229.342C413.314 219.362 322.517 211.272 210.518 211.272C98.5176 211.272 7.72229 219.362 7.72229 229.342C7.72229 239.322 98.5176 247.412 210.518 247.412Z" fill="#EAEAEA"/>
<g opacity="0.6">
<path d="M311.519 145.178C334.717 124.185 367.272 99.3911 381.437 110.506C398.509 123.907 357.052 140.767 325.877 158.033C314.694 164.228 296.729 158.558 311.519 145.178Z" fill="#D5D6DA"/>
</g>
<path d="M282.849 153.906C282.849 153.906 401.268 113.338 416.898 145.764C432.527 178.189 328.336 155.431 294.432 168.325L282.849 153.906Z" fill="#B8C1C9"/>
<path d="M289.253 162.012C312.475 152.731 341.122 149.794 361.068 148.964C382.686 148.065 399.002 149.382 399.164 149.393L399.256 148.497C399.102 148.482 382.709 147.161 361.021 148.062C340.991 148.895 312.205 151.858 288.829 161.188L289.253 162.012Z" fill="white"/>
<path d="M364.22 220.704C349.361 214.816 337.222 233.387 325.253 220.69C315.141 209.945 314.941 208.259 308.043 208.626C305.677 208.762 303.35 209.195 301.122 209.912C298.448 210.757 293.932 211.62 289.693 209.76C263.805 198.399 257.377 147.977 295.041 147.002C297.762 146.931 300.668 148.107 303.758 149.533C320.59 157.274 320.205 166.474 345.183 158.46C370.162 150.447 367.549 183.548 378.339 189.344C389.121 195.14 400.289 198.269 400.289 212.894C400.289 227.52 379.079 226.602 364.22 220.704Z" fill="#D5D6DA"/>
<g opacity="0.5">
<path d="M284.213 173.596L284.251 172.647C284.722 172.664 332.22 174.868 399.865 216.773L399.248 217.549C331.866 175.802 284.675 173.612 284.213 173.596Z" fill="white"/>
<path d="M344.459 177.793C341.492 165.096 344.551 158.544 344.69 158.27L345.669 158.643C345.646 158.707 342.617 165.229 345.507 177.601L344.459 177.793Z" fill="white"/>
<path d="M339.133 187.021C339.866 181.565 344.698 176.184 353.114 171.44C357.075 169.228 361.283 167.366 365.653 165.881L366.016 166.773C365.777 166.849 341.877 174.602 340.197 187.136L339.133 187.021Z" fill="white"/>
<path d="M357.738 197.083C357.337 195.631 357.199 194.76 357.183 194.71L358.255 194.579C358.285 194.763 361.391 213.084 379.341 224.038L378.732 224.816C364.258 215.997 359.233 202.499 357.738 197.083Z" fill="white"/>
<path d="M351.688 220.363C350.971 213.796 353.114 209.098 355.033 206.314C357.129 203.282 359.372 201.825 359.465 201.763L360.089 202.539C360.004 202.594 351.426 208.259 352.744 220.277L351.688 220.363Z" fill="white"/>
</g>
<path d="M83.6483 9.05161C83.6483 9.05161 87.3994 2.66505 96.8837 3.46422C106.367 4.26408 105.239 10.667 109.746 10.0666C114.254 9.46622 120.586 10.0666 121.942 14.0666C123.298 18.0666 129.394 15.8671 129.622 19.2667C129.85 22.6662 122.62 25.0699 114.262 22.0686C105.903 19.0672 101.841 24.3985 90.0953 23.4326C78.3498 22.4668 76.8946 21.2667 69.9436 21.8671C62.9927 22.4668 63.1584 18.2537 66.3206 15.4614C69.4828 12.6691 82.2919 12.9184 83.6483 9.05161Z" fill="#EAEAEA"/>
<g opacity="0.6">
<path d="M131.206 30.0678C131.206 30.0678 133.157 26.7468 138.093 27.1621C143.029 27.5774 142.442 30.91 144.792 30.5972C147.142 30.2837 150.42 30.5972 151.137 32.6798C151.856 34.7631 155.018 33.6293 155.136 35.3868C155.254 37.145 151.491 38.4045 147.142 36.8437C142.793 35.2823 140.676 38.0582 134.563 37.5555C128.451 37.0521 127.695 36.4284 124.078 36.7392C120.46 37.05 120.543 34.8581 122.202 33.4011C123.861 31.9449 130.501 32.0869 131.206 30.0678Z" fill="#EAEAEA"/>
</g>
<path d="M74.0493 51.5076C71.8813 53.7494 70.4292 53.806 69.4373 53.054C68.4462 52.302 68.2851 51.0233 70.4531 48.7835C74.4061 44.6989 78.1147 44.0862 78.1147 44.0862C78.1147 44.0862 78.0608 47.3601 74.0493 51.5076Z" fill="#D5D6DA"/>
<path d="M80.9547 69.6413C79.7193 72.3865 78.369 72.8537 77.1551 72.4268C75.9413 71.9999 75.3224 70.8346 76.5548 68.0921C78.8006 63.0935 82.0861 61.4494 82.0861 61.4494C82.0861 61.4494 83.2329 64.5696 80.9547 69.6413Z" fill="#D5D6DA"/>
<path d="M98.0089 117.115L97.3977 117.25C97.3738 117.167 94.943 108.762 87.1797 97.7353C80.0167 87.5598 66.7198 73.0053 44.0356 61.4378L44.3523 60.9631C67.1513 72.588 80.5285 87.2231 87.7215 97.4573C95.5488 108.558 98.0089 117.03 98.0089 117.115Z" fill="#D5D6DA"/>
<path d="M68.4832 76.9315L67.8697 76.799C73.2724 57.0724 58.5927 39.5978 58.4424 39.4223L58.9465 39.0855C59.096 39.2611 73.9583 56.9419 68.4832 76.9315Z" fill="#D5D6DA"/>
<path d="M56.1588 71.1098C52.3662 72.2191 48.3061 72.4069 44.4033 71.6529L44.5636 71.1146C44.636 71.131 51.8475 72.7751 58.6112 69.5538L58.911 70.0449C58.0278 70.465 57.1076 70.8216 56.1588 71.1098Z" fill="#D5D6DA"/>
<path d="M92.3813 105.509C79.6392 108.015 67.6416 105.746 56.7246 98.7858C56.4594 98.6055 56.1827 98.4382 55.8968 98.2852C55.9207 98.2899 55.9454 98.2899 55.9685 98.2852V97.7278C56.1565 97.7278 56.3122 97.8207 57.0999 98.3255C67.8666 105.206 79.6931 107.426 92.2502 104.968L92.3813 105.509Z" fill="#D5D6DA"/>
<path d="M72.8192 105.111L72.1895 105.148C71.613 97.5782 62.4378 88.9881 62.3438 88.9027L62.8023 88.5161C64.5387 90.1889 66.1348 91.9724 67.5776 93.8514C69.8072 96.7312 72.5194 101.04 72.8192 105.111Z" fill="#D5D6DA"/>
<path d="M42.5135 58.6243C46.6514 60.183 47.4683 61.5116 46.9566 62.5764C46.4449 63.642 44.8133 64.0402 40.6591 62.4815C33.1186 59.6352 30.4011 56.3395 30.4011 56.3395C30.4011 56.3395 34.8604 55.7445 42.5135 58.6243Z" fill="#D5D6DA"/>
<path d="M45.3381 69.4493C49.8159 69.8312 51.0459 70.8728 50.9203 72.0306C50.7939 73.1884 49.3635 74.0046 44.8849 73.6221C36.7278 72.9275 33.0114 70.5053 33.0114 70.5053C33.0114 70.5053 37.0607 68.7376 45.3381 69.4493Z" fill="#D5D6DA"/>
<path d="M63.4643 86.6418C65.8759 88.6821 65.8574 89.9635 64.9541 90.8057C64.0508 91.6472 62.6011 91.7114 60.1896 89.6711C55.7996 85.9512 55.3126 82.6398 55.3126 82.6398C55.3126 82.6398 59.0073 82.8672 63.4643 86.6418Z" fill="#D5D6DA"/>
<path d="M58.9888 60.8189C60.7653 63.3169 60.3953 64.56 59.2886 65.1768C58.1818 65.7936 56.7591 65.5518 54.9796 63.0416C51.7426 58.489 52.1819 55.1721 52.1819 55.1721C52.1819 55.1721 55.7033 56.1994 58.9888 60.8189Z" fill="#D5D6DA"/>
<path d="M79.6337 99.9033C80.5478 102.75 79.8002 103.847 78.5401 104.174C77.2807 104.501 75.9921 103.903 75.0812 101.061C73.4195 95.887 74.8931 92.8125 74.8931 92.8125C74.8931 92.8125 77.9482 94.6534 79.6337 99.9033Z" fill="#D5D6DA"/>
<path d="M59.2355 97.4956C62.084 99.0331 62.3815 100.29 61.7009 101.28C61.0204 102.269 59.6216 102.613 56.7731 101.075C51.5824 98.2736 50.3068 95.1445 50.3068 95.1445C50.3068 95.1445 53.9723 94.6561 59.2355 97.4956Z" fill="#D5D6DA"/>
<path d="M59.3719 36.561C61.7842 39.9202 61.6123 41.4243 60.511 42.0459C59.4096 42.6675 57.7935 42.1716 55.3796 38.8123C50.9766 32.6921 50.8448 28.6116 50.8448 28.6116C50.8448 28.6116 54.908 30.3527 59.3719 36.561Z" fill="#D5D6DA"/>
<path d="M146.512 190.125C146.512 190.125 82.2356 96.3494 54.1496 112.745C26.0628 129.14 112.944 167.134 130.678 194.957L146.512 190.125Z" fill="#D5D6DA"/>
<path d="M116.601 173.397C116.601 173.397 42.6236 103.929 17.2412 123.703C-8.14197 143.477 81.1266 159.82 101.761 180.69L116.601 173.397Z" fill="#EAEAEA"/>
<path d="M108.339 177.541C94.375 162.899 73.6368 151.363 58.6967 144.262C42.5003 136.566 29.45 132.286 29.319 132.243L29.6188 131.531C29.7498 131.574 42.8564 135.873 59.0959 143.596C74.1031 150.727 94.9407 162.318 108.991 177.045L108.339 177.541Z" fill="white"/>
<path d="M28.1961 200.366C44.8448 203.232 42.6206 225.494 61.4088 221.02C80.1963 216.545 78.6071 215.495 87.8633 222.588C87.8633 222.588 91.5696 229.541 99.1187 230.568C128.863 234.618 168.463 195.056 137.032 174.253C134.762 172.752 131.498 172.218 127.888 171.786C108.305 169.454 102.412 177.501 86.55 157.426C70.6889 137.351 50.5103 166.937 37.3983 166.154C24.2863 165.371 12.664 162.121 2.75968 174.583C-7.14466 187.045 11.5434 197.512 28.1961 200.366Z" fill="#B8C1C9"/>
<path d="M128.253 202.66L128.856 201.829C128.443 201.592 86.4722 178.277 0.481506 178.106V179.095C86.1485 179.264 127.84 202.425 128.253 202.66Z" fill="white"/>
<path d="M74.0731 174.282C85.1913 165.03 87.0163 157.827 87.0888 157.526L85.9951 157.32C85.9797 157.391 84.1439 164.552 73.307 173.561L74.0731 174.282Z" fill="white"/>
<path d="M72.3637 184.97C75.4295 179.94 74.9578 172.785 70.9972 164.278C69.1159 160.289 66.7953 156.475 64.0693 152.89L63.1583 153.457C63.3109 153.649 78.433 172.937 71.3825 184.502L72.3637 184.97Z" fill="white"/>
<path d="M49.7034 183.679C51.0275 182.654 51.7427 181.989 51.7751 181.959L50.9712 181.285C50.8209 181.425 35.7744 195.381 13.0687 195.204V196.191C31.3444 196.335 44.7647 187.498 49.7034 183.679Z" fill="white"/>
<path d="M39.1054 206.719C44.1589 201.5 45.5154 196.368 45.762 192.976C46.0295 189.282 45.1 186.848 45.0622 186.746L44.0064 187.069C44.041 187.161 47.5146 196.534 38.2584 206.076L39.1054 206.719Z" fill="white"/>
<path d="M250.772 202.824V172.505H181.693V202.824C181.693 210.702 175.77 217.089 168.465 217.089H165.681V221.003H266.787V217.089H264.005C256.699 217.089 250.772 210.702 250.772 202.824Z" fill="#00A3FE"/>
<path d="M266.217 221.003H166.246C165.66 221.003 165.098 220.797 164.683 220.43C164.269 220.063 164.035 219.565 164.035 219.046C164.035 218.527 164.269 218.029 164.683 217.662C165.098 217.295 165.66 217.089 166.246 217.089H266.217C266.81 217.089 267.365 217.295 267.781 217.662C268.198 218.029 268.429 218.527 268.429 219.046C268.429 219.565 268.198 220.063 267.781 220.43C267.365 220.797 266.81 221.003 266.217 221.003Z" fill="#016EB9"/>
<path d="M333.9 191.118L100.3 188.746C97.8971 188.721 95.602 187.858 93.9126 186.345C92.2232 184.832 91.2752 182.791 91.2745 180.664V54.4392C91.2752 52.317 92.2178 50.2808 93.9003 48.7685C95.5819 47.2569 97.8686 46.3915 100.266 46.3594L330.856 43.2323C333.268 43.1996 335.596 44.0144 337.338 45.4987C339.072 46.9823 340.074 49.0151 340.12 51.151L343.133 182.872C343.156 183.955 342.941 185.031 342.486 186.036C342.031 187.042 341.353 187.957 340.49 188.726C339.627 189.495 338.602 190.103 337.469 190.514C336.343 190.925 335.126 191.131 333.9 191.118Z" fill="#016EB9"/>
<path d="M325.993 55.9481H105.223C102.519 55.9481 100.327 57.8886 100.327 60.2827V161.751C100.327 164.145 102.519 166.085 105.223 166.085H325.993C328.69 166.085 330.887 164.145 330.887 161.751V60.2827C330.887 57.8886 328.69 55.9481 325.993 55.9481Z" fill="#EAEAEA"/>
<path d="M239.689 21.5276L242.587 21.4586C242.857 21.4525 243.111 21.4006 243.358 21.3056C243.597 21.21 243.812 21.0741 243.997 20.904C244.175 20.7346 244.321 20.5351 244.414 20.3166C244.506 20.0987 244.552 19.8657 244.545 19.6321L244.452 16.5051C244.437 16.0338 244.213 15.5864 243.828 15.2613C243.435 14.9368 242.918 14.7613 242.387 14.7736L240.337 14.8234C239.905 14.833 239.481 14.7196 239.127 14.4997C238.772 14.2804 238.51 13.9662 238.371 13.6042C238.317 13.4614 238.263 13.3193 238.202 13.1793C238.063 12.8426 238.048 12.4771 238.148 12.1302C238.248 11.7838 238.472 11.4731 238.772 11.2388L240.175 10.152C240.576 9.84055 240.822 9.40135 240.861 8.92936C240.892 8.45805 240.714 7.99357 240.367 7.6377L238.04 5.28663C237.863 5.1104 237.655 4.96628 237.416 4.86246C237.177 4.75863 236.922 4.69715 236.66 4.68144C236.398 4.66573 236.129 4.69647 235.882 4.77161C235.635 4.84606 235.404 4.96423 235.204 5.11791L233.793 6.20465C233.493 6.44099 233.115 6.5899 232.714 6.63225C232.314 6.6746 231.905 6.60834 231.551 6.44167C231.404 6.37269 231.25 6.30438 231.096 6.24017C230.71 6.07351 230.395 5.80029 230.194 5.46081C229.994 5.12133 229.924 4.73404 229.994 4.35631L230.317 2.56056C230.402 2.09472 230.279 1.61794 229.963 1.23543C229.647 0.852922 229.177 0.595413 228.653 0.520277L225.169 0.0223277C224.645 -0.0521253 224.106 0.0612656 223.674 0.337903C223.242 0.61454 222.95 1.03188 222.865 1.49773L222.402 4.03869C222.341 4.37202 222.171 4.68281 221.917 4.93486C221.662 5.1869 221.331 5.36928 220.961 5.46218C220.321 5.62406 219.697 5.82625 219.088 6.06668C218.695 6.22583 218.248 6.26886 217.824 6.18894C217.4 6.10903 217.023 5.91094 216.73 5.62338L215.227 4.10016C215.05 3.92394 214.842 3.77981 214.603 3.67599C214.372 3.57217 214.109 3.51069 213.847 3.49498C213.585 3.47927 213.323 3.51001 213.069 3.58514C212.822 3.65959 212.591 3.77777 212.391 3.93214L209.732 5.99086C209.331 6.30233 209.085 6.74153 209.054 7.21284C209.015 7.68415 209.192 8.14794 209.547 8.50313L211.566 10.553C211.828 10.8078 211.99 11.122 212.052 11.458C212.113 11.7948 212.059 12.139 211.905 12.4512C211.828 12.6028 211.759 12.7572 211.689 12.9109C211.543 13.2333 211.289 13.5106 210.973 13.7087C210.649 13.9061 210.271 14.0161 209.878 14.0236L206.595 14.1001C206.063 14.1131 205.562 14.3125 205.192 14.6561C204.822 14.999 204.63 15.4566 204.645 15.9286L204.738 19.0556C204.753 19.5276 204.977 19.9743 205.362 20.2995C205.747 20.6239 206.264 20.7995 206.796 20.7872L209.616 20.7209C210.04 20.7114 210.449 20.8193 210.803 21.029C211.15 21.2387 211.412 21.5406 211.558 21.8903V21.9142C211.697 22.2516 211.72 22.6184 211.62 22.9668C211.52 23.3152 211.304 23.628 210.996 23.8643L209.007 25.4067C208.807 25.5604 208.645 25.7482 208.53 25.9579C208.406 26.1676 208.337 26.3957 208.322 26.6293C208.306 26.8629 208.337 27.0972 208.422 27.3185C208.506 27.5405 208.645 27.7455 208.815 27.921L211.142 30.2748C211.32 30.4504 211.528 30.5945 211.767 30.6983C212.005 30.8014 212.26 30.8629 212.53 30.8786C212.792 30.8937 213.054 30.8629 213.3 30.7878C213.555 30.7126 213.786 30.5945 213.986 30.4408L215.975 28.8985C216.275 28.6608 216.653 28.5112 217.061 28.4688C217.462 28.4265 217.871 28.4934 218.233 28.6614L218.256 28.6758C218.634 28.8486 218.934 29.1204 219.119 29.4538C219.312 29.7871 219.381 30.1648 219.312 30.533L218.865 32.9934C218.826 33.2242 218.834 33.4606 218.896 33.688C218.957 33.9162 219.065 34.1313 219.219 34.3205C219.373 34.5104 219.574 34.6716 219.797 34.7939C220.021 34.9168 220.275 34.9988 220.529 35.0357L224.013 35.5316C224.545 35.606 225.084 35.4927 225.516 35.216C225.948 34.9394 226.233 34.522 226.325 34.0562L226.842 31.1901C226.903 30.8479 227.073 30.5282 227.343 30.2721C227.605 30.0152 227.944 29.8336 228.329 29.7482C228.506 29.7079 228.691 29.6648 228.861 29.6177C229.231 29.5234 229.624 29.5255 229.986 29.6218C230.356 29.7188 230.68 29.9066 230.934 30.1628L232.961 32.2126C233.131 32.3889 233.346 32.533 233.577 32.6361C233.816 32.74 234.079 32.8014 234.341 32.8165C234.603 32.8322 234.865 32.8014 235.119 32.7263C235.366 32.6512 235.597 32.533 235.797 32.3786L238.456 30.3199C238.656 30.1655 238.818 29.9784 238.934 29.7687C239.057 29.559 239.119 29.3315 239.142 29.0979C239.157 28.8643 239.127 28.6307 239.034 28.4087C238.949 28.1874 238.818 27.9832 238.649 27.8069L237.138 26.2817C236.853 25.9927 236.684 25.63 236.653 25.2475C236.614 24.865 236.722 24.4839 236.953 24.1587C237.3 23.6601 237.608 23.141 237.87 22.6048C238.025 22.2899 238.279 22.0208 238.603 21.8295C238.926 21.639 239.304 21.5338 239.689 21.5276ZM230.102 22.9866C227.019 25.38 220.707 24.6997 218.002 21.9668C215.304 19.2332 216.383 14.6124 219.466 12.2401C222.556 9.86719 227.82 11.1295 230.518 13.8624C233.223 16.5953 233.192 20.5932 230.102 22.9846V22.9866Z" fill="#00A3FE"/>
<path d="M224.668 37.5172C224.56 37.5179 224.445 37.5097 224.337 37.4933L220.853 36.9974C220.583 36.9605 220.329 36.8758 220.098 36.7501C219.867 36.6238 219.659 36.4585 219.504 36.2631C219.343 36.0678 219.227 35.8465 219.165 35.6115C219.104 35.3772 219.096 35.134 219.135 34.8957L219.582 32.436C219.651 32.0781 219.589 31.7113 219.404 31.3875C219.219 31.0637 218.926 30.7987 218.564 30.63H218.533C218.187 30.4695 217.794 30.4059 217.4 30.4483C217.007 30.4906 216.637 30.6368 216.345 30.8677L214.356 32.4093C214.148 32.5685 213.917 32.6901 213.655 32.7673C213.4 32.8444 213.123 32.8759 212.853 32.8602C212.584 32.8444 212.314 32.7816 212.075 32.6751C211.828 32.5678 211.612 32.4203 211.435 32.2386L209.108 29.8827C208.923 29.7017 208.784 29.4913 208.699 29.2632C208.614 29.0344 208.576 28.7933 208.591 28.5528C208.614 28.3124 208.684 28.0774 208.807 27.8616C208.923 27.6457 209.092 27.4531 209.3 27.2946L211.289 25.753C211.582 25.5207 211.797 25.2154 211.89 24.8773C211.982 24.5385 211.967 24.1819 211.828 23.8548V23.8309C211.69 23.4921 211.435 23.1997 211.096 22.9962C210.757 22.7926 210.356 22.6881 209.948 22.697L207.135 22.7632C206.587 22.7755 206.056 22.5945 205.655 22.2592C205.254 21.9245 205.023 21.4634 205.008 20.9771L204.915 17.85C204.9 17.3644 205.108 16.8938 205.485 16.5413C205.863 16.1882 206.379 15.9826 206.934 15.9689L210.21 15.891C210.587 15.8842 210.957 15.7783 211.266 15.5864C211.582 15.3951 211.821 15.126 211.967 14.8139C212.036 14.6574 212.106 14.5031 212.183 14.3514C212.329 14.0495 212.383 13.7169 212.322 13.3924C212.268 13.0673 212.106 12.764 211.859 12.5174L209.832 10.4676C209.47 10.1015 209.285 9.62333 209.323 9.13836C209.362 8.65271 209.616 8.19985 210.025 7.87949L212.684 5.82009C212.884 5.66093 213.123 5.53935 213.385 5.46216C213.639 5.38498 213.909 5.35356 214.187 5.36927C214.456 5.38566 214.718 5.44919 214.965 5.55574C215.212 5.66298 215.427 5.81189 215.605 5.99358L217.108 7.51611C217.385 7.79616 217.763 7.98946 218.171 8.06665C218.587 8.14452 219.011 8.10149 219.397 7.94575C220.005 7.70532 220.63 7.50177 221.269 7.33852C221.632 7.24767 221.948 7.06939 222.194 6.82417C222.449 6.57896 222.61 6.27705 222.672 5.95328L223.135 3.41232C223.219 2.93213 223.52 2.50249 223.967 2.21766C224.406 1.93282 224.961 1.8167 225.508 1.89389L228.992 2.38979C229.531 2.46765 230.017 2.73336 230.341 3.12749C230.664 3.52229 230.795 4.01341 230.711 4.49428L230.379 6.28729C230.31 6.65409 230.379 7.03046 230.572 7.36037C230.765 7.69029 231.073 7.95531 231.45 8.11651C231.605 8.18072 231.759 8.24971 231.905 8.31801C232.252 8.47785 232.645 8.54069 233.038 8.49834C233.423 8.45599 233.793 8.3105 234.086 8.08099L235.489 6.99425C235.905 6.67458 236.445 6.51338 236.992 6.54549C237.539 6.57827 238.048 6.80164 238.41 7.16775L240.737 9.51882C240.915 9.69983 241.053 9.91021 241.146 10.1384C241.231 10.3665 241.269 10.6076 241.246 10.848C241.231 11.0885 241.161 11.3235 241.038 11.5393C240.915 11.7551 240.753 11.9484 240.545 12.1069L239.142 13.1957C238.849 13.4232 238.633 13.7251 238.533 14.0605C238.441 14.3965 238.456 14.751 238.587 15.0768C238.649 15.2196 238.703 15.3617 238.757 15.5037C238.888 15.8576 239.142 16.1643 239.489 16.3781C239.828 16.5918 240.244 16.7018 240.66 16.6902L242.718 16.6403C243.265 16.6281 243.797 16.8091 244.198 17.1438C244.591 17.4778 244.822 17.9388 244.838 18.4245L244.938 21.5515C244.953 22.0372 244.745 22.5078 244.367 22.8602C243.99 23.2134 243.473 23.419 242.926 23.4326L240.021 23.5037C239.643 23.5139 239.288 23.6177 238.98 23.8022C238.672 23.9873 238.425 24.2455 238.279 24.5474C238.009 25.0877 237.701 25.6102 237.354 26.1109C237.131 26.4258 237.023 26.796 237.061 27.1669C237.092 27.5378 237.254 27.8896 237.531 28.1703L239.042 29.6956C239.219 29.8766 239.358 30.0876 239.443 30.3158C239.527 30.5439 239.566 30.785 239.551 31.0248C239.527 31.2652 239.458 31.5002 239.342 31.716C239.219 31.9326 239.05 32.1252 238.849 32.2837L236.175 34.3383C235.974 34.4974 235.736 34.619 235.474 34.6962C235.219 34.7734 234.949 34.8048 234.672 34.7891C234.402 34.7727 234.14 34.7092 233.894 34.6026C233.647 34.4954 233.431 34.3465 233.254 34.1648L231.227 32.1156C230.988 31.8677 230.664 31.686 230.31 31.5924C229.955 31.4988 229.578 31.4968 229.215 31.5863C229.038 31.6341 228.853 31.6792 228.684 31.7195C228.314 31.8014 227.982 31.9776 227.728 32.2263C227.466 32.4749 227.304 32.7843 227.242 33.1163L226.726 35.9824C226.641 36.4127 226.395 36.8034 226.017 37.0848C225.639 37.3656 225.161 37.5193 224.668 37.5172ZM217.632 30.3055C217.963 30.3048 218.294 30.3766 218.587 30.5139L218.618 30.5262C218.996 30.7065 219.304 30.9879 219.497 31.3322C219.689 31.6757 219.759 32.0644 219.689 32.4428L219.242 34.9032C219.158 35.354 219.281 35.8157 219.582 36.1873C219.882 36.5582 220.337 36.8089 220.846 36.884L224.329 37.3772C224.838 37.4496 225.362 37.341 225.778 37.0739C226.202 36.8075 226.479 36.4045 226.564 35.9537L227.088 33.0883C227.15 32.7345 227.327 32.4059 227.597 32.1416C227.867 31.8772 228.221 31.6901 228.614 31.6027C228.792 31.5624 228.976 31.52 229.154 31.4722C229.531 31.3752 229.94 31.3766 230.317 31.4763C230.695 31.5753 231.034 31.7693 231.296 32.035L233.323 34.0842C233.493 34.2549 233.693 34.395 233.924 34.4954C234.156 34.5958 234.402 34.6552 234.657 34.6702C234.919 34.6853 235.173 34.6559 235.412 34.5828C235.658 34.5097 235.882 34.3957 236.075 34.2461L238.734 32.1867C239.119 31.8854 239.358 31.4592 239.396 31.0022C239.427 30.5453 239.258 30.0951 238.919 29.7502L237.408 28.225C237.115 27.9271 236.938 27.5535 236.899 27.1594C236.868 26.7653 236.976 26.3718 237.215 26.0371C237.562 25.5405 237.87 25.0228 238.132 24.488C238.294 24.1676 238.549 23.8937 238.872 23.697C239.204 23.5009 239.589 23.391 239.982 23.38L242.88 23.309C243.396 23.296 243.89 23.102 244.244 22.7701C244.599 22.4381 244.791 21.9948 244.776 21.5372L244.683 18.4129C244.668 17.9545 244.452 17.5201 244.075 17.2052C243.705 16.8897 243.204 16.7189 242.687 16.7305L240.63 16.7804C240.183 16.7913 239.751 16.6752 239.381 16.4491C239.019 16.223 238.749 15.8992 238.61 15.5256C238.556 15.3828 238.502 15.2428 238.441 15.1035C238.302 14.7565 238.279 14.3801 238.387 14.0229C238.487 13.6656 238.71 13.3453 239.026 13.1035L240.429 12.0168C240.622 11.8672 240.784 11.6855 240.892 11.4819C241.007 11.2784 241.077 11.0571 241.092 10.831C241.107 10.6042 241.076 10.3767 240.992 10.1623C240.915 9.9471 240.784 9.74833 240.614 9.57825L238.287 7.22445C237.948 6.88155 237.462 6.67185 236.946 6.64111C236.429 6.61106 235.921 6.7627 235.535 7.06324L234.133 8.14998C233.817 8.39315 233.431 8.54684 233.015 8.59124C232.606 8.63564 232.183 8.56869 231.813 8.39861C231.666 8.33031 231.52 8.26132 231.366 8.19711C230.965 8.02635 230.633 7.74493 230.433 7.39521C230.225 7.04549 230.156 6.6459 230.225 6.25656L230.556 4.46285C230.634 4.01204 230.51 3.54961 230.21 3.17871C229.909 2.80713 229.454 2.55645 228.946 2.482L225.462 1.98405C224.953 1.91233 224.429 2.02093 224.013 2.28801C223.597 2.5544 223.312 2.95672 223.227 3.40753L222.765 5.9485C222.695 6.29276 222.526 6.61379 222.264 6.87472C222.002 7.13497 221.655 7.32485 221.277 7.42116C220.645 7.58305 220.021 7.78455 219.42 8.0243C219.011 8.18823 218.557 8.23263 218.125 8.1493C217.686 8.06665 217.293 7.86105 216.992 7.56392L215.489 6.04071C215.32 5.86995 215.119 5.7306 214.888 5.62951C214.657 5.5291 214.41 5.46968 214.148 5.45465C213.894 5.43962 213.639 5.46968 213.401 5.54208C213.154 5.61517 212.93 5.72992 212.738 5.87951L210.079 7.93892C209.693 8.24015 209.454 8.66637 209.424 9.12334C209.385 9.57962 209.555 10.0297 209.894 10.3754L211.921 12.4245C212.183 12.6868 212.352 13.0085 212.414 13.3535C212.476 13.6984 212.429 14.0523 212.268 14.3726C212.198 14.5222 212.121 14.6759 212.052 14.8303C211.905 15.1643 211.643 15.4512 211.312 15.6547C210.973 15.8589 210.58 15.971 210.179 15.9764L206.896 16.0543C206.641 16.0604 206.387 16.111 206.156 16.2032C205.925 16.2954 205.709 16.4272 205.532 16.5919C205.362 16.7565 205.223 16.9505 205.131 17.1622C205.038 17.374 204.992 17.6 205 17.8268L205.092 20.9531C205.108 21.4115 205.331 21.8459 205.701 22.1608C206.079 22.4764 206.58 22.6471 207.096 22.6355L209.917 22.5693C210.349 22.5583 210.772 22.669 211.135 22.8848C211.489 23.1007 211.767 23.4108 211.913 23.7721V23.7906C212.059 24.1389 212.083 24.518 211.975 24.8773C211.874 25.2366 211.651 25.5604 211.335 25.8049L209.339 27.3472C209.146 27.4961 208.992 27.6778 208.876 27.8814C208.761 28.0849 208.699 28.3062 208.684 28.533C208.661 28.7591 208.699 28.9866 208.776 29.2017C208.861 29.4169 208.992 29.615 209.162 29.7857L211.489 32.1389C211.659 32.3103 211.859 32.4496 212.09 32.5501C212.322 32.6511 212.576 32.7106 212.83 32.7256C213.085 32.7406 213.339 32.7106 213.585 32.6375C213.824 32.5644 214.048 32.4503 214.241 32.3007L216.229 30.7584C216.614 30.4599 217.115 30.298 217.632 30.3055Z" fill="#131F2D"/>
<g opacity="0.6">
<path d="M309.577 69.0081H121.382C118.691 69.0081 116.51 70.9391 116.51 73.3209V101.657C116.51 104.039 118.691 105.97 121.382 105.97H309.577C312.267 105.97 314.448 104.039 314.448 101.657V73.3209C314.448 70.9391 312.267 69.0081 309.577 69.0081Z" fill="#D5D6DA"/>
</g>
<g opacity="0.6">
<path d="M311.488 117.25H220.614C220.429 117.25 220.244 117.218 220.075 117.155C219.905 117.092 219.751 117 219.62 116.885C219.489 116.769 219.381 116.631 219.312 116.48C219.242 116.328 219.204 116.166 219.204 116.002V115.267C219.204 115.102 219.242 114.939 219.312 114.787C219.389 114.635 219.489 114.497 219.62 114.381C219.759 114.265 219.913 114.173 220.082 114.111C220.26 114.049 220.437 114.018 220.63 114.019L311.504 114.761C311.874 114.765 312.228 114.897 312.49 115.13C312.752 115.364 312.899 115.678 312.899 116.007C312.899 116.337 312.752 116.653 312.482 116.886C312.22 117.119 311.866 117.25 311.488 117.25Z" fill="#D5D6DA"/>
</g>
<path d="M304.69 86.0366H243.712V83.9895L304.69 84.4683V86.0366Z" fill="#657285"/>
<path d="M270.949 90.6439H243.712V88.5967L270.949 89.0783V90.6439Z" fill="#00A3FE"/>
<path d="M279.789 100.613H243.712V98.5632L279.789 99.0447V100.613Z" fill="#00A3FE"/>
<path d="M270.949 95.9915H243.712V93.9437L270.949 94.4252V95.9915Z" fill="#5C305D"/>
<path d="M290.81 95.9915H274.849V93.9437L290.81 94.4252V95.9915Z" fill="#657285"/>
<path d="M302.078 90.6439H274.849V88.5967L302.078 89.0783V90.6439Z" fill="#00A3FE"/>
<g opacity="0.6">
<path d="M311.627 124.422L220.514 125.371C220.344 125.372 220.175 125.344 220.013 125.288C219.859 125.232 219.713 125.148 219.597 125.042C219.474 124.935 219.373 124.809 219.312 124.67C219.242 124.53 219.212 124.381 219.212 124.23V123.281C219.212 122.979 219.35 122.689 219.589 122.476C219.828 122.262 220.16 122.142 220.499 122.142H311.611C311.951 122.142 312.282 122.262 312.521 122.476C312.76 122.689 312.899 122.978 312.899 123.281C312.899 123.581 312.768 123.869 312.529 124.083C312.29 124.296 311.966 124.418 311.627 124.422Z" fill="#D5D6DA"/>
</g>
<g opacity="0.6">
<path d="M167.056 149.481H117.191V146.852L166.244 147.45C166.655 147.455 167.047 147.604 167.335 147.863C167.624 148.122 167.785 148.472 167.785 148.836C167.785 149.007 167.708 149.171 167.571 149.292C167.434 149.413 167.249 149.481 167.056 149.481Z" fill="#D5D6DA"/>
</g>
<g opacity="0.6">
<path d="M182.642 155.903L118.011 156.667C117.904 156.669 117.798 156.652 117.698 156.617C117.599 156.582 117.509 156.53 117.431 156.464C117.355 156.397 117.295 156.318 117.253 156.231C117.212 156.144 117.191 156.05 117.191 155.955V154.793C117.191 154.604 117.276 154.423 117.426 154.289C117.577 154.156 117.781 154.081 117.995 154.081H182.625C182.838 154.081 183.043 154.156 183.193 154.289C183.344 154.423 183.429 154.604 183.429 154.793V155.191C183.429 155.378 183.347 155.557 183.2 155.69C183.052 155.823 182.852 155.899 182.642 155.903Z" fill="#D5D6DA"/>
</g>
<g opacity="0.6">
<path d="M234.14 155.91L188.925 156.66C188.787 156.662 188.65 156.64 188.521 156.595C188.393 156.549 188.276 156.482 188.178 156.396C188.08 156.311 188.001 156.208 187.948 156.095C187.894 155.983 187.867 155.862 187.867 155.74V154.992C187.867 154.748 187.976 154.514 188.171 154.341C188.366 154.169 188.631 154.072 188.907 154.072H234.14C234.418 154.072 234.68 154.169 234.872 154.342C235.065 154.515 235.181 154.749 235.181 154.992C235.181 155.236 235.065 155.469 234.872 155.641C234.68 155.813 234.418 155.91 234.14 155.91Z" fill="#D5D6DA"/>
</g>
<g opacity="0.6">
<path d="M311.627 134.805L220.514 135.755C220.344 135.756 220.175 135.728 220.013 135.671C219.859 135.615 219.713 135.531 219.597 135.426C219.474 135.319 219.373 135.193 219.312 135.053C219.242 134.914 219.212 134.764 219.212 134.613V133.665C219.212 133.363 219.35 133.073 219.589 132.859C219.828 132.646 220.16 132.526 220.499 132.526H311.611C311.951 132.526 312.282 132.646 312.521 132.859C312.76 133.072 312.899 133.362 312.899 133.665C312.899 133.965 312.768 134.253 312.529 134.467C312.29 134.68 311.966 134.802 311.627 134.805Z" fill="#D5D6DA"/>
</g>
<path d="M157.893 111.015H120.798C118.429 111.015 116.51 112.715 116.51 114.811V135.349C116.51 137.445 118.429 139.145 120.798 139.145H157.893C160.262 139.145 162.181 137.445 162.181 135.349V114.811C162.181 112.715 160.262 111.015 157.893 111.015Z" fill="#D5D6DA"/>
<g opacity="0.6">
<path d="M205.532 111.015H171.96C169.945 111.015 168.313 112.461 168.313 114.244V135.916C168.313 137.699 169.945 139.145 171.96 139.145H205.532C207.543 139.145 209.177 137.699 209.177 135.916V114.244C209.177 112.461 207.543 111.015 205.532 111.015Z" fill="#D5D6DA"/>
</g>
<path d="M159.156 154.774C158.912 166.486 157.957 182.519 154.951 196.577C149.943 220.036 119.104 236.129 113.414 238.921C113.137 239.057 112.827 239.134 112.51 239.145C112.194 239.155 111.878 239.1 111.59 238.983C63.3541 219.366 64.1071 189.555 64.1071 189.555V154.542C64.1071 154.069 64.3167 153.615 64.6913 153.278C65.0658 152.941 65.5753 152.749 66.1086 152.741C73.4542 152.634 99.0702 151.41 110.266 139.768C110.449 139.581 110.674 139.428 110.927 139.322C111.179 139.214 111.455 139.155 111.735 139.148C112.015 139.139 112.294 139.182 112.554 139.275C112.814 139.367 113.05 139.506 113.246 139.683C118.07 144.022 133.794 156.052 159.07 154.779L159.156 154.774Z" fill="#00A3FE"/>
<path d="M112.394 233.22C112.362 233.22 112.332 233.214 112.302 233.204C102.468 229.28 94.1176 224.545 87.4772 219.122C82.1632 214.783 77.9297 209.995 74.8823 204.887C69.7055 196.196 69.8126 189.508 69.8126 189.441V160.095C69.8064 159.294 70.1548 158.523 70.7829 157.947C71.411 157.37 72.2688 157.035 73.1729 157.011C76.7798 156.901 83.9211 156.479 91.1943 154.857C99.8709 152.921 106.268 149.875 110.221 145.809C110.405 145.616 110.632 145.46 110.889 145.35C111.146 145.24 111.425 145.18 111.71 145.171C111.994 145.163 112.278 145.207 112.542 145.301C112.806 145.395 113.045 145.537 113.243 145.719C115.923 148.157 123.129 154.083 132.358 156.42C138.094 157.838 143.998 158.658 149.948 158.866C150.831 158.899 151.663 159.236 152.268 159.806C152.872 160.376 153.201 161.133 153.182 161.914C152.797 175.598 151.676 186.625 149.753 195.626C148.643 200.814 146.001 206.021 141.874 211.098C138.58 215.153 134.349 219.136 129.295 222.936C124.1 226.846 118.473 230.281 112.498 233.19C112.467 233.208 112.431 233.218 112.394 233.22ZM111.78 145.569H111.727C111.502 145.576 111.282 145.624 111.079 145.71C110.877 145.795 110.697 145.917 110.55 146.067C106.552 150.2 100.081 153.286 91.3122 155.241C83.999 156.873 76.8253 157.298 73.1968 157.407C72.4091 157.428 71.6623 157.72 71.1143 158.223C70.5671 158.724 70.2619 159.395 70.265 160.093V189.453C70.265 189.524 70.161 196.129 75.2954 204.738C78.3096 209.794 82.5146 214.541 87.7939 218.846C94.3727 224.215 102.645 228.912 112.386 232.806C118.298 229.917 123.869 226.512 129.017 222.642C136.906 216.712 146.834 207.191 149.319 195.56C151.237 186.582 152.354 175.575 152.741 161.912C152.753 161.233 152.467 160.578 151.942 160.082C151.417 159.588 150.695 159.294 149.929 159.262C143.946 159.052 138.011 158.227 132.243 156.802C122.912 154.429 115.628 148.458 112.933 145.996C112.783 145.859 112.604 145.751 112.406 145.678C112.208 145.604 111.995 145.568 111.78 145.569Z" fill="#131F2D"/>
<path d="M122.735 203.905H92.2101C90.8513 203.904 89.5489 203.426 88.5886 202.575C87.6275 201.725 87.0872 200.572 87.0864 199.37V182.696C87.0872 181.493 87.6267 180.34 88.5878 179.489C89.5481 178.638 90.8506 178.159 92.2101 178.158H93.9303C94.6663 175.47 96.402 173.079 98.8582 171.369C101.314 169.659 104.348 168.729 107.472 168.729C110.597 168.729 113.631 169.659 116.087 171.369C118.543 173.079 120.278 175.47 121.014 178.158H122.735C124.094 178.159 125.397 178.638 126.359 179.489C127.32 180.34 127.86 181.493 127.861 182.696V199.37C127.859 200.573 127.318 201.726 126.358 202.576C125.397 203.426 124.093 203.904 122.735 203.905ZM92.2101 178.547C90.9677 178.549 89.777 178.987 88.8992 179.765C88.0206 180.543 87.5273 181.597 87.5257 182.696V199.37C87.5273 200.469 88.0213 201.523 88.8992 202.301C89.777 203.078 90.9677 203.515 92.2101 203.517H122.735C123.977 203.515 125.168 203.078 126.046 202.301C126.925 201.523 127.42 200.469 127.422 199.37V182.696C127.421 181.597 126.927 180.542 126.048 179.764C125.169 178.986 123.978 178.548 122.735 178.547H120.84C120.791 178.547 120.742 178.532 120.704 178.506C120.665 178.478 120.638 178.44 120.626 178.398C119.941 175.763 118.267 173.413 115.878 171.73C113.489 170.047 110.526 169.13 107.472 169.13C104.419 169.13 101.456 170.047 99.0671 171.73C96.6779 173.413 95.0039 175.763 94.3188 178.398C94.308 178.441 94.2802 178.479 94.2417 178.506C94.2024 178.533 94.1538 178.547 94.1045 178.547H92.2101ZM117.335 178.547H97.612C97.5781 178.547 97.5442 178.541 97.5133 178.527C97.4825 178.513 97.4555 178.494 97.4355 178.469C97.4147 178.444 97.4008 178.416 97.3946 178.386C97.3892 178.356 97.3908 178.325 97.4008 178.295C98.0706 176.394 99.4085 174.733 101.22 173.553C103.032 172.373 105.223 171.736 107.472 171.736C109.722 171.736 111.912 172.373 113.724 173.553C115.536 174.733 116.875 176.394 117.544 178.295C117.555 178.325 117.558 178.356 117.552 178.386C117.546 178.416 117.533 178.444 117.512 178.469C117.492 178.494 117.465 178.513 117.435 178.527C117.404 178.541 117.37 178.547 117.335 178.547ZM97.9149 178.158H117.035C116.35 176.397 115.061 174.869 113.347 173.787C111.634 172.705 109.583 172.123 107.478 172.123C105.373 172.123 103.321 172.705 101.608 173.787C99.8948 174.869 98.6054 176.397 97.9202 178.158H97.9149Z" fill="#131F2D"/>
<path d="M125.707 175.715H96.9507C94.0451 175.715 91.6899 177.8 91.6899 180.371V196.416C91.6899 198.988 94.0451 201.073 96.9507 201.073H125.707C128.612 201.073 130.967 198.988 130.967 196.416V180.371C130.967 177.8 128.612 175.715 125.707 175.715Z" fill="#131F2D"/>
<path d="M111.33 190.58C108.616 190.58 105.963 189.868 103.707 188.534C101.449 187.199 99.6906 185.302 98.6517 183.083C97.6128 180.863 97.3415 178.42 97.8702 176.065C98.3996 173.708 99.7068 171.543 101.626 169.845C103.545 168.146 105.99 166.989 108.652 166.52C111.313 166.052 114.072 166.292 116.579 167.212C119.086 168.132 121.23 169.689 122.736 171.687C124.244 173.684 125.048 176.033 125.048 178.435C125.044 181.655 123.597 184.742 121.025 187.019C118.453 189.295 114.967 190.576 111.33 190.58ZM111.33 169.29C109.287 169.29 107.289 169.826 105.59 170.83C103.891 171.835 102.566 173.263 101.784 174.934C101.002 176.606 100.797 178.444 101.195 180.218C101.593 181.993 102.577 183.623 104.022 184.902C105.466 186.181 107.307 187.052 109.311 187.405C111.315 187.758 113.392 187.577 115.28 186.886C117.168 186.193 118.782 185.021 119.917 183.517C121.052 182.013 121.658 180.245 121.658 178.435C121.655 176.011 120.566 173.687 118.63 171.972C116.694 170.258 114.069 169.293 111.33 169.29Z" fill="#131F2D"/>
<path d="M111.33 189.384C110.951 189.383 110.588 189.25 110.319 189.013C110.051 188.775 109.9 188.453 109.899 188.117V181.975C109.9 181.64 110.051 181.318 110.319 181.08C110.588 180.843 110.951 180.709 111.33 180.709C111.709 180.71 112.072 180.844 112.339 181.081C112.607 181.319 112.758 181.64 112.759 181.975V188.117C112.758 188.452 112.607 188.774 112.339 189.012C112.072 189.249 111.709 189.383 111.33 189.384Z" fill="#00A3FE"/>
<path d="M111.33 194.952C113.46 194.952 115.186 193.424 115.186 191.538C115.186 189.653 113.46 188.125 111.33 188.125C109.2 188.125 107.474 189.653 107.474 191.538C107.474 193.424 109.2 194.952 111.33 194.952Z" fill="#00A3FE"/>
<path d="M181.465 102.662C181.38 102.662 181.297 102.644 181.221 102.61L175.722 100.177C175.657 100.149 175.599 100.11 175.552 100.062C175.504 100.015 175.468 99.9587 175.445 99.8985C175.422 99.8378 175.413 99.7742 175.419 99.7107C175.425 99.6472 175.445 99.585 175.478 99.5283C175.509 99.4709 175.553 99.4197 175.607 99.3774C175.661 99.3357 175.724 99.3036 175.792 99.2831C175.86 99.2633 175.933 99.2551 176.004 99.2606C176.076 99.2653 176.146 99.2831 176.21 99.3125L181.717 101.742C181.839 101.783 181.939 101.862 182 101.963C182.061 102.065 182.078 102.183 182.048 102.295C182.019 102.407 181.944 102.505 181.838 102.572C181.732 102.639 181.602 102.669 181.473 102.657L181.465 102.662Z" fill="#131F2D"/>
<path d="M173.651 108.506C173.506 108.51 173.365 108.463 173.26 108.375C173.154 108.288 173.093 108.166 173.088 108.038C173.083 107.91 173.137 107.786 173.235 107.692C173.335 107.599 173.471 107.544 173.616 107.54L179.725 107.174C179.87 107.166 180.012 107.208 180.121 107.293C180.23 107.377 180.297 107.495 180.307 107.623C180.317 107.751 180.269 107.877 180.175 107.974C180.079 108.07 179.945 108.129 179.801 108.138L173.688 108.503L173.651 108.506Z" fill="#131F2D"/>
<path d="M177.107 116.614C176.984 116.62 176.862 116.589 176.762 116.525C176.662 116.461 176.59 116.368 176.558 116.262C176.527 116.156 176.538 116.044 176.589 115.944C176.64 115.844 176.729 115.764 176.84 115.715L182.154 112.952C182.215 112.92 182.283 112.898 182.354 112.89C182.425 112.881 182.497 112.884 182.566 112.9C182.635 112.916 182.7 112.944 182.757 112.982C182.814 113.02 182.862 113.068 182.898 113.122C182.934 113.176 182.958 113.237 182.968 113.299C182.978 113.362 182.975 113.426 182.956 113.487C182.938 113.549 182.907 113.606 182.864 113.657C182.821 113.707 182.767 113.75 182.706 113.782L177.394 116.545C177.308 116.591 177.208 116.615 177.107 116.614Z" fill="#131F2D"/>
<path d="M199.339 102.662C199.237 102.664 199.138 102.638 199.051 102.591C198.964 102.543 198.895 102.476 198.851 102.394C198.818 102.338 198.798 102.276 198.792 102.213C198.786 102.149 198.795 102.085 198.818 102.025C198.84 101.964 198.877 101.909 198.924 101.861C198.972 101.813 199.03 101.774 199.095 101.747L204.599 99.3172C204.668 99.2892 204.738 99.2722 204.807 99.2681C204.876 99.264 204.954 99.2722 205.015 99.292C205.085 99.3125 205.146 99.3439 205.2 99.3855C205.254 99.4272 205.3 99.4778 205.331 99.5344C205.362 99.5911 205.385 99.6526 205.385 99.7161C205.393 99.779 205.385 99.8425 205.362 99.9026C205.339 99.9627 205.3 100.018 205.254 100.066C205.208 100.114 205.154 100.153 205.085 100.181L199.572 102.605C199.5 102.64 199.421 102.659 199.339 102.662Z" fill="#131F2D"/>
<path d="M207.15 108.506H207.111L201.003 108.14C200.859 108.131 200.724 108.072 200.629 107.976C200.534 107.879 200.486 107.753 200.496 107.625C200.507 107.498 200.573 107.379 200.682 107.295C200.791 107.211 200.933 107.168 201.078 107.177L207.189 107.543C207.335 107.547 207.466 107.601 207.566 107.695C207.666 107.788 207.72 107.913 207.713 108.041C207.713 108.169 207.651 108.29 207.543 108.377C207.435 108.465 207.296 108.512 207.15 108.508V108.506Z" fill="#131F2D"/>
<path d="M203.696 116.614C203.602 116.613 203.509 116.589 203.428 116.545L198.117 113.782C198.055 113.75 198.002 113.707 197.959 113.657C197.915 113.606 197.884 113.549 197.866 113.487C197.848 113.426 197.844 113.362 197.854 113.299C197.864 113.237 197.888 113.176 197.924 113.122C197.96 113.068 198.008 113.02 198.065 112.982C198.122 112.944 198.187 112.916 198.256 112.9C198.325 112.884 198.398 112.881 198.468 112.89C198.539 112.898 198.608 112.92 198.669 112.952L203.972 115.711C204.083 115.759 204.171 115.84 204.223 115.939C204.275 116.039 204.283 116.151 204.252 116.257C204.221 116.363 204.15 116.456 204.049 116.52C203.949 116.584 203.828 116.616 203.704 116.609L203.696 116.614Z" fill="#131F2D"/>
<path d="M201.34 105.747C201.34 112.01 196.648 117.134 190.753 117.442C190.56 117.452 190.367 117.456 190.174 117.456C184.01 117.456 179.008 112.213 179.008 105.747C178.982 103.142 179.838 100.59 181.465 98.4204C183.509 95.7469 186.65 94.0338 190.174 94.0338C191.138 94.0352 192.097 94.1643 193.018 94.4184C195.429 95.1246 197.497 96.5358 198.883 98.4204C200.51 100.59 201.366 103.142 201.34 105.747Z" fill="#657285"/>
<path d="M201.34 105.746C201.34 112.01 196.648 117.134 190.753 117.442C189.99 115.508 189.445 113.512 189.123 111.482C188.448 107.274 188.735 103.284 189.769 100.039C190.501 97.7278 191.613 95.792 193.017 94.4184C195.428 95.1247 197.497 96.5359 198.883 98.4204C200.51 100.59 201.366 103.142 201.34 105.746Z" fill="#657285"/>
<path d="M190.174 102.81C194.984 102.81 198.883 100.845 198.883 98.4231C198.883 96.0003 194.984 94.0366 190.174 94.0366C185.364 94.0366 181.465 96.0003 181.465 98.4231C181.465 100.845 185.364 102.81 190.174 102.81Z" fill="#131F2D"/>
<path d="M187.73 95.557C187.588 95.557 187.452 95.5072 187.351 95.4184C187.25 95.3289 187.194 95.2087 187.194 95.083C187.092 91.417 183.274 89.9321 183.234 89.9177C183.1 89.8679 182.995 89.7722 182.941 89.6534C182.887 89.5345 182.888 89.4014 182.945 89.2832C183.002 89.1657 183.109 89.0721 183.244 89.0243C183.378 88.9765 183.529 88.9779 183.662 89.0284C183.847 89.0994 188.167 90.7791 188.282 95.0591C188.285 95.1226 188.273 95.1868 188.248 95.2462C188.222 95.3064 188.183 95.361 188.133 95.4068C188.083 95.4532 188.023 95.4894 187.956 95.5147C187.89 95.5393 187.818 95.5523 187.746 95.5523L187.73 95.557Z" fill="#131F2D"/>
<path d="M192.238 96.7982C192.101 96.7982 191.969 96.7524 191.87 96.6704C191.771 96.5878 191.71 96.4751 191.701 96.3542C191.238 91.1876 195.217 89.1425 195.386 89.0571C195.512 88.9943 195.661 88.9779 195.8 89.012C195.939 89.0462 196.057 89.1282 196.128 89.2395C196.2 89.3508 196.218 89.4827 196.179 89.6063C196.141 89.7292 196.048 89.8338 195.922 89.8966C195.772 89.9731 192.382 91.7497 192.786 96.2784C192.793 96.3419 192.786 96.4054 192.764 96.4655C192.742 96.5263 192.707 96.5823 192.661 96.6301C192.615 96.6786 192.558 96.7176 192.494 96.7463C192.43 96.7749 192.359 96.7913 192.289 96.7954L192.238 96.7982Z" fill="#131F2D"/>
<g opacity="0.4">
<path d="M222.957 135.57C240.668 119.886 240.668 94.4567 222.957 78.7724C205.239 63.0887 176.515 63.0887 158.799 78.7724C141.082 94.4567 141.082 119.886 158.798 135.57C176.515 151.254 205.239 151.254 222.957 135.57Z" fill="#00A3FE"/>
</g>
<path d="M242.448 141.398C242.448 141.398 234.433 141.553 232.236 138.443C230.032 135.332 233.763 132.626 233.763 132.626L245.693 138.335L242.448 141.398Z" fill="#FF7955"/>
<path d="M229.955 125.132L226.464 130.12L314.956 178.636L318.448 173.649L229.955 125.132Z" fill="#131F2D"/>
<path d="M319.303 175.715L317.407 178.424C317.045 178.941 316.459 179.31 315.796 179.449C315.126 179.588 314.425 179.487 313.839 179.166L267.674 153.853C267.088 153.533 266.672 153.02 266.518 152.427C266.356 151.835 266.471 151.211 266.833 150.693L268.729 147.984C269.092 147.467 269.67 147.098 270.34 146.959C271.011 146.82 271.712 146.921 272.298 147.242L318.463 172.554C319.049 172.875 319.465 173.388 319.619 173.981C319.781 174.573 319.665 175.197 319.303 175.715Z" fill="#131F2D"/>
<path d="M150.502 85.0312C145.557 92.1001 143.089 100.31 143.413 108.62C143.737 116.931 146.837 124.97 152.322 131.721C157.806 138.472 165.429 143.632 174.226 146.547C183.023 149.463 192.599 150.003 201.744 148.101C210.888 146.199 219.188 141.938 225.601 135.859C232.005 129.78 236.236 122.155 237.747 113.948C239.265 105.741 237.994 97.3214 234.102 89.7525C230.21 82.1842 223.874 75.8072 215.89 71.4275C210.587 68.5197 204.691 66.5655 198.534 65.6755C192.379 64.7854 186.085 64.9774 180.014 66.2404C173.942 67.5033 168.21 69.8134 163.147 73.0374C158.084 76.2614 153.787 80.3366 150.502 85.0312ZM227.712 127.368C223.196 133.818 216.622 138.938 208.822 142.081C201.025 145.224 192.348 146.249 183.891 145.026C175.433 143.803 167.575 140.387 161.31 135.21C155.045 130.034 150.655 123.329 148.694 115.944C146.734 108.558 147.292 100.824 150.296 93.719C153.301 86.6138 158.618 80.4575 165.575 76.0278C172.532 71.5976 180.817 69.0942 189.382 68.8326C197.946 68.5716 206.402 70.5641 213.693 74.5593C218.526 77.2116 222.726 80.6815 226.048 84.7709C229.377 88.8604 231.751 93.4894 233.053 98.3931C234.356 103.297 234.556 108.38 233.639 113.351C232.722 118.323 230.703 123.086 227.712 127.368Z" fill="#131F2D"/>
<path d="M314.085 150.363C311.943 136.156 293.947 128.13 293.947 128.13C293.947 128.13 295.473 159.794 298.548 158.859C303.812 157.26 311.026 157.227 314.085 150.363Z" fill="#00A3FE"/>
<path d="M278.918 230.229C278.918 230.229 278.779 232.602 276.968 233.238C275.157 233.873 269.947 234.345 271.843 235.921C272.93 236.826 278.194 236.395 279.673 236.421C281.153 236.447 282.525 237.071 283.658 236.208C284.899 235.259 283.835 230.35 283.835 230.35C283.835 230.35 282.533 230.917 281.384 230.863C279.735 230.784 278.918 230.229 278.918 230.229Z" fill="#131F2D"/>
<path d="M265.924 170.275C266.271 175.211 266.926 181.619 268.136 189.458C270.44 204.404 273.238 219.466 274.618 226.69C274.833 227.924 275.512 229.059 276.544 229.91C277.577 230.762 278.903 231.281 280.305 231.384L281.839 231.477C284.914 231.662 287.488 229.342 287.35 226.509L284.937 177.802L284.706 170.054C284.706 170.054 265.354 162.178 265.924 170.275Z" fill="#364154"/>
<path d="M295.889 230.642C295.889 230.642 295.75 233.014 293.939 233.647C292.128 234.281 286.918 234.755 288.814 236.333C289.901 237.237 295.157 236.808 296.644 236.834C298.124 236.86 299.496 237.484 300.621 236.618C301.862 235.669 300.799 230.761 300.799 230.761C300.799 230.761 299.504 231.328 298.355 231.273C296.698 231.195 295.889 230.642 295.889 230.642Z" fill="#131F2D"/>
<path d="M282.587 158.447C282.587 158.447 281.909 169.179 285.099 189.873C287.411 204.819 290.209 219.881 291.589 227.105C291.804 228.339 292.483 229.475 293.508 230.326C294.54 231.178 295.866 231.697 297.276 231.8L298.81 231.892C301.885 232.077 304.459 229.757 304.313 226.925L301.901 178.218L301.43 162.194L282.587 158.447Z" fill="#364154"/>
<path d="M285.862 194.086L285.631 194.058C285.631 193.97 286.949 185.173 287.935 182.015C288.922 178.858 293.508 176.085 293.562 176.049L293.693 176.222C293.654 176.248 289.138 178.958 288.167 182.07C287.196 185.183 285.862 193.998 285.862 194.086Z" fill="#131F2D"/>
<path d="M285.916 125.456L284.729 122.246L284.382 121.312L282.34 115.815L282.07 121.271L281.908 124.555L281.862 125.594C281.824 126.305 281.307 126.445 280.683 127.06C280.429 127.297 278.81 128.813 280.652 129.492C282.949 130.341 287.242 129.057 288.876 127.375C288.86 127.383 286.301 126.495 285.916 125.456Z" fill="#FF7955"/>
<path d="M288.344 118.812C289.037 115.613 287.026 112.584 283.851 112.047C280.683 111.51 277.554 113.668 276.86 116.868C276.174 120.067 278.178 123.096 281.354 123.633C284.521 124.169 287.65 122.011 288.344 118.812Z" fill="#FF7955"/>
<path d="M279.357 115.815C276.013 115.92 274.386 114.308 274.348 112.816C274.302 110.902 275.743 109.208 277.423 109.92C279.103 110.631 278.386 108.886 279.997 108.7C283.018 108.354 283.589 110.147 286.055 110.235C289.315 110.349 293.022 114.883 290.301 118.192C290.301 118.192 282.001 115.732 279.357 115.815Z" fill="#131F2D"/>
<path d="M276.375 113.883C276.375 113.883 279.951 116.756 279.481 118.375C279.011 119.993 279.126 120.624 281.215 121.487C283.303 122.351 281.461 123.748 284.244 123.859C287.026 123.971 290.432 121.217 290.432 116.704C290.417 115.181 289.808 113.71 288.698 112.543L276.375 113.883Z" fill="#131F2D"/>
<path d="M277.677 118.303C277.855 118.075 278.132 117.914 278.44 117.855C278.749 117.795 279.065 117.84 279.342 117.981C279.465 118.06 279.566 118.16 279.643 118.276C279.72 118.392 279.774 118.521 279.789 118.655C279.812 118.788 279.797 118.924 279.751 119.053C279.712 119.182 279.635 119.301 279.535 119.405C279.357 119.633 279.08 119.793 278.772 119.853C278.463 119.912 278.147 119.866 277.87 119.724C277.747 119.646 277.647 119.546 277.569 119.43C277.492 119.314 277.438 119.186 277.423 119.052C277.4 118.918 277.415 118.783 277.462 118.654C277.5 118.525 277.577 118.406 277.677 118.303Z" fill="#FFB27D"/>
<path d="M291.642 119.437C291.627 119.437 291.604 119.43 291.588 119.42C291.573 119.409 291.565 119.395 291.558 119.378C291.411 118.978 291.111 118.641 290.695 118.429C290.687 118.425 290.679 118.419 290.671 118.411C290.664 118.404 290.664 118.395 290.656 118.385C290.656 118.376 290.656 118.366 290.656 118.357C290.656 118.347 290.656 118.338 290.664 118.329C290.671 118.321 290.679 118.313 290.687 118.307C290.695 118.301 290.702 118.296 290.718 118.293C290.725 118.29 290.733 118.29 290.748 118.29C290.756 118.291 290.772 118.294 290.779 118.299C291.234 118.532 291.573 118.909 291.727 119.355C291.727 119.364 291.727 119.374 291.727 119.383C291.727 119.393 291.72 119.402 291.712 119.411C291.712 119.42 291.704 119.426 291.689 119.433C291.681 119.438 291.673 119.442 291.666 119.445L291.642 119.437Z" fill="#131F2D"/>
<path d="M290.741 118.083C290.718 118.083 290.695 118.076 290.679 118.063C290.664 118.05 290.656 118.032 290.656 118.014C290.656 118.004 290.656 117.995 290.656 117.985C290.664 117.976 290.664 117.968 290.671 117.961C290.679 117.953 290.694 117.948 290.702 117.943C290.71 117.939 290.718 117.936 290.733 117.936C290.733 117.936 291.642 117.881 291.773 117.297C291.781 117.278 291.797 117.261 291.812 117.25C291.827 117.239 291.851 117.234 291.874 117.238C291.897 117.242 291.912 117.254 291.928 117.27C291.943 117.286 291.943 117.306 291.943 117.326C291.781 118.021 290.787 118.08 290.741 118.083Z" fill="#131F2D"/>
<path d="M277.932 109.806C277.87 109.806 277.808 109.798 277.754 109.782C277.508 109.714 277.277 109.612 277.068 109.478C276.876 109.336 276.645 109.241 276.398 109.204C276.159 109.166 275.905 109.187 275.673 109.265C275.658 109.268 275.65 109.269 275.643 109.268C275.627 109.267 275.62 109.264 275.604 109.259C275.596 109.255 275.589 109.248 275.581 109.241C275.573 109.233 275.573 109.224 275.566 109.215C275.566 109.206 275.566 109.196 275.566 109.186C275.566 109.176 275.566 109.167 275.573 109.158C275.581 109.15 275.589 109.142 275.596 109.136C275.604 109.13 275.612 109.125 275.627 109.122C275.882 109.04 276.159 109.019 276.429 109.06C276.699 109.102 276.945 109.205 277.153 109.36C277.354 109.485 277.569 109.58 277.801 109.644C277.855 109.661 277.916 109.667 277.978 109.659C278.04 109.651 278.101 109.631 278.155 109.599C278.517 109.379 278.61 108.65 278.61 108.65C278.61 108.631 278.625 108.614 278.641 108.601C278.656 108.589 278.679 108.583 278.702 108.584C278.71 108.585 278.725 108.588 278.733 108.592C278.741 108.597 278.749 108.603 278.756 108.612C278.764 108.619 278.772 108.628 278.772 108.638C278.779 108.647 278.779 108.657 278.772 108.667C278.772 108.698 278.679 109.459 278.24 109.72C278.147 109.776 278.04 109.806 277.932 109.806Z" fill="#131F2D"/>
<path d="M285.801 109.998C285.014 109.967 284.259 109.703 283.658 109.248C283.65 109.242 283.643 109.235 283.635 109.226C283.627 109.217 283.627 109.207 283.619 109.196C283.619 109.186 283.619 109.176 283.627 109.166C283.627 109.156 283.635 109.147 283.643 109.139C283.65 109.131 283.658 109.125 283.673 109.121C283.681 109.117 283.697 109.114 283.704 109.114C283.72 109.114 283.727 109.116 283.743 109.121C283.75 109.125 283.758 109.131 283.766 109.139C283.766 109.139 284.876 110 286.155 109.827C286.178 109.824 286.201 109.829 286.217 109.84C286.24 109.852 286.248 109.87 286.255 109.889C286.255 109.908 286.248 109.928 286.24 109.944C286.224 109.96 286.201 109.971 286.178 109.974C286.055 109.99 285.932 109.998 285.801 109.998Z" fill="#131F2D"/>
<path d="M278.571 119.928C278.494 119.93 278.417 119.922 278.34 119.902C278.332 119.902 278.332 119.9 278.325 119.897C278.317 119.894 278.317 119.891 278.309 119.886C278.309 119.882 278.309 119.877 278.309 119.872C278.302 119.866 278.302 119.861 278.309 119.856C278.309 119.851 278.309 119.846 278.317 119.842C278.317 119.839 278.325 119.836 278.332 119.834C278.332 119.832 278.34 119.831 278.348 119.831C278.356 119.832 278.363 119.833 278.363 119.836C278.394 119.836 279.119 120.038 279.635 119.184C279.635 119.179 279.643 119.176 279.643 119.172C279.65 119.17 279.65 119.167 279.658 119.166C279.666 119.165 279.666 119.164 279.673 119.165C279.681 119.165 279.681 119.167 279.689 119.17C279.697 119.174 279.704 119.181 279.704 119.19C279.712 119.199 279.712 119.208 279.704 119.217C279.334 119.827 278.856 119.928 278.571 119.928Z" fill="#131F2D"/>
<path d="M265.924 170.275C265.924 170.275 290.194 169.089 301.708 171.577L301.885 168.626L285.731 164.344L272.691 164.631L268.691 165.399L265.862 169.326L265.924 170.275Z" fill="#131F2D"/>
<path d="M299.558 134.331C299.558 134.331 297.415 126.075 284.352 126.075C261.577 126.075 267.966 142.77 265.862 169.314C265.862 169.314 280.544 166.453 301.785 170.263C301.785 170.263 303.858 155.889 301.184 143.738C300.475 140.525 300.598 137.121 299.558 134.331Z" fill="#00A3FE"/>
<path d="M281.731 126.075C281.731 126.075 274.425 126.17 268.992 130.779C263.566 135.389 256.568 141.736 255.08 145.387C253.254 149.894 256.622 154.402 260.891 154.492C265.161 154.582 268.992 151.804 268.992 151.804L281.731 126.075Z" fill="#00A3FE"/>
<path d="M302.479 163.784H302.317C302.949 153.371 300.899 142.712 300.876 142.606L301.037 142.582C301.045 142.682 303.103 153.358 302.479 163.784Z" fill="#131F2D"/>
<path d="M266.464 153.3L266.379 153.18C270.672 150.902 276.259 144.907 276.313 144.846L276.437 144.938C276.383 144.997 270.78 151.014 266.464 153.3Z" fill="#131F2D"/>
<path d="M236.653 142.587C236.599 145.531 253.069 156.292 262.949 154.494C273.454 152.596 260.491 142.238 260.491 142.238L241.13 138.293C241.13 138.293 236.707 139.605 236.653 142.587Z" fill="#00A3FE"/>
<path d="M241.131 138.293C241.184 137.95 241.146 137.601 241.007 137.276C240.876 136.95 240.653 136.659 240.368 136.426C239.373 135.65 238.341 132.113 237.685 133C237.038 133.887 237.639 136.71 236.653 137.014C235.666 137.318 241.131 138.293 241.131 138.293Z" fill="#FF7955"/>
<path d="M248.375 75.3803H247.404C247.273 75.3803 247.15 75.4247 247.065 75.5039C246.972 75.5832 246.926 75.6904 246.926 75.8024V79.5982C246.926 79.7109 246.872 79.8188 246.78 79.8987C246.695 79.978 246.572 80.023 246.441 80.023H246.101C245.97 80.0223 245.855 79.9773 245.762 79.898C245.678 79.8181 245.624 79.7102 245.624 79.5982V75.8024C245.624 75.6904 245.57 75.5832 245.485 75.5039C245.392 75.4247 245.269 75.3803 245.146 75.3803H244.198C244.067 75.3803 243.944 75.3352 243.859 75.256C243.766 75.1761 243.712 75.0681 243.712 74.9554V74.8728C243.712 74.7601 243.766 74.6522 243.859 74.5723C243.944 74.4923 244.067 74.4479 244.198 74.4479H248.375C248.506 74.4479 248.622 74.4923 248.714 74.5723C248.807 74.6522 248.853 74.7601 248.853 74.8728V74.9554C248.853 75.0681 248.807 75.1761 248.714 75.256C248.622 75.3352 248.506 75.3803 248.375 75.3803Z" fill="#00A3FE"/>
<path d="M252.899 77.603H251.358C251.234 77.603 251.111 77.648 251.026 77.7273C250.934 77.8058 250.888 77.9138 250.888 78.0258V78.6733C250.888 78.7853 250.934 78.8933 251.026 78.9725C251.111 79.0524 251.234 79.0975 251.358 79.0982H253.331C253.392 79.0982 253.462 79.1091 253.516 79.1303C253.577 79.1514 253.624 79.1829 253.67 79.2225C253.716 79.2621 253.755 79.3085 253.778 79.3605C253.801 79.4117 253.809 79.467 253.809 79.5223V79.5982C253.809 79.6542 253.801 79.7095 253.778 79.7607C253.755 79.812 253.716 79.8591 253.67 79.8987C253.624 79.9383 253.577 79.9691 253.516 79.9909C253.462 80.0121 253.392 80.023 253.331 80.023H250.063C249.94 80.023 249.816 79.9786 249.724 79.8987C249.631 79.8188 249.585 79.7109 249.585 79.5982V74.8537C249.585 74.741 249.631 74.633 249.724 74.5531C249.816 74.4739 249.94 74.4288 250.063 74.4288H253.323C253.454 74.4295 253.57 74.4746 253.662 74.5545C253.755 74.6337 253.801 74.7416 253.801 74.8537V74.937C253.801 75.049 253.755 75.1563 253.662 75.2362C253.57 75.3154 253.454 75.3605 253.323 75.3612H251.358C251.234 75.3612 251.111 75.4056 251.026 75.4848C250.934 75.564 250.888 75.672 250.888 75.784V76.258C250.888 76.37 250.934 76.478 251.026 76.5579C251.111 76.6371 251.234 76.6822 251.358 76.6829H252.899C253.022 76.6829 253.146 76.7273 253.238 76.8065C253.331 76.8858 253.377 76.993 253.377 77.105V77.1597C253.385 77.217 253.369 77.2744 253.346 77.3277C253.323 77.3816 253.292 77.4308 253.246 77.4725C253.2 77.5135 253.146 77.547 253.084 77.5695C253.03 77.592 252.961 77.6036 252.899 77.603Z" fill="#00A3FE"/>
<path d="M257.855 78.5565C257.855 78.4677 257.839 78.3782 257.809 78.2935C257.77 78.2082 257.708 78.1337 257.624 78.0777C257.508 77.9985 257.377 77.9329 257.246 77.883C257.046 77.8045 256.837 77.7362 256.622 77.6788C256.352 77.6009 256.082 77.5094 255.82 77.4035C255.581 77.3099 255.35 77.1877 255.15 77.0408C254.965 76.9103 254.81 76.7491 254.695 76.5661C254.579 76.3687 254.525 76.1508 254.525 75.9295C254.525 75.7082 254.579 75.4903 254.695 75.2922C254.81 75.0975 254.972 74.9281 255.173 74.799C255.396 74.6563 255.643 74.5483 255.905 74.4807C256.213 74.4049 256.529 74.3673 256.845 74.3694C257.169 74.366 257.493 74.409 257.801 74.4978C258.071 74.5743 258.317 74.6959 258.533 74.8557C258.733 75.0053 258.888 75.1918 258.995 75.4015C259.026 75.4473 259.042 75.4923 259.065 75.5367C259.088 75.6003 259.096 75.6686 259.08 75.7348C259.073 75.8011 259.042 75.8639 258.995 75.9186C258.949 75.9732 258.895 76.0169 258.826 76.0477C258.756 76.0784 258.679 76.0941 258.61 76.0941H258.256C258.155 76.0934 258.063 76.0647 257.978 76.0121C257.893 75.9595 257.832 75.8851 257.801 75.8004C257.801 75.8004 257.801 75.7785 257.801 75.769C257.762 75.6713 257.693 75.5832 257.608 75.5108C257.516 75.4363 257.408 75.3796 257.284 75.3448C257.138 75.3018 256.984 75.2819 256.822 75.2854C256.676 75.2833 256.521 75.2997 256.383 75.3352C256.267 75.3639 256.159 75.4104 256.067 75.4725C255.99 75.5278 255.928 75.5996 255.882 75.6815C255.843 75.7601 255.82 75.8462 255.82 75.9329C255.82 76.0299 255.851 76.1255 255.905 76.2089C255.959 76.2922 256.044 76.3605 256.136 76.4076C256.429 76.5613 256.745 76.6781 257.069 76.7539C257.385 76.8373 257.685 76.9431 257.978 77.0695C258.217 77.1699 258.44 77.3017 258.633 77.4609C258.803 77.5989 258.934 77.7662 259.034 77.952C259.126 78.1474 259.165 78.3571 259.165 78.5688C259.173 78.7956 259.111 79.0196 259.003 79.2232C258.895 79.4117 258.733 79.5743 258.541 79.6979C258.325 79.8372 258.078 79.939 257.816 79.9991C257.516 80.0736 257.192 80.1091 256.876 80.1057C256.668 80.1057 256.46 80.0893 256.252 80.0585C256.051 80.0271 255.851 79.9773 255.658 79.909C255.466 79.8489 255.288 79.7689 255.119 79.6719C254.965 79.5736 254.818 79.4554 254.695 79.3208C254.579 79.1808 254.479 79.0244 254.417 78.8577V78.8318C254.394 78.7683 254.387 78.7013 254.402 78.6357C254.41 78.5702 254.441 78.5087 254.487 78.4547C254.533 78.4015 254.595 78.3584 254.656 78.3284C254.726 78.299 254.803 78.2833 254.872 78.284H255.211C255.311 78.284 255.412 78.3147 255.496 78.3707C255.581 78.4267 255.643 78.5053 255.674 78.5948C255.681 78.6351 255.697 78.6754 255.72 78.7136C255.774 78.8256 255.859 78.9247 255.967 79.0005C256.09 79.0756 256.221 79.1296 256.367 79.1597C256.529 79.1938 256.699 79.2109 256.876 79.2095C257.022 79.2109 257.169 79.1952 257.315 79.1617C257.423 79.1351 257.523 79.09 257.616 79.0292C257.701 78.9759 257.762 78.9069 257.801 78.827C257.839 78.7416 257.862 78.6494 257.855 78.5565Z" fill="#00A3FE"/>
<path d="M264.305 75.3803H263.334C263.203 75.3803 263.08 75.4247 262.995 75.5039C262.903 75.5832 262.857 75.6904 262.857 75.8024V79.5981C262.857 79.7109 262.803 79.8188 262.71 79.8987C262.625 79.9786 262.502 80.023 262.371 80.023H262.032C261.909 80.0223 261.785 79.9772 261.693 79.898C261.608 79.8181 261.554 79.7109 261.554 79.5981V75.8024C261.554 75.6904 261.5 75.5832 261.415 75.5039C261.323 75.4247 261.2 75.3803 261.076 75.3803H260.136C260.005 75.3796 259.889 75.3345 259.797 75.2553C259.704 75.1754 259.658 75.0681 259.658 74.9554V74.8728C259.658 74.8154 259.666 74.7587 259.689 74.7054C259.712 74.6521 259.743 74.6036 259.789 74.5627C259.835 74.521 259.889 74.4882 259.951 74.4657C260.005 74.4431 260.067 74.4315 260.136 74.4315H264.313C264.444 74.4315 264.568 74.4759 264.652 74.5558C264.745 74.6351 264.791 74.7437 264.791 74.8557V74.939C264.799 74.9971 264.783 75.0545 264.76 75.1084C264.737 75.1624 264.706 75.2116 264.66 75.2526C264.614 75.2942 264.56 75.3263 264.498 75.3489C264.437 75.3707 264.375 75.3817 264.305 75.3803Z" fill="#00A3FE"/>
<path d="M266.433 80.023H266.086C265.963 80.0223 265.839 79.9773 265.747 79.898C265.662 79.8181 265.608 79.7109 265.608 79.5982V74.8537C265.608 74.7416 265.662 74.6337 265.747 74.5545C265.839 74.4746 265.963 74.4295 266.086 74.4288H266.433C266.556 74.4288 266.679 74.4739 266.772 74.5531C266.857 74.633 266.91 74.741 266.91 74.8537V79.5982C266.91 79.7109 266.857 79.8188 266.772 79.8987C266.679 79.9786 266.556 80.023 266.433 80.023Z" fill="#00A3FE"/>
<path d="M272.76 80.023H272.213C272.128 80.023 272.043 80.0039 271.974 79.9684C271.905 79.9329 271.843 79.8809 271.805 79.8188L270.302 77.6364C270.248 77.5586 270.163 77.4985 270.063 77.465C269.97 77.4315 269.862 77.4267 269.762 77.452C269.662 77.4766 269.577 77.5299 269.508 77.603C269.446 77.676 269.415 77.7648 269.415 77.8571V79.5982C269.415 79.7109 269.361 79.8188 269.269 79.8987C269.184 79.9786 269.061 80.023 268.93 80.023H268.591C268.467 80.023 268.344 79.9786 268.252 79.8987C268.159 79.8188 268.113 79.7109 268.113 79.5982V74.8537C268.113 74.741 268.159 74.633 268.252 74.5531C268.344 74.4739 268.467 74.4288 268.591 74.4288H269.146C269.223 74.4295 269.307 74.4479 269.377 74.4834C269.446 74.5196 269.508 74.5709 269.554 74.633L271.057 76.8202C271.111 76.8994 271.196 76.9609 271.288 76.995C271.388 77.0285 271.496 77.034 271.596 77.0094C271.697 76.9848 271.781 76.9315 271.851 76.8577C271.912 76.7847 271.943 76.6945 271.943 76.6023V74.8537C271.943 74.7416 271.997 74.6337 272.09 74.5545C272.174 74.4746 272.298 74.4295 272.421 74.4288H272.76C272.891 74.4288 273.015 74.4739 273.099 74.5531C273.192 74.633 273.238 74.741 273.238 74.8537V79.5982C273.238 79.7109 273.192 79.8188 273.099 79.8987C273.015 79.9786 272.891 80.023 272.76 80.023Z" fill="#00A3FE"/>
<path d="M279.365 79.1453C279.365 79.2047 279.35 79.2635 279.327 79.3181C279.296 79.3721 279.257 79.4213 279.203 79.4609C279.165 79.4964 279.111 79.534 279.057 79.5722C278.91 79.6726 278.741 79.7566 278.571 79.8236C278.348 79.9096 278.117 79.9759 277.878 80.0203C277.569 80.0756 277.261 80.1023 276.953 80.0988C276.575 80.1029 276.19 80.0428 275.835 79.9206C275.512 79.8065 275.211 79.6269 274.972 79.3967C274.726 79.1508 274.533 78.8625 274.417 78.5497C274.279 78.1788 274.209 77.7894 274.217 77.3987V77.0695C274.209 76.6781 274.279 76.2895 274.41 75.9165C274.525 75.6037 274.702 75.3147 274.949 75.0668C275.173 74.838 275.458 74.6583 275.781 74.5429C276.128 74.4192 276.498 74.3578 276.868 74.3626C277.23 74.355 277.593 74.4008 277.939 74.4978C278.217 74.577 278.471 74.7068 278.687 74.8796C278.887 75.0436 279.049 75.243 279.157 75.4657C279.188 75.5278 279.219 75.5921 279.242 75.6576C279.265 75.7218 279.273 75.7895 279.257 75.8557C279.25 75.922 279.219 75.9848 279.172 76.0395C279.126 76.0941 279.072 76.1385 279.003 76.1685C278.934 76.1993 278.864 76.215 278.787 76.215H278.487C278.386 76.2143 278.286 76.1849 278.201 76.1323C278.124 76.0798 278.063 76.0053 278.032 75.9213L277.993 75.8332C277.939 75.7232 277.862 75.6235 277.77 75.5415C277.67 75.4575 277.546 75.3933 277.415 75.3544C277.253 75.3086 277.084 75.2867 276.914 75.2901C276.714 75.2813 276.521 75.3175 276.344 75.3953C276.167 75.4732 276.013 75.5907 275.905 75.7362C275.643 76.1378 275.519 76.5996 275.55 77.062V77.3987C275.519 77.8653 275.65 78.3297 275.936 78.7252C276.059 78.8721 276.221 78.9902 276.413 79.0688C276.598 79.1473 276.806 79.1842 277.015 79.176C277.153 79.1781 277.292 79.1692 277.423 79.1501C277.523 79.1357 277.623 79.1132 277.724 79.0831C277.793 79.0599 277.862 79.0305 277.924 78.9957C277.978 78.9677 278.016 78.9363 278.063 78.9008V78.3625C278.063 78.2498 278.009 78.1419 277.924 78.062C277.831 77.9821 277.708 77.9377 277.585 77.9377H277.354C277.23 77.9377 277.107 77.8933 277.022 77.814C276.93 77.7348 276.876 77.6275 276.876 77.5155C276.876 77.4028 276.93 77.2949 277.015 77.215C277.107 77.1351 277.23 77.0907 277.354 77.0907H278.895C278.957 77.0907 279.018 77.1016 279.072 77.1228C279.134 77.1446 279.188 77.1754 279.234 77.215C279.273 77.2546 279.311 77.3017 279.334 77.353C279.357 77.4042 279.373 77.4595 279.373 77.5155L279.365 79.1453Z" fill="#00A3FE"/>
</svg>
