<svg width="37" height="33" viewBox="0 0 37 33" fill="none" xmlns="http://www.w3.org/2000/svg">
<path fill-rule="evenodd" clip-rule="evenodd" d="M12.3924 0.626532C16.4077 -0.208844 20.5865 -0.208844 24.6019 0.626532C30.3999 1.83144 34.9278 5.84438 36.2873 10.983C37.2299 14.5417 37.2299 18.2453 36.2873 21.804C34.9278 26.9426 30.3999 30.9555 24.6019 32.1604C20.5865 32.9958 16.4077 32.9958 12.3924 32.1604C6.59434 30.9555 2.06645 26.9426 0.70693 21.804C-0.235643 18.2453 -0.235643 14.5417 0.70693 10.983C2.06645 5.84438 6.59434 1.83144 12.3924 0.626532ZM21.5592 12.7733C22.2019 12.5452 22.8393 13.11 22.5827 13.6797L20.9788 17.233C20.699 17.8532 20.1441 18.3443 19.4443 18.5929L15.4351 20.0137C14.7931 20.2418 14.155 19.6769 14.4124 19.1073L16.0162 15.554C16.296 14.9338 16.8501 14.4427 17.5507 14.1941L21.5592 12.7733ZM24.7745 14.457C25.8027 12.179 23.2524 9.91948 20.6829 10.83L16.6736 12.2514C15.3734 12.7125 14.3438 13.625 13.8236 14.7774L12.2205 18.33C11.1924 20.6079 13.7426 22.8675 16.3122 21.957L20.3214 20.5355C21.6208 20.0745 22.6513 19.1619 23.1707 18.0096L24.7745 14.457Z" fill="#FCA311"/>
<path fill-rule="evenodd" clip-rule="evenodd" d="M12.3924 0.626532C16.4077 -0.208844 20.5865 -0.208844 24.6019 0.626532C30.3999 1.83144 34.9278 5.84438 36.2873 10.983C37.2299 14.5417 37.2299 18.2453 36.2873 21.804C34.9278 26.9426 30.3999 30.9555 24.6019 32.1604C20.5865 32.9958 16.4077 32.9958 12.3924 32.1604C6.59434 30.9555 2.06645 26.9426 0.70693 21.804C-0.235643 18.2453 -0.235643 14.5417 0.70693 10.983C2.06645 5.84438 6.59434 1.83144 12.3924 0.626532ZM21.5592 12.7733C22.2019 12.5452 22.8393 13.11 22.5827 13.6797L20.9788 17.233C20.699 17.8532 20.1441 18.3443 19.4443 18.5929L15.4351 20.0137C14.7931 20.2418 14.155 19.6769 14.4124 19.1073L16.0162 15.554C16.296 14.9338 16.8501 14.4427 17.5507 14.1941L21.5592 12.7733ZM24.7745 14.457C25.8027 12.179 23.2524 9.91948 20.6829 10.83L16.6736 12.2514C15.3734 12.7125 14.3438 13.625 13.8236 14.7774L12.2205 18.33C11.1924 20.6079 13.7426 22.8675 16.3122 21.957L20.3214 20.5355C21.6208 20.0745 22.6513 19.1619 23.1707 18.0096L24.7745 14.457Z" fill="url(#paint0_linear_3_363)"/>
<defs>
<linearGradient id="paint0_linear_3_363" x1="0.000193268" y1="-0.151468" x2="18.5201" y2="40.9575" gradientUnits="userSpaceOnUse">
<stop stop-color="#09C6F9"/>
<stop offset="1" stop-color="#045DE9"/>
</linearGradient>
</defs>
</svg>
