<svg width="25" height="22" viewBox="0 0 25 22" fill="none" xmlns="http://www.w3.org/2000/svg">
<path d="M12.3313 21.8577C19.1417 21.8577 24.6626 16.9647 24.6626 10.9289C24.6626 4.89302 19.1417 0 12.3313 0C5.52091 0 0 4.89302 0 10.9289C0 16.9647 5.52091 21.8577 12.3313 21.8577Z" fill="#FCA311"/>
<path d="M12.3313 21.8577C19.1417 21.8577 24.6626 16.9647 24.6626 10.9289C24.6626 4.89302 19.1417 0 12.3313 0C5.52091 0 0 4.89302 0 10.9289C0 16.9647 5.52091 21.8577 12.3313 21.8577Z" fill="url(#paint0_linear_3_357)"/>
<path d="M6.79456 13.6611V7.9234H10.9748V8.76767H7.97834V10.3742H10.4015V11.2021H7.97834V13.6611H6.79456ZM11.8881 13.6611V7.9234H14.487C15.159 7.9234 15.6708 8.06274 16.0222 8.34143C16.3798 8.61465 16.5586 8.96713 16.5586 9.39882C16.5586 9.75947 16.4476 10.0491 16.2257 10.2676C16.0099 10.4808 15.7447 10.6256 15.4303 10.7021C15.8002 10.7677 16.1055 10.9316 16.3459 11.1939C16.5864 11.4507 16.7066 11.7513 16.7066 12.0955C16.7066 12.5491 16.5216 12.9234 16.1517 13.2184C15.7817 13.5135 15.2577 13.6611 14.5794 13.6611H11.8881ZM13.0719 10.3332H14.3112C14.6442 10.3332 14.9001 10.2649 15.0789 10.1283C15.2577 9.99171 15.3471 9.79773 15.3471 9.54636C15.3471 9.30593 15.2577 9.1174 15.0789 8.98079C14.9062 8.83872 14.6442 8.76767 14.2928 8.76767H13.0719V10.3332ZM13.0719 12.8086H14.3945C14.7459 12.8086 15.0172 12.7376 15.2083 12.5955C15.4056 12.448 15.5043 12.243 15.5043 11.9807C15.5043 11.713 15.4026 11.5026 15.1991 11.3496C14.9956 11.1966 14.7213 11.1201 14.376 11.1201H13.0719V12.8086Z" fill="white"/>
<defs>
<linearGradient id="paint0_linear_3_357" x1="1.48744e-07" y1="-0.101092" x2="12.3468" y2="27.3047" gradientUnits="userSpaceOnUse">
<stop stop-color="#09C6F9"/>
<stop offset="1" stop-color="#045DE9"/>
</linearGradient>
</defs>
</svg>
