<svg width="37" height="42" viewBox="0 0 37 42" fill="none" xmlns="http://www.w3.org/2000/svg">
<path fill-rule="evenodd" clip-rule="evenodd" d="M25.3718 30.3855L24.2944 30.5959V31.8657C24.2944 34.0426 22.7499 35.8943 20.595 36.5808V39.9995C20.595 40.9202 19.7665 41.6661 18.7453 41.6661C17.7234 41.6661 16.8949 40.9202 16.8949 39.9995V36.5808C14.74 35.8943 13.1954 34.0426 13.1954 31.8657V30.6888C13.0351 30.6601 12.8741 30.63 12.7137 30.5986L11.6225 30.3855C6.29689 29.3459 2.08264 25.6806 0.741611 20.9218C-0.247204 17.415 -0.247204 13.7415 0.741611 10.2347C2.08264 5.47655 6.29689 1.81061 11.6225 0.771006L12.7137 0.557885C16.5249 -0.185962 20.4694 -0.185962 24.2805 0.557885L25.3718 0.771006C30.6974 1.81061 34.9116 5.47654 36.2527 10.2354C37.2415 13.7415 37.2415 17.415 36.2527 20.9218C34.9116 25.6806 30.6974 29.3459 25.3718 30.3855ZM20.595 31.0843C20.38 31.0993 20.1657 31.1116 19.9507 31.1218C18.9326 31.171 17.913 31.1683 16.8949 31.1143V31.8657C16.8949 32.7857 17.7234 33.5323 18.7453 33.5323C19.7665 33.5323 20.595 32.7857 20.595 31.8657V31.0843ZM20.6559 8.95878C21.2941 9.41847 21.3981 10.2579 20.8871 10.8324L17.8775 14.2217H22.1981C22.7669 14.2217 23.2856 14.5154 23.5322 14.9778C23.778 15.4396 23.7087 15.9881 23.3534 16.3883L18.4208 21.9436C17.9099 22.5187 16.9789 22.6117 16.3407 22.152C15.7026 21.6916 15.5993 20.8528 16.1095 20.2777L19.1191 16.8883H14.7985C14.2297 16.8883 13.7111 16.5946 13.4652 16.1329C13.2186 15.6711 13.288 15.1227 13.6433 14.7224L18.5757 9.16711C19.0867 8.59197 20.0178 8.4984 20.6559 8.95878Z" fill="#FCA311"/>
<path fill-rule="evenodd" clip-rule="evenodd" d="M25.3718 30.3855L24.2944 30.5959V31.8657C24.2944 34.0426 22.7499 35.8943 20.595 36.5808V39.9995C20.595 40.9202 19.7665 41.6661 18.7453 41.6661C17.7234 41.6661 16.8949 40.9202 16.8949 39.9995V36.5808C14.74 35.8943 13.1954 34.0426 13.1954 31.8657V30.6888C13.0351 30.6601 12.8741 30.63 12.7137 30.5986L11.6225 30.3855C6.29689 29.3459 2.08264 25.6806 0.741611 20.9218C-0.247204 17.415 -0.247204 13.7415 0.741611 10.2347C2.08264 5.47655 6.29689 1.81061 11.6225 0.771006L12.7137 0.557885C16.5249 -0.185962 20.4694 -0.185962 24.2805 0.557885L25.3718 0.771006C30.6974 1.81061 34.9116 5.47654 36.2527 10.2354C37.2415 13.7415 37.2415 17.415 36.2527 20.9218C34.9116 25.6806 30.6974 29.3459 25.3718 30.3855ZM20.595 31.0843C20.38 31.0993 20.1657 31.1116 19.9507 31.1218C18.9326 31.171 17.913 31.1683 16.8949 31.1143V31.8657C16.8949 32.7857 17.7234 33.5323 18.7453 33.5323C19.7665 33.5323 20.595 32.7857 20.595 31.8657V31.0843ZM20.6559 8.95878C21.2941 9.41847 21.3981 10.2579 20.8871 10.8324L17.8775 14.2217H22.1981C22.7669 14.2217 23.2856 14.5154 23.5322 14.9778C23.778 15.4396 23.7087 15.9881 23.3534 16.3883L18.4208 21.9436C17.9099 22.5187 16.9789 22.6117 16.3407 22.152C15.7026 21.6916 15.5993 20.8528 16.1095 20.2777L19.1191 16.8883H14.7985C14.2297 16.8883 13.7111 16.5946 13.4652 16.1329C13.2186 15.6711 13.288 15.1227 13.6433 14.7224L18.5757 9.16711C19.0867 8.59197 20.0178 8.4984 20.6559 8.95878Z" fill="url(#paint0_linear_3_364)"/>
<defs>
<linearGradient id="paint0_linear_3_364" x1="0.000192276" y1="-0.192792" x2="27.0987" y2="47.1387" gradientUnits="userSpaceOnUse">
<stop stop-color="#09C6F9"/>
<stop offset="1" stop-color="#045DE9"/>
</linearGradient>
</defs>
</svg>
