<svg width="25" height="22" viewBox="0 0 25 22" fill="none" xmlns="http://www.w3.org/2000/svg">
<path d="M12.3313 21.8577C19.1417 21.8577 24.6626 16.9647 24.6626 10.9289C24.6626 4.89302 19.1417 0 12.3313 0C5.52091 0 0 4.89302 0 10.9289C0 16.9647 5.52091 21.8577 12.3313 21.8577Z" fill="#FCA311"/>
<path d="M12.3313 21.8577C19.1417 21.8577 24.6626 16.9647 24.6626 10.9289C24.6626 4.89302 19.1417 0 12.3313 0C5.52091 0 0 4.89302 0 10.9289C0 16.9647 5.52091 21.8577 12.3313 21.8577Z" fill="url(#paint0_linear_3_358)"/>
<path d="M7.56522 13.6611V7.92342H8.749V13.6611H7.56522ZM12.8338 13.7594C12.2234 13.7594 11.69 13.6365 11.2338 13.3906C10.7775 13.1447 10.423 12.8032 10.1702 12.366C9.91741 11.9234 9.79101 11.4098 9.79101 10.8251C9.79101 10.2349 9.92049 9.71577 10.1794 9.26768C10.4446 8.81414 10.8176 8.4617 11.2985 8.21033C11.7856 7.95351 12.3621 7.82507 13.028 7.82507C13.7863 7.82507 14.4152 7.98628 14.9146 8.30868C15.4141 8.63108 15.7378 9.07643 15.8857 9.64473H14.5632C14.4646 9.37697 14.2858 9.16933 14.0268 9.02179C13.7679 8.86879 13.4349 8.79229 13.028 8.79229C12.3806 8.79229 11.8812 8.97536 11.5297 9.34148C11.1783 9.70213 11.0026 10.1994 11.0026 10.8332C11.0026 11.4671 11.1752 11.9589 11.5205 12.3087C11.8719 12.6529 12.3467 12.825 12.9447 12.825C13.5305 12.825 13.9713 12.6857 14.2673 12.407C14.5694 12.1229 14.7513 11.7513 14.8129 11.2922H13.176V10.5054H16.006V13.6611H14.9146L14.8222 12.907C14.6125 13.1802 14.3505 13.3906 14.0361 13.5381C13.7216 13.6857 13.3208 13.7594 12.8338 13.7594Z" fill="white"/>
<defs>
<linearGradient id="paint0_linear_3_358" x1="1.48744e-07" y1="-0.101092" x2="12.3468" y2="27.3047" gradientUnits="userSpaceOnUse">
<stop stop-color="#09C6F9"/>
<stop offset="1" stop-color="#045DE9"/>
</linearGradient>
</defs>
</svg>
