<svg width="57" height="60" viewBox="0 0 57 60" fill="none" xmlns="http://www.w3.org/2000/svg">
<path d="M27.1418 39.8203C25.9283 41.0977 23.9467 41.0977 22.7332 39.8203L15.6082 32.3203C14.3947 31.043 14.3947 28.957 15.6082 27.6797C16.8217 26.4023 18.8033 26.4023 20.0168 27.6797L24.9375 32.8594L36.9832 20.1797C38.1967 18.9023 40.1783 18.9023 41.3918 20.1797C42.6053 21.457 42.6053 23.543 41.3918 24.8203L27.1418 39.8203ZM57 30C57 46.5703 44.2418 60 28.5 60C12.7582 60 0 46.5703 0 30C0 13.4297 12.7582 0 28.5 0C44.2418 0 57 13.4297 57 30ZM28.5 5.625C15.7084 5.625 5.34375 16.5352 5.34375 30C5.34375 43.4648 15.7084 54.375 28.5 54.375C41.2916 54.375 51.6562 43.4648 51.6562 30C51.6562 16.5352 41.2916 5.625 28.5 5.625Z" fill="#11E834"/>
</svg>
